<svg xmlns="http://www.w3.org/2000/svg" width="600" height="635" viewBox="0 0 600 635">
<rect width="600" height="635" fill="#F5EDE0"/>
<polygon points="-0.0,272.2 -0.0,286.9 8.0,285.6 4.5,271.7" fill="#B8CC98" fillOpacity="0.5" stroke="#88AA68" strokeWidth="0.5"/>
<polygon points="-0.0,257.5 -0.0,270.6 4.4,270.2" fill="#B8CC98" fillOpacity="0.5" stroke="#88AA68" strokeWidth="0.5"/>
<polygon points="-0.0,333.4 -0.0,635.0 163.2,635.0 167.0,604.6 161.4,578.2 161.0,570.5 159.5,565.3 133.6,546.2 125.5,538.8 117.3,530.6 111.9,516.9 108.4,493.8 99.7,465.9 80.7,439.3 87.3,430.5 104.3,440.0 121.3,453.9 125.8,463.0 118.5,484.6 125.3,500.5 127.8,514.0 132.3,528.9 137.0,535.7 163.9,553.3 174.7,567.3 182.4,569.1 192.2,572.9 225.1,572.8 225.4,570.0 222.7,564.7 207.9,560.6 190.7,556.1 177.5,527.7 170.4,523.7 157.7,520.4 147.3,518.6 130.9,509.7 129.1,492.0 135.7,467.4 135.4,455.3 136.1,448.4 140.4,440.0 130.8,434.8 128.5,425.4 118.1,404.5 105.3,390.1 80.5,349.9 69.5,332.9 66.4,324.8 66.9,316.2 69.4,308.3 68.3,294.7 56.7,289.6 50.9,266.6 53.2,244.8 80.9,242.6 107.2,218.5 136.0,201.2 175.1,194.0 172.8,183.3 171.0,175.2 165.7,169.3 158.2,157.9 156.2,146.6 149.9,129.6 146.8,123.5 147.3,112.0 141.6,79.4 131.0,71.7 121.2,67.1 109.6,64.7 97.0,63.8 83.8,59.2 76.8,53.2 73.9,33.6 75.9,15.2 75.5,6.4 75.2,0.0 -0.0,0.0 -0.0,172.2 12.6,178.8 25.5,197.2 27.8,215.7 29.6,225.4 26.6,234.7 9.1,230.7 6.2,248.8 12.4,268.5 20.1,297.3 26.4,324.7 12.8,331.4" fill="#B8CC98" fillOpacity="0.5" stroke="#88AA68" strokeWidth="0.5"/>
<polygon points="-0.0,313.1 -0.0,331.9 13.1,329.9 17.1,327.0 13.3,311.0" fill="#B8CC98" fillOpacity="0.5" stroke="#88AA68" strokeWidth="0.5"/>
<polygon points="173.8,608.2 172.6,617.2 181.4,618.5 188.4,616.8 191.9,611.8 199.6,612.2 205.4,610.5 205.2,605.7 205.1,601.5 201.3,595.8 196.5,590.9 189.0,587.5 183.0,586.5 179.5,590.5 177.9,596.7" fill="#B8CC98" fillOpacity="0.5" stroke="#88AA68" strokeWidth="0.5"/>
<polygon points="247.2,581.3 239.0,588.0 244.0,592.0 251.8,593.8 259.6,597.2 265.5,600.8 283.8,599.3 297.2,599.6 308.6,599.2 313.4,599.5 322.9,598.1 325.3,593.8 326.8,590.3 327.1,588.0 324.6,582.0 277.7,581.8 255.0,581.9 255.0,589.0 247.5,589.2" fill="#B8CC98" fillOpacity="0.5" stroke="#88AA68" strokeWidth="0.5"/>
<polygon points="463.6,552.6 461.5,564.0 463.4,575.4 468.9,585.5 477.5,593.3 488.2,597.7 492.8,598.0 499.8,598.4 510.9,595.2 519.9,588.8 526.5,580.0 529.9,569.5 529.8,558.5 526.3,548.1 519.6,539.4 510.5,533.2 499.9,530.2 499.3,530.2 492.6,530.5 488.9,530.7 478.1,534.9 469.3,542.5" fill="#B8CC98" fillOpacity="0.5" stroke="#88AA68" strokeWidth="0.5"/>
<polygon points="499.9,530.2 499.3,530.2 499.3,552.0 526.6,552.1 526.6,566.1 518.3,566.1 518.4,569.6 518.0,573.5 517.3,577.5 514.9,582.6 512.4,586.1 509.0,588.9 504.5,591.3 502.1,591.7 502.1,593.1 499.5,593.1 499.5,598.4 499.8,598.4 510.9,595.2 519.9,588.8 526.5,580.0 529.9,569.5 529.8,558.5 526.3,548.1 519.6,539.4 510.5,533.2" fill="#B8CC98" fillOpacity="0.5" stroke="#88AA68" strokeWidth="0.5"/>
<polygon points="324.8,461.9 309.7,466.0 314.7,493.7 328.4,497.0 326.6,506.7 370.4,514.6 371.6,475.4 354.7,446.5 324.1,451.7" fill="#B8CC98" fillOpacity="0.5" stroke="#88AA68" strokeWidth="0.5"/>
<polygon points="235.5,582.3 183.0,586.5 189.0,587.5 196.5,590.9 201.3,595.8 205.1,601.5 205.2,605.7 212.8,605.2 218.7,599.2 259.6,597.2 251.8,593.8 244.0,592.0 239.0,588.0 247.2,581.3" fill="#B8CC98" fillOpacity="0.5" stroke="#88AA68" strokeWidth="0.5"/>
<polygon points="241.8,514.8 231.5,518.2 241.5,553.5 285.9,550.9 287.2,534.2 281.1,533.2 282.2,517.8 246.2,528.6" fill="#B8CC98" fillOpacity="0.5" stroke="#88AA68" strokeWidth="0.5"/>
<polygon points="241.5,553.5 231.0,557.5 234.3,562.8 241.1,565.8 250.0,569.9 261.0,571.1 273.8,572.1 317.7,570.8 349.3,567.5 366.7,565.7 362.6,553.1 340.9,547.8 285.9,550.9" fill="#B8CC98" fillOpacity="0.5" stroke="#88AA68" strokeWidth="0.5"/>
<polygon points="342.5,577.8 341.2,584.3 356.1,616.4 372.5,613.5 366.7,574.9" fill="#B8CC98" fillOpacity="0.5" stroke="#88AA68" strokeWidth="0.5"/>
<polygon points="282.7,405.0 250.8,413.9 260.1,453.2 293.5,448.8" fill="#B8CC98" fillOpacity="0.5" stroke="#88AA68" strokeWidth="0.5"/>
<polygon points="463.6,552.6 461.5,564.0 463.4,575.4 468.9,585.5 477.5,593.3 488.2,597.7 492.8,598.0 492.8,593.0 490.5,593.0 490.5,591.6 486.5,590.7 481.8,587.8 478.1,584.0 475.7,580.3 473.8,575.9 473.0,570.7 473.0,566.0 465.3,565.9 465.3,551.9 492.6,552.0 492.6,530.5 488.9,530.7 478.1,534.9 469.3,542.5" fill="#B8CC98" fillOpacity="0.5" stroke="#88AA68" strokeWidth="0.5"/>
<polygon points="278.6,270.5 260.7,278.8 264.5,286.0 261.2,289.6 279.2,317.7 301.9,304.5 303.7,302.2 305.9,299.2 302.8,291.1 310.3,289.0 307.6,275.7 297.8,280.8 290.1,267.1 280.3,272.9" fill="#B8CC98" fillOpacity="0.5" stroke="#88AA68" strokeWidth="0.5"/>
<polygon points="310.0,289.6 303.6,291.4 306.6,298.9 309.6,297.1 311.0,294.0" fill="#B8CC98" fillOpacity="0.5" stroke="#88AA68" strokeWidth="0.5"/>
<polygon points="327.8,0.0 319.7,0.0 319.8,3.8 319.7,5.5 322.2,5.7 324.9,5.6 327.8,4.4 328.0,2.0" fill="#B8CC98" fillOpacity="0.5" stroke="#88AA68" strokeWidth="0.5"/>
<polygon points="311.3,0.0 311.2,2.3 312.4,3.6 315.2,5.1 316.1,5.0 316.6,1.7 316.5,0.0" fill="#B8CC98" fillOpacity="0.5" stroke="#88AA68" strokeWidth="0.5"/>
<polygon points="306.9,50.1 306.5,52.7 306.9,54.7 307.7,55.1 310.9,55.6 313.5,55.0 314.2,49.9 316.7,39.4 321.1,30.8 325.0,24.2 325.7,18.1 325.8,17.3 322.2,18.5 318.7,18.5 318.6,20.1 318.0,21.9 316.8,23.4 315.2,24.9 312.6,28.2 311.1,30.3 310.3,32.4 308.7,38.4 307.7,44.7" fill="#B8CC98" fillOpacity="0.5" stroke="#88AA68" strokeWidth="0.5"/>
<polygon points="300.8,50.2 300.5,52.5 301.5,54.0 302.5,54.5 303.1,53.3 303.7,50.2 304.2,46.0 304.7,42.7 305.1,39.3 305.8,36.4 306.4,33.4 307.6,30.3 308.4,28.1 309.8,25.5 311.9,22.9 313.8,21.2 314.7,20.2 314.8,17.9 312.7,17.5 310.3,17.7 308.4,18.5 305.5,29.8" fill="#B8CC98" fillOpacity="0.5" stroke="#88AA68" strokeWidth="0.5"/>
<polygon points="306.0,64.2 305.7,69.0 311.9,69.1 312.9,60.1 311.0,59.9 308.4,59.5 306.0,59.2 305.8,61.6" fill="#B8CC98" fillOpacity="0.5" stroke="#88AA68" strokeWidth="0.5"/>
<polygon points="299.5,68.7 299.5,72.1 300.3,80.1 301.4,84.4 302.9,86.7 304.4,87.7 306.3,87.6 309.0,87.1 310.3,85.2 310.9,80.9 311.5,75.8 311.9,69.1 305.7,69.0 303.9,68.8 302.0,68.7" fill="#B8CC98" fillOpacity="0.5" stroke="#88AA68" strokeWidth="0.5"/>
<polygon points="299.6,60.7 299.5,68.7 302.0,68.7 302.0,65.3 302.2,63.1 302.4,61.2 302.2,58.9 301.2,59.0 299.7,60.0" fill="#B8CC98" fillOpacity="0.5" stroke="#88AA68" strokeWidth="0.5"/>
<polyline points="316.6,1.7 316.1,5.0 318.1,5.6 319.7,5.5 319.8,3.8 319.7,0.0 316.5,0.0" fill="none" stroke="#A0C8E0" strokeWidth="4"/>
<polyline points="302.2,63.1 302.0,65.3 302.0,68.7 303.9,68.8 305.7,69.0 306.0,64.2 305.8,61.6 306.0,59.2 304.0,59.2 302.2,58.9 302.4,61.2" fill="none" stroke="#A0C8E0" strokeWidth="4"/>
<polyline points="303.1,53.3 302.5,54.5 304.5,54.9 306.9,54.7 306.5,52.7 306.9,50.1 307.7,44.7 308.7,38.4 310.3,32.4 311.1,30.3 312.6,28.2 315.2,24.9 316.8,23.4 318.0,21.9 318.6,20.1 318.7,18.5 316.8,18.0 314.8,17.9 314.7,20.2 313.8,21.2 311.9,22.9 309.8,25.5 308.4,28.1 307.6,30.3 306.4,33.4 305.8,36.4 305.1,39.3 304.7,42.7 304.2,46.0 303.7,50.2" fill="none" stroke="#A0C8E0" strokeWidth="4"/>
<polyline points="318.2,0.0 318.1,5.6 317.8,7.8 316.8,18.0 315.9,21.6 313.2,24.3 311.3,26.9 310.0,29.4 308.2,35.2 306.8,39.5 306.0,44.7 305.2,50.9 304.5,54.9 304.0,59.2 303.9,68.8" fill="none" stroke="#A0C8E0" strokeWidth="4"/>
<polygon points="-0.0,609.9 -0.0,612.1 0.3,612.2 19.2,607.9 32.8,604.9 62.3,601.5 62.3,601.5 75.7,599.7 93.8,597.6 109.1,595.7 109.2,595.7 122.9,593.1 122.9,593.0 135.1,590.1 135.2,590.1 147.5,585.9 155.3,586.8 155.6,586.8 164.7,585.2 167.3,585.1 165.3,618.2 164.2,634.9 164.2,635.0 167.6,635.0 168.7,618.4 170.8,584.9 172.3,584.8 173.5,584.8 173.6,584.8 196.9,581.6 239.8,577.3 240.8,577.7 249.4,577.8 249.6,581.1 249.8,586.3 250.2,587.1 251.0,587.4 251.8,587.0 252.1,586.2 251.9,581.0 251.7,577.8 279.3,578.0 279.3,578.0 325.6,577.2 325.9,577.1 368.1,570.1 373.0,614.6 355.4,618.1 345.7,599.3 345.5,599.1 345.3,598.8 345.0,598.7 344.7,598.4 344.4,598.5 344.1,598.4 284.9,600.9 283.7,601.5 283.2,602.7 283.8,603.9 285.1,604.4 343.1,601.9 352.1,619.4 335.8,628.7 335.6,628.8 329.1,633.6 328.4,634.7 328.5,635.0 333.0,635.0 337.6,631.7 355.1,621.7 373.5,618.1 376.2,635.0 379.6,635.0 379.6,634.7 376.7,615.8 371.6,569.9 433.5,573.3 433.9,573.2 439.4,572.4 439.5,572.7 439.7,574.4 439.7,574.6 442.1,582.2 442.2,582.3 449.2,595.7 449.3,595.8 457.1,606.9 457.3,607.1 468.7,616.4 475.8,625.3 478.3,632.4 478.6,635.0 480.9,635.0 480.9,634.8 480.6,632.0 480.5,631.8 478.0,624.3 477.8,624.0 470.4,614.9 470.3,614.7 458.9,605.4 451.2,594.5 444.3,581.4 441.9,574.0 441.7,572.4 441.7,572.2 449.4,571.9 453.1,585.6 453.4,586.2 462.3,598.9 462.8,599.4 475.5,608.4 476.1,608.7 489.6,612.5 489.3,635.0 489.3,635.0 493.3,635.0 493.6,613.0 503.1,612.8 503.6,612.7 514.5,609.7 515.0,609.5 524.0,604.3 525.9,605.8 516.5,612.0 516.3,612.1 506.9,621.0 506.6,621.3 501.4,632.0 501.3,632.5 501.1,634.9 501.2,635.0 503.5,635.0 503.6,632.8 508.6,622.5 517.8,613.9 527.9,607.3 533.8,611.7 534.7,612.0 588.5,614.3 587.1,634.9 587.1,635.0 590.5,635.0 592.0,614.5 599.9,615.2 600.0,615.1 600.0,611.7 592.2,611.1 595.3,567.4 600.0,567.3 600.0,563.2 600.0,563.2 595.6,563.3 600.0,469.0 600.0,422.9 598.9,423.3 598.3,424.5 597.4,434.6 597.4,434.7 597.3,450.5 568.2,451.1 570.5,439.3 588.0,422.5 600.0,414.4 600.0,410.6 599.0,410.8 586.0,419.7 585.8,419.9 567.7,437.2 567.2,438.1 564.6,451.2 505.0,452.4 504.9,436.7 504.9,436.6 503.6,385.2 503.4,365.4 543.4,372.0 543.6,372.1 555.7,372.7 599.1,398.3 600.0,398.5 600.0,394.8 557.1,369.5 548.3,364.3 547.9,322.2 563.7,333.6 563.8,333.7 592.2,351.3 593.2,351.6 600.0,351.3 600.0,347.9 599.9,347.9 593.6,348.1 565.7,330.7 547.4,317.6 544.4,313.0 600.0,314.3 600.0,314.3 600.0,310.9 542.9,309.4 541.9,259.8 555.9,256.6 557.1,255.6 564.5,240.8 568.0,237.7 581.0,237.2 590.9,238.3 595.5,244.1 598.3,265.6 598.9,266.8 600.0,267.0 600.0,251.7 599.1,244.9 600.0,244.8 600.0,241.4 599.8,241.3 598.9,241.4 597.4,204.7 600.0,204.7 600.0,204.7 600.0,201.2 597.2,201.2 589.3,104.2 600.0,103.5 600.0,100.0 599.9,100.0 589.1,100.7 584.6,17.7 600.0,17.3 600.0,13.3 600.0,13.3 585.9,13.6 593.1,0.9 593.2,0.0 589.6,0.0 581.8,13.8 540.3,14.9 519.9,14.9 520.6,7.0 520.7,4.1 520.4,3.3 520.4,3.3 519.6,2.9 508.7,2.4 506.9,0.0 504.4,0.0 504.6,0.7 507.2,4.2 508.1,4.7 518.4,5.2 518.3,6.8 517.5,15.0 486.6,16.6 485.1,0.0 481.1,0.0 481.0,0.2 482.8,18.9 483.9,41.2 472.2,41.3 471.8,41.3 471.4,18.0 471.4,17.9 470.1,3.2 469.9,0.0 465.4,0.0 465.4,0.0 465.4,2.2 465.5,2.4 466.1,6.3 466.3,16.1 457.1,15.7 457.0,15.7 428.2,15.2 427.7,0.0 425.4,0.0 425.3,0.0 425.8,15.1 416.7,14.4 416.7,14.4 387.9,14.3 387.9,0.0 387.9,0.0 385.6,0.0 385.6,14.2 369.8,13.8 351.6,13.3 351.6,0.0 351.6,0.0 349.2,0.0 349.2,13.2 334.3,13.1 327.7,12.7 328.9,4.5 329.2,2.7 329.2,2.3 329.2,1.8 328.9,0.0 326.7,0.0 326.6,0.2 326.9,2.1 326.9,2.5 326.7,4.2 325.3,12.6 313.2,12.0 310.7,11.9 312.4,2.5 312.4,2.3 312.4,0.0 312.4,0.0 310.1,0.0 310.1,2.2 308.4,11.8 306.3,11.7 305.9,6.8 305.9,0.0 303.6,0.0 303.6,0.0 303.6,6.9 303.6,6.9 303.9,11.5 302.9,11.4 303.3,6.1 303.3,6.0 303.4,1.6 303.4,0.0 303.4,0.0 301.1,0.0 301.1,1.5 301.0,5.9 300.6,11.0 271.3,3.2 271.3,3.0 270.1,2.3 255.5,0.6 254.2,0.9 254.1,1.0 242.0,0.0 227.2,0.0 227.4,0.7 228.2,1.2 253.9,3.3 253.9,3.4 255.0,4.0 269.7,5.8 270.8,5.5 300.3,13.3 300.0,14.7 299.1,19.5 297.9,24.5 295.7,29.5 295.6,29.8 295.0,35.8 292.7,51.3 290.1,58.6 290.1,58.9 289.8,63.6 289.8,63.7 289.9,79.8 289.9,79.9 290.4,87.7 289.4,91.4 289.4,91.7 289.3,91.9 289.5,92.1 289.5,92.3 289.7,92.5 289.8,92.7 290.0,92.7 290.2,92.9 290.4,92.8 290.6,92.9 295.7,92.3 298.6,100.1 264.6,105.4 264.3,105.4 242.7,112.1 242.6,112.2 242.1,112.6 241.6,113.0 241.6,113.1 241.6,113.7 241.5,114.3 241.5,114.4 247.9,131.6 243.0,133.2 173.9,154.0 173.7,154.1 173.5,154.1 166.2,158.3 165.7,158.7 163.9,160.9 160.2,163.3 159.9,163.5 155.6,168.0 151.1,170.6 147.1,169.6 141.3,165.3 140.9,165.1 135.1,162.6 134.6,162.5 129.3,162.1 128.7,162.1 120.8,164.0 120.0,164.4 117.0,166.9 116.8,167.2 114.0,171.0 113.7,171.8 113.0,177.7 113.0,177.9 113.2,182.9 111.5,187.6 108.9,191.7 104.5,197.2 98.6,198.4 94.0,197.8 89.1,194.9 80.8,188.7 80.2,188.4 72.3,186.4 71.2,186.5 64.1,189.3 63.5,189.6 61.4,191.6 60.9,192.7 60.2,198.6 60.2,198.8 60.3,207.3 60.5,208.2 65.0,215.8 67.6,223.0 67.5,228.3 64.6,232.9 57.1,238.2 50.4,238.2 45.6,236.8 42.2,232.5 39.9,221.7 35.3,201.9 35.2,201.7 30.4,188.3 30.3,188.1 21.4,171.0 21.2,170.7 14.9,162.9 14.8,162.8 10.8,158.3 10.5,158.1 3.9,153.5 1.6,148.7 0.5,147.9 -0.0,147.9 -0.0,153.4 1.0,155.4 1.6,156.1 8.3,160.8 12.2,165.1 18.4,172.7 27.1,189.6 31.9,202.8 36.5,222.4 38.9,233.6 39.2,234.3 43.3,239.4 44.1,240.0 49.7,241.6 50.2,241.7 56.9,241.7 65.5,276.5 65.9,277.1 66.6,277.4 72.7,278.0 84.4,283.6 92.9,297.7 93.8,309.4 92.0,320.9 89.1,329.6 82.1,329.5 80.9,329.9 80.3,331.1 79.8,337.7 80.2,338.9 81.4,339.5 82.7,339.1 83.3,337.9 83.7,333.0 89.5,333.1 94.3,334.0 94.3,334.0 95.0,333.9 95.6,333.7 95.6,333.7 102.1,329.0 102.3,328.7 102.5,328.6 106.2,323.2 120.2,351.8 137.1,388.1 137.2,388.1 150.5,415.1 157.5,432.4 155.2,433.1 154.2,434.0 154.0,435.3 172.4,505.4 172.8,505.9 173.2,506.4 173.2,506.4 173.9,506.5 174.5,506.6 194.4,502.0 203.9,525.1 203.9,525.1 216.0,551.4 216.2,551.8 228.4,565.7 228.5,565.8 237.6,575.1 196.6,579.3 196.6,579.3 174.3,582.3 170.9,569.9 170.8,569.7 165.7,559.3 165.2,558.9 145.3,545.6 132.3,535.8 125.2,522.6 120.7,513.4 119.4,502.0 119.3,501.9 114.3,481.6 114.3,481.4 106.8,461.8 106.7,461.7 97.5,445.0 97.4,444.8 80.7,426.8 64.1,406.4 56.0,396.1 41.3,374.3 30.5,351.2 27.8,340.2 12.9,278.3 7.1,251.9 11.6,225.7 11.6,225.3 5.8,186.5 5.8,186.5 1.1,160.9 0.7,160.1 -0.0,160.0 -0.0,167.5 3.5,186.9 9.1,224.5 7.8,224.6 1.7,191.3 1.0,190.2 -0.0,190.0 -0.0,201.2 4.4,224.9 3.5,224.9 -0.0,225.1 -0.0,227.4 0.0,227.4 2.4,227.3 0.8,253.0 0.8,253.3 5.0,271.9 10.6,297.5 8.0,298.0 8.0,298.0 6.8,297.7 1.0,298.4 -0.0,299.0 -0.0,301.7 0.4,301.7 0.6,301.6 1.5,301.9 7.2,301.1 8.4,300.4 8.4,300.3 11.1,299.8 11.6,302.1 17.0,325.1 20.5,340.6 1.8,344.2 -0.0,344.5 -0.0,346.8 0.2,346.8 2.2,346.5 22.2,342.6 23.6,342.3 26.4,353.0 26.5,353.3 37.5,376.5 37.6,376.7 52.7,399.3 52.8,399.4 64.9,414.4 78.7,431.1 78.7,431.2 93.8,447.5 102.7,463.5 109.6,482.8 114.4,502.7 115.9,514.3 116.0,514.7 119.9,524.8 120.0,525.2 128.9,538.4 129.3,538.8 142.6,549.3 142.8,549.4 162.4,561.6 167.1,570.9 167.6,580.9 167.5,582.7 164.5,582.9 164.4,582.9 164.4,582.9 155.3,584.4 147.5,583.6 147.0,583.6 134.5,587.9 122.4,590.8 108.8,593.4 93.5,595.2 75.4,597.4 75.4,597.4 62.0,599.2 32.4,602.6 32.3,602.6 18.7,605.7" fill="#DDD0B8" stroke="none"/>
<polygon points="59.2,241.0 66.9,235.5 67.3,235.0 70.7,229.8 70.8,229.5 74.8,227.8 75.0,227.7 78.7,225.3 82.9,223.0 89.3,221.6 97.2,221.6 112.7,221.9 113.6,221.6 118.3,216.9 120.1,231.5 116.6,246.9 116.9,248.3 117.3,248.9 109.2,245.9 108.6,245.8 90.0,245.4 88.8,245.9 88.2,247.1 88.7,248.3 89.9,248.9 108.2,249.3 120.8,253.9 141.3,265.6 157.8,283.5 155.0,287.9 154.7,288.9 154.9,294.3 155.1,295.1 159.0,302.5 137.5,311.4 120.7,311.5 120.0,311.7 105.8,318.1 105.7,318.1 105.4,318.5 105.1,318.7 99.8,326.4 94.2,330.5 91.4,329.9 94.3,321.5 94.3,321.3 96.1,309.7 96.2,309.4 95.2,297.2 95.1,296.7 86.2,282.1 85.7,281.6 73.5,275.8 73.2,275.7 67.6,275.1" fill="#DDD0B8" stroke="none"/>
<polygon points="63.7,198.9 64.3,193.7 65.7,192.4 72.0,189.9 79.0,191.7 87.1,197.8 87.3,197.9 92.5,200.9 93.1,201.2 98.4,201.9 99.0,201.8 105.8,200.5 106.8,199.9 111.7,193.8 111.8,193.7 114.5,189.3 114.7,189.0 116.5,183.7 116.6,183.1 116.5,177.9 117.1,172.7 119.4,169.4 122.0,167.3 129.3,165.6 134.0,165.9 139.4,168.2 145.3,172.6 145.9,172.9 150.9,174.2 152.2,174.0 157.5,170.9 157.9,170.6 162.3,166.1 166.0,163.7 166.3,163.4 168.2,161.2 173.4,158.2 178.4,174.2 182.9,191.4 183.7,192.5 185.1,192.6 257.8,172.7 258.8,171.8 258.9,170.4 251.7,150.7 251.7,150.7 245.8,135.9 250.7,134.4 251.7,133.5 251.8,132.1 245.4,114.9 265.2,108.8 298.7,103.6 299.8,170.2 281.9,171.7 281.7,171.7 262.5,175.6 262.1,175.8 238.4,186.8 224.2,193.6 197.1,199.9 184.5,200.1 184.3,200.1 138.8,207.2 129.2,207.6 128.5,207.7 118.9,212.4 118.7,212.7 118.3,212.9 118.3,213.2 118.1,213.4 118.1,213.8 118.0,214.0 112.3,219.5 97.2,219.2 97.2,219.2 89.2,219.3 88.9,219.3 82.3,220.8 81.9,220.9 77.5,223.3 77.5,223.4 73.8,225.7 71.0,226.9 71.1,222.7 71.0,222.1 68.2,214.5 68.1,214.2 63.8,206.8" fill="#DDD0B8" stroke="none"/>
<polygon points="108.8,320.6 121.1,315.0 136.8,314.9 168.7,383.6 187.9,425.0 160.8,431.5 153.7,413.8 153.6,413.6 140.3,386.6 123.3,350.3 123.3,350.3" fill="#DDD0B8" stroke="none"/>
<polygon points="120.2,247.0 123.5,232.0 123.6,231.4 121.6,215.0 129.7,211.0 139.1,210.7 139.3,210.7 183.2,203.8 190.4,231.6 174.3,232.9 173.6,233.1 155.7,242.8 142.1,247.1 122.4,250.4" fill="#DDD0B8" stroke="none"/>
<polygon points="126.6,253.3 142.8,250.5 143.1,250.5 156.9,246.1 157.3,245.9 174.9,236.3 192.4,235.0 196.8,236.2 201.4,249.0 188.5,255.1 188.1,255.4 177.4,265.0 160.1,280.9 143.6,263.0 143.2,262.7" fill="#DDD0B8" stroke="none"/>
<polygon points="140.2,314.1 162.2,305.0 175.4,299.5 204.3,363.1 171.1,380.5" fill="#DDD0B8" stroke="none"/>
<polygon points="157.8,436.0 160.2,435.2 190.8,427.9 190.9,427.8 328.6,383.1 331.5,389.8 352.8,438.0 303.1,425.4 296.9,423.6 289.9,403.7 289.1,402.7 287.7,402.6 286.7,403.5 286.7,404.8 293.9,425.5 295.1,426.6 302.1,428.8 302.2,428.8 354.6,442.1 372.1,473.9 370.1,528.1 368.0,546.1 367.9,546.3 367.9,566.6 325.4,573.7 279.3,574.5 250.5,574.3 241.6,574.2 231.0,563.4 219.0,549.7 207.1,523.7 197.1,499.3 196.3,498.4 195.1,498.3 175.4,502.8" fill="#DDD0B8" stroke="none"/>
<polygon points="158.2,289.3 161.4,284.5 179.7,267.6 190.2,258.1 204.2,251.6 223.7,244.4 260.8,243.7 239.1,257.7 178.7,294.4 175.6,295.6 162.3,301.2 158.3,293.8" fill="#DDD0B8" stroke="none"/>
<polygon points="171.0,582.6 171.1,581.0 171.0,580.9 171.1,580.8 171.0,578.9 172.0,582.5" fill="#DDD0B8" stroke="none"/>
<polygon points="172.6,383.7 207.3,365.4 208.2,364.5 208.1,363.2 178.6,298.2 180.1,297.6 180.4,297.4 241.0,260.6 241.0,260.6 267.9,243.4 300.7,222.3 314.0,300.1 307.5,303.7 304.4,301.2 299.5,297.5 294.3,287.8 293.6,287.3 292.7,287.4 292.2,288.0 292.3,288.9 297.6,298.8 297.9,299.2 303.0,303.1 305.3,304.9 303.7,305.8 241.9,340.0 241.1,341.0 241.3,342.4 262.7,378.2 263.8,379.0 265.1,378.9 265.9,377.8 265.7,376.5 245.2,342.1 305.4,308.8 308.7,307.0 314.6,303.7 327.6,379.8 191.3,424.1" fill="#DDD0B8" stroke="none"/>
<polygon points="186.8,203.6 197.3,203.4 197.7,203.4 225.2,197.0 225.5,196.8 239.9,189.9 263.4,179.0 282.3,175.1 299.6,173.7 298.5,185.5 298.5,185.6 298.7,206.3 298.7,206.5 300.1,218.6 266.4,240.2 223.4,240.9 222.8,241.0 204.6,247.7 199.7,234.1 198.5,233.0 194.0,231.8" fill="#DDD0B8" stroke="none"/>
<polygon points="292.1,63.7 292.4,59.2 294.2,54.0 294.0,56.1 293.6,59.1 293.6,59.2 293.3,75.4 293.3,75.6 294.6,83.7 294.5,89.0 294.6,89.2 294.6,89.4 294.8,90.0 292.1,90.4 292.7,88.1 292.8,87.7 292.3,79.8" fill="#DDD0B8" stroke="none"/>
<polygon points="295.6,75.4 295.9,59.3 296.2,57.4 298.8,57.6 298.6,59.9 298.5,60.6 298.5,60.7 298.3,72.1 298.3,72.2 299.1,80.2 299.2,80.4 300.3,84.6 300.4,85.0 302.1,87.5 296.8,87.8 296.9,83.7 296.9,83.6 296.9,83.4" fill="#DDD0B8" stroke="none"/>
<polygon points="296.4,55.1 297.9,41.7 302.4,25.7 305.7,18.2 305.7,17.9 306.2,14.0 308.0,14.1 307.3,18.3 304.4,29.5 299.6,50.0 299.6,50.1 299.4,52.4 299.1,55.2" fill="#DDD0B8" stroke="none"/>
<polygon points="298.0,92.0 304.7,91.1 305.5,90.6 305.7,89.6 305.6,89.4 312.7,87.9 313.0,92.8 300.8,99.4" fill="#DDD0B8" stroke="none"/>
<polygon points="300.2,24.8 301.4,20.0 301.4,20.0 302.3,15.1 302.6,13.7 303.9,13.9 303.5,17.4" fill="#DDD0B8" stroke="none"/>
<polygon points="300.6,72.0 300.8,60.8 300.9,60.1 301.1,57.7 302.0,57.7 306.6,58.3 311.9,59.0 311.8,60.0 310.8,69.0 310.8,69.0 310.4,75.7 310.4,75.8 310.4,76.0 310.5,76.2 310.6,76.5 310.8,76.6 310.9,76.7 311.2,76.8 311.4,76.9 311.6,76.9 311.7,76.9 314.2,76.4 312.8,85.5 304.7,87.2 303.9,86.0 302.5,83.9 301.4,79.9" fill="#DDD0B8" stroke="none"/>
<polygon points="301.4,55.4 301.9,50.4 306.7,30.1 309.5,18.8 309.5,18.7 310.3,14.2 313.1,14.4 325.0,14.9 324.7,17.1 324.5,18.0 323.9,23.8 320.1,30.2 320.1,30.2 315.7,38.8 315.6,39.1 313.1,49.6 313.0,49.8 312.4,54.9 312.2,56.7 306.9,56.0 302.3,55.4 302.2,55.4" fill="#DDD0B8" stroke="none"/>
<polygon points="301.9,185.7 303.3,172.0 303.3,171.8 302.1,102.6 315.0,95.7 325.7,90.1 340.8,86.9 368.2,87.1 372.1,87.1 372.8,167.0 373.2,168.0 398.7,200.8 397.5,210.8 390.9,239.4 372.6,249.1 372.0,249.7 366.5,258.5 364.9,257.0 364.7,256.9 313.6,218.9 312.7,218.6 303.5,217.8 302.2,206.2" fill="#DDD0B8" stroke="none"/>
<polygon points="304.1,221.4 312.0,222.0 362.6,259.6 365.6,262.5 377.7,274.1 378.2,274.5 438.5,299.8 438.7,299.9 478.0,310.4 478.4,323.3 479.1,349.7 451.7,348.2 450.7,345.7 449.7,344.8 426.3,335.9 425.8,335.8 396.4,334.7 395.1,335.2 394.6,336.4 395.3,371.5 373.4,373.2 373.0,373.3 343.1,383.0 342.9,383.1 334.0,386.8 331.3,380.5 317.6,300.7" fill="#DDD0B8" stroke="none"/>
<polygon points="312.8,74.3 313.1,69.2 314.1,60.2 314.3,58.1 314.7,55.2 315.3,50.1 317.8,39.8 322.1,31.3 326.0,24.8 326.1,24.3 326.8,18.3 326.9,17.5 327.3,15.0 332.7,15.3 314.4,74.0" fill="#DDD0B8" stroke="none"/>
<polygon points="315.0,86.6 316.4,77.4 331.1,74.9 343.4,75.8 343.7,75.8 353.2,74.2 367.5,74.7 367.2,81.7 367.2,83.6 340.6,83.4 340.3,83.5 324.7,86.8 324.3,86.9 315.2,91.7" fill="#DDD0B8" stroke="none"/>
<polygon points="317.0,73.5 335.1,15.4 350.4,15.6 369.7,16.1 386.7,16.6 386.7,16.6 416.6,16.7 427.0,17.5 427.0,17.5 455.9,18.0 456.1,76.7 451.1,74.8 450.8,74.8 446.4,74.2 446.1,74.2 443.7,74.4 437.2,74.9 427.9,75.2 413.4,75.7 397.0,75.4 382.8,72.6 382.7,72.6 371.4,70.8 371.2,70.8 358.8,70.6 353.4,70.4 353.1,70.4 346.2,72.0 338.6,71.6 329.8,71.3 329.5,71.3 324.4,72.2" fill="#DDD0B8" stroke="none"/>
<polygon points="335.4,390.0 344.2,386.3 373.9,376.7 395.5,375.0 397.8,432.8 356.8,438.7 356.5,437.8" fill="#DDD0B8" stroke="none"/>
<polygon points="358.5,441.9 399.9,436.0 481.1,424.3 482.8,472.5 483.2,486.2 481.9,499.0 479.1,507.8 475.7,513.0 467.1,520.8 457.8,527.2 450.2,523.8 449.4,523.7 406.9,527.0 373.6,526.5 375.6,473.6 375.4,472.7" fill="#DDD0B8" stroke="none"/>
<polygon points="369.0,261.0 374.7,251.9 393.3,242.1 394.1,240.9 400.9,211.5 401.0,211.3 402.2,200.5 401.9,199.2 376.3,166.3 375.6,87.2 444.0,87.6 456.3,87.7 456.3,89.3 456.4,90.6 456.6,91.0 456.7,91.3 456.8,91.4 457.2,91.5 457.6,91.7 466.2,91.7 467.5,92.2 468.8,93.3 469.7,94.9 470.6,97.0 471.3,99.2 471.7,101.6 477.9,306.7 439.7,296.6 379.9,271.4" fill="#DDD0B8" stroke="none"/>
<polygon points="369.5,83.6 369.5,81.8 369.8,74.8 372.2,74.9 393.5,78.9 393.6,78.9 408.6,79.2 408.7,79.2 417.8,78.9 425.2,78.7 438.8,78.3 444.3,78.2 450.0,78.0 456.1,81.3 456.1,81.9 456.2,84.2 444.0,84.1 373.8,83.7" fill="#DDD0B8" stroke="none"/>
<polygon points="371.4,566.4 371.4,546.4 373.4,530.0 406.9,530.5 407.0,530.5 449.2,527.2 455.0,529.7 452.3,532.6 452.1,532.9 446.9,543.9 441.1,555.3 441.0,555.6 438.7,566.5 438.7,566.9 438.9,568.3 439.0,568.9 433.5,569.8" fill="#DDD0B8" stroke="none"/>
<polygon points="398.1,338.2 425.3,339.3 447.8,347.7 448.9,350.5 449.5,351.3 450.4,351.6 479.2,353.1 480.9,420.8 401.3,432.3 398.8,373.1" fill="#DDD0B8" stroke="none"/>
<polygon points="441.0,566.8 443.3,556.2 449.0,544.9 449.0,544.9 454.1,534.1 457.3,530.7 462.2,532.9 457.0,538.9 456.7,539.3 451.9,548.6 451.8,549.0 449.2,559.1 449.1,559.6 449.0,568.4 441.3,568.7 441.2,568.0" fill="#DDD0B8" stroke="none"/>
<polygon points="453.0,569.8 453.2,559.9 455.6,550.3 460.2,541.4 466.6,533.9 479.2,525.7 493.8,522.3 507.0,523.5 519.1,528.6 529.2,537.0 536.3,548.1 539.7,560.8 538.8,575.8 532.9,589.5 522.6,600.5 513.2,605.8 502.7,608.7 491.9,608.9 477.6,604.9 465.5,596.3 456.9,584.1" fill="#DDD0B8" stroke="none"/>
<polygon points="458.2,18.0 466.4,18.4 466.8,26.3 467.2,42.4 467.2,46.2 467.6,71.0 465.5,74.0 462.0,76.1 458.4,76.9" fill="#DDD0B8" stroke="none"/>
<polygon points="458.4,79.4 458.4,79.3 462.7,78.4 463.0,78.2 466.9,75.9 467.3,75.5 469.7,72.1 469.9,71.4 469.6,46.2 469.5,43.6 469.6,43.6 470.5,71.3 468.1,75.2 463.5,78.7 460.7,79.4" fill="#DDD0B8" stroke="none"/>
<polygon points="458.5,81.7 460.8,81.7 461.1,81.6 464.2,80.9 464.7,80.7 469.7,76.9 469.8,76.7 470.0,76.6 472.7,72.2 472.8,71.6 471.9,43.7 472.2,43.7 484.0,43.5 486.0,84.4 458.5,84.2 458.5,81.8" fill="#DDD0B8" stroke="none"/>
<polygon points="458.6,87.7 486.2,87.8 486.8,100.4 489.2,204.6 490.8,309.7 480.3,307.3 474.0,101.5 474.0,101.3 473.5,98.8 473.5,98.7 472.8,96.3 472.8,96.2 471.8,93.9 471.8,93.7 470.6,91.9 470.5,91.8 470.4,91.6 468.8,90.3 468.5,90.1 466.8,89.5 466.4,89.4 458.7,89.4 458.7,89.1" fill="#DDD0B8" stroke="none"/>
<polygon points="460.3,528.3 468.5,522.7 468.6,522.6 477.4,514.6 477.6,514.4 481.2,508.9 481.3,508.6 484.2,499.6 484.2,499.3 485.5,486.3 485.5,486.2 485.2,473.6 486.8,473.6 492.2,473.6 491.7,518.6 478.0,521.8 477.3,522.1 464.8,530.2" fill="#DDD0B8" stroke="none"/>
<polygon points="468.7,18.8 469.1,18.9 469.5,41.3 469.5,41.3 469.1,26.3" fill="#DDD0B8" stroke="none"/>
<polygon points="480.4,310.9 490.8,313.2 490.9,322.0 483.4,322.1 480.6,322.1" fill="#DDD0B8" stroke="none"/>
<polygon points="480.7,324.5 483.4,324.4 490.9,324.3 491.2,350.3 481.4,349.8" fill="#DDD0B8" stroke="none"/>
<polygon points="481.5,353.3 491.2,353.8 491.3,362.0 491.4,418.7 483.3,420.4" fill="#DDD0B8" stroke="none"/>
<polygon points="483.4,423.9 491.5,422.2 492.4,454.4 492.2,471.2 486.8,471.2 485.1,471.3" fill="#DDD0B8" stroke="none"/>
<polygon points="486.9,20.7 517.3,19.1 517.2,24.7 517.1,26.3 503.4,41.4 498.5,41.5 487.9,41.2" fill="#DDD0B8" stroke="none"/>
<polygon points="488.1,43.5 498.5,43.8 498.6,43.8 502.7,43.7 500.0,99.0 490.8,98.6 490.2,86.0" fill="#DDD0B8" stroke="none"/>
<polygon points="490.9,102.1 499.8,102.4 497.9,175.1 497.9,175.2 499.0,202.5 493.2,202.7" fill="#DDD0B8" stroke="none"/>
<polygon points="493.3,206.2 499.2,206.0 499.6,211.7 498.5,285.0 498.5,285.0 499.4,308.3 494.9,309.6" fill="#DDD0B8" stroke="none"/>
<polygon points="495.0,324.3 499.8,324.3 500.7,343.8 501.0,361.5 495.3,360.6 495.2,352.1" fill="#DDD0B8" stroke="none"/>
<polygon points="495.3,364.1 501.0,365.1 501.2,385.2 501.2,385.2 502.6,436.7 502.7,452.5 496.4,452.6 495.4,420.0" fill="#DDD0B8" stroke="none"/>
<polygon points="495.8,518.4 496.2,473.6 502.5,473.6 502.6,473.6 502.6,477.2 502.6,477.3 504.1,510.5 504.6,511.3 522.5,524.5 537.9,538.8 546.7,555.7 546.9,559.0 543.4,558.7 540.1,546.8 539.9,546.2 532.5,534.6 532.1,534.1 521.5,525.2 521.0,524.9 508.2,519.6 507.7,519.5" fill="#DDD0B8" stroke="none"/>
<polygon points="496.2,471.3 496.4,456.1 502.7,456.0 502.6,471.3 502.5,471.3" fill="#DDD0B8" stroke="none"/>
<polygon points="500.2,175.1 502.2,102.5 540.2,103.5 540.1,201.1 501.4,202.5" fill="#DDD0B8" stroke="none"/>
<polygon points="500.8,285.0 501.9,211.7 501.9,211.6 501.5,205.9 540.0,204.6 538.4,258.4 538.4,258.5 539.4,309.3 501.7,308.1" fill="#DDD0B8" stroke="none"/>
<polygon points="501.8,311.6 540.2,312.8 544.4,319.3 544.8,361.1 502.0,318.5 501.9,318.4" fill="#DDD0B8" stroke="none"/>
<polygon points="502.1,323.5 545.4,366.6 545.6,366.7 545.7,366.9 549.2,368.9 543.9,368.6 503.3,361.9 503.0,343.8 503.0,343.8" fill="#DDD0B8" stroke="none"/>
<polygon points="502.3,99.0 505.0,43.0 519.1,27.6 519.2,27.2 519.4,26.9 519.5,24.7 519.6,19.0 538.6,19.0 540.2,100.0" fill="#DDD0B8" stroke="none"/>
<polygon points="504.9,477.2 504.9,472.4 505.0,455.9 566.1,454.7 597.2,454.0 592.1,563.2 549.2,559.3 548.9,555.3 548.8,554.8 539.8,537.6 539.6,537.3 524.0,522.8 523.9,522.7 506.4,509.8" fill="#DDD0B8" stroke="none"/>
<polygon points="526.7,602.0 536.1,592.0 536.5,591.4 542.7,577.1 542.8,576.4 543.7,562.8 547.2,563.2 547.5,569.4 542.4,587.5 531.1,602.2 529.0,603.7" fill="#DDD0B8" stroke="none"/>
<polygon points="530.9,605.2 532.6,604.0 532.9,603.7 544.4,588.8 544.6,588.4 549.8,569.8 549.8,569.4 549.5,563.4 591.9,567.3 588.7,610.9 535.4,608.6" fill="#DDD0B8" stroke="none"/>
<polygon points="542.0,256.3 543.5,204.5 593.9,204.6 595.2,238.2 593.1,235.6 592.0,235.0 581.2,233.8 581.0,233.7 567.2,234.2 566.1,234.7 561.9,238.5 561.6,239.0 554.3,253.4" fill="#DDD0B8" stroke="none"/>
<polygon points="242.3,613.8 242.0,615.1 242.8,616.3 244.1,616.5 250.6,615.2 253.9,635.0 257.3,635.0 257.4,634.7 253.7,612.9 253.7,612.8 253.4,612.3 253.0,611.7 253.0,611.7 252.3,611.6 251.7,611.4 251.7,611.4 243.4,613.1" fill="#DDD0B8" stroke="none"/>
<polyline points="593.7,565.4 599.1,452.2 599.2,434.8 600.0,424.6" fill="none" stroke="#C4A860" strokeWidth="1.5"/>
<polyline points="600.0,412.3 587.0,421.1 568.9,438.4 566.1,452.9" fill="none" stroke="#C4A860" strokeWidth="1.5"/>
<polyline points="546.6,365.3 556.3,371.0 600.0,396.8" fill="none" stroke="#C4A860" strokeWidth="1.5"/>
<polyline points="600.0,349.6 593.1,349.8 564.7,332.2 546.1,318.8" fill="none" stroke="#C4A860" strokeWidth="1.5"/>
<polyline points="600.0,265.4 597.2,243.4 595.6,202.9 587.5,102.6 582.7,15.8" fill="none" stroke="#C4A860" strokeWidth="1.5"/>
<polyline points="597.2,243.4 600.0,243.1" fill="none" stroke="#C4A860" strokeWidth="1.5"/>
<polyline points="386.8,0.0 386.8,15.4" fill="none" stroke="#C4A860" strokeWidth="1.5"/>
<polyline points="350.4,0.0 350.4,14.4" fill="none" stroke="#C4A860" strokeWidth="1.5"/>
<polyline points="137.9,313.1 120.7,313.2 106.5,319.7" fill="none" stroke="#C4A860" strokeWidth="1.5"/>
<polyline points="426.5,0.0 427.0,16.3" fill="none" stroke="#C4A860" strokeWidth="1.5"/>
<polyline points="309.4,13.0 313.1,13.2 326.3,13.8" fill="none" stroke="#C4A860" strokeWidth="1.5"/>
<polyline points="305.2,12.8 309.4,13.0" fill="none" stroke="#C4A860" strokeWidth="1.5"/>
<polyline points="301.7,12.5 305.2,12.8" fill="none" stroke="#C4A860" strokeWidth="1.5"/>
<polyline points="269.9,4.0 301.7,12.5" fill="none" stroke="#C4A860" strokeWidth="1.5"/>
<polyline points="304.7,0.0 304.8,6.9 305.2,12.8" fill="none" stroke="#C4A860" strokeWidth="1.5"/>
<polyline points="269.9,4.0 255.3,2.3" fill="none" stroke="#C4A860" strokeWidth="1.5"/>
<polyline points="228.3,0.0 255.3,2.3" fill="none" stroke="#C4A860" strokeWidth="1.5"/>
<polyline points="25.0,340.9 28.1,352.6 39.1,375.7 54.2,398.3 66.2,413.3 80.0,430.0 95.2,446.5 104.3,462.8 111.3,482.3 116.1,502.4 117.7,514.0 121.5,524.2 130.4,537.5 143.7,547.9 163.8,560.3 168.8,570.4 169.3,580.9" fill="none" stroke="#C4A860" strokeWidth="1.5"/>
<polyline points="137.9,313.1 170.3,382.9 190.4,426.2" fill="none" stroke="#C4A860" strokeWidth="1.5"/>
<polyline points="106.5,319.7 121.8,351.0 138.7,387.3 152.1,414.4 159.8,433.5" fill="none" stroke="#C4A860" strokeWidth="1.5"/>
<polyline points="101.1,327.6 94.6,332.3" fill="none" stroke="#C4A860" strokeWidth="1.5"/>
<polyline points="106.5,319.7 101.1,327.6" fill="none" stroke="#C4A860" strokeWidth="1.5"/>
<polyline points="170.3,382.9 206.5,363.9 176.3,297.3" fill="none" stroke="#C4A860" strokeWidth="1.5"/>
<polyline points="161.5,303.4 156.6,294.3 156.5,288.8" fill="none" stroke="#C4A860" strokeWidth="1.5"/>
<polyline points="156.5,288.8 160.0,283.3 178.6,266.3 189.2,256.7 203.6,249.9 223.4,242.7 266.9,241.9" fill="none" stroke="#C4A860" strokeWidth="1.5"/>
<polyline points="160.0,283.3 142.4,264.2 121.5,252.4" fill="none" stroke="#C4A860" strokeWidth="1.5"/>
<polyline points="57.7,239.9 66.7,276.2 73.0,276.8 85.2,282.7 94.1,297.3 95.0,309.5 93.2,321.1 89.7,331.4" fill="none" stroke="#C4A860" strokeWidth="1.5"/>
<polyline points="94.6,332.3 89.7,331.4 82.1,331.2 81.6,337.8" fill="none" stroke="#C4A860" strokeWidth="1.5"/>
<polyline points="119.7,214.0 112.8,220.7 97.2,220.4 89.2,220.5 82.5,221.9 78.1,224.3 74.4,226.8 69.2,228.9" fill="none" stroke="#C4A860" strokeWidth="1.5"/>
<polyline points="174.4,155.6 167.1,159.8 165.0,162.3 161.2,164.7 156.7,169.4 151.3,172.5 146.3,171.2 140.3,166.7 134.4,164.2 129.1,163.8 121.2,165.7 118.2,168.3 115.4,172.0 114.7,177.9 114.9,183.2 113.0,188.4 110.3,192.7 105.5,198.8 98.7,200.1 93.4,199.4 88.2,196.4 79.8,190.0 71.9,188.1 64.7,190.9 62.6,192.9 61.9,198.8 62.0,207.3 66.6,215.1 69.4,222.7 69.2,228.9 65.9,234.1 57.7,239.9 50.2,239.9 44.6,238.3 40.6,233.3 38.2,222.1 33.6,202.3 28.7,188.9 19.8,171.8 13.5,164.0 9.5,159.5 2.6,154.6 -0.0,149.5" fill="none" stroke="#C4A860" strokeWidth="1.5"/>
<polyline points="174.4,155.6 243.5,134.8" fill="none" stroke="#C4A860" strokeWidth="1.5"/>
<polyline points="174.4,155.6 180.0,173.7 184.6,191.0 257.3,171.0 250.1,151.3 243.5,134.8 250.1,132.7 243.2,113.8" fill="none" stroke="#C4A860" strokeWidth="1.5"/>
<polyline points="180.0,173.7 250.1,151.3" fill="none" stroke="#C4A860" strokeWidth="1.5"/>
<polyline points="121.5,252.4 118.3,247.3" fill="none" stroke="#C4A860" strokeWidth="1.5"/>
<polyline points="118.3,247.3 121.8,231.6 119.7,214.0" fill="none" stroke="#C4A860" strokeWidth="1.5"/>
<polyline points="184.5,201.8 192.6,233.2 174.4,234.6 156.4,244.4 142.6,248.8 121.5,252.4 108.5,247.5 90.0,247.1" fill="none" stroke="#C4A860" strokeWidth="1.5"/>
<polyline points="119.7,214.0 129.3,209.3 139.0,209.0 184.5,201.8 197.3,201.7 224.8,195.3 239.2,188.4 262.9,177.4 282.1,173.4 301.6,171.8" fill="none" stroke="#C4A860" strokeWidth="1.5"/>
<polyline points="203.6,249.9 198.1,234.7 192.6,233.2" fill="none" stroke="#C4A860" strokeWidth="1.5"/>
<polyline points="300.2,185.6 300.4,206.3 302.0,219.4" fill="none" stroke="#C4A860" strokeWidth="1.5"/>
<polyline points="300.4,101.6 301.6,171.8 300.2,185.6" fill="none" stroke="#C4A860" strokeWidth="1.5"/>
<polyline points="300.4,101.6 264.8,107.1 243.2,113.8" fill="none" stroke="#C4A860" strokeWidth="1.5"/>
<polyline points="302.1,56.5 300.1,56.5 295.1,56.2" fill="none" stroke="#C4A860" strokeWidth="1.5"/>
<polyline points="306.7,57.2 302.1,56.5" fill="none" stroke="#C4A860" strokeWidth="1.5"/>
<polyline points="305.2,12.8 304.6,17.8 301.3,25.3 296.8,41.5 295.1,56.2 294.8,59.2 294.4,75.5" fill="none" stroke="#C4A860" strokeWidth="1.5"/>
<polyline points="294.4,75.5 295.8,83.6" fill="none" stroke="#C4A860" strokeWidth="1.5"/>
<polyline points="302.3,0.0 302.2,1.5 302.2,6.0 301.7,12.5 301.1,14.9 300.2,19.8 299.0,24.8 296.8,29.9 296.1,36.0 293.9,51.6 291.2,59.0 290.9,63.6 291.1,79.8 291.6,87.8 290.5,91.8" fill="none" stroke="#C4A860" strokeWidth="1.5"/>
<polyline points="290.5,91.8 296.4,91.0 304.6,89.9 304.2,88.5 302.9,86.7 301.4,84.3 300.3,80.1 299.5,72.1 299.5,68.7 299.6,60.7 299.7,60.0 300.1,56.5 300.5,52.5 300.8,50.2 305.5,29.8 308.4,18.5 309.4,13.0 311.2,2.3 311.3,0.0" fill="none" stroke="#C4A860" strokeWidth="1.5"/>
<polyline points="315.3,75.0 334.2,14.3" fill="none" stroke="#C4A860" strokeWidth="1.5"/>
<polyline points="313.2,57.9 306.7,57.2" fill="none" stroke="#C4A860" strokeWidth="1.5"/>
<polyline points="313.8,86.5 314.2,94.2" fill="none" stroke="#C4A860" strokeWidth="1.5"/>
<polyline points="315.4,76.4 315.3,75.0" fill="none" stroke="#C4A860" strokeWidth="1.5"/>
<polyline points="295.6,89.0 295.8,83.6" fill="none" stroke="#C4A860" strokeWidth="1.5"/>
<polyline points="315.4,76.4 313.8,86.5 304.2,88.5 295.6,89.0" fill="none" stroke="#C4A860" strokeWidth="1.5"/>
<polyline points="295.6,89.0 296.4,91.0 300.4,101.6" fill="none" stroke="#C4A860" strokeWidth="1.5"/>
<polyline points="300.4,101.6 314.2,94.2 325.1,88.5 340.6,85.2 368.3,85.4 373.8,85.4 444.0,85.8 457.4,85.9 488.1,86.1" fill="none" stroke="#C4A860" strokeWidth="1.5"/>
<polyline points="315.4,76.4 331.1,73.8 343.5,74.7 353.1,73.0 368.7,73.6 372.3,73.7 393.7,77.7 408.7,78.0 417.8,77.8 425.2,77.6 438.8,77.1 444.3,77.0" fill="none" stroke="#C4A860" strokeWidth="1.5"/>
<polyline points="368.4,81.8 368.3,85.4" fill="none" stroke="#C4A860" strokeWidth="1.5"/>
<polyline points="368.7,73.6 368.4,81.8" fill="none" stroke="#C4A860" strokeWidth="1.5"/>
<polyline points="327.8,0.0 328.0,1.9 328.1,2.5 327.8,4.3 326.3,13.8 325.8,17.3 325.7,18.1 325.0,24.2 321.1,30.8 316.7,39.4 314.2,49.9 313.5,55.0 313.2,57.9 312.9,60.1 311.9,69.1 311.5,75.8" fill="none" stroke="#C4A860" strokeWidth="1.5"/>
<polyline points="311.5,75.8 315.3,75.0 317.0,74.6 324.5,73.3 329.7,72.5 338.6,72.8 346.3,73.2 353.4,71.6 358.8,71.8 371.2,71.9 382.6,73.7 396.9,76.6 413.4,76.9 428.0,76.4 437.2,76.0 443.8,75.5 446.3,75.3 450.7,75.9 457.3,78.4 462.4,77.2 466.3,74.9 468.8,71.4 468.4,46.2 468.3,42.4 467.9,26.3 467.5,17.3 467.2,6.2 466.6,2.2 466.5,0.0" fill="none" stroke="#C4A860" strokeWidth="1.5"/>
<polyline points="326.3,13.8 334.2,14.3 350.4,14.4 369.7,14.9 386.8,15.4 416.6,15.6 427.0,16.3 457.0,16.8 467.5,17.3 470.2,18.0" fill="none" stroke="#C4A860" strokeWidth="1.5"/>
<polyline points="444.3,77.0 450.3,76.9 457.3,80.6" fill="none" stroke="#C4A860" strokeWidth="1.5"/>
<polyline points="373.8,85.4 374.5,166.9 400.5,200.3 399.3,211.1 392.4,240.5 373.5,250.6 366.8,261.2" fill="none" stroke="#C4A860" strokeWidth="1.5"/>
<polyline points="302.0,219.4 312.6,220.3 363.7,258.3 366.8,261.2 378.9,272.8 439.1,298.2 479.1,308.9 492.9,311.9" fill="none" stroke="#C4A860" strokeWidth="1.5"/>
<polyline points="397.1,373.2 396.3,336.4" fill="none" stroke="#C4A860" strokeWidth="1.5"/>
<polyline points="396.3,336.4 425.7,337.5 449.1,346.4 450.5,349.9 480.3,351.5 493.2,352.1" fill="none" stroke="#C4A860" strokeWidth="1.5"/>
<polyline points="307.9,305.5 303.7,302.2 298.6,298.3 293.3,288.4" fill="none" stroke="#C4A860" strokeWidth="1.5"/>
<polyline points="137.9,313.1 161.5,303.4 176.3,297.3 179.5,296.0 240.1,259.1 266.9,241.9 302.0,219.4" fill="none" stroke="#C4A860" strokeWidth="1.5"/>
<polyline points="242.8,341.5 264.2,377.4" fill="none" stroke="#C4A860" strokeWidth="1.5"/>
<polyline points="315.9,301.0 307.9,305.5 304.6,307.3 242.8,341.5" fill="none" stroke="#C4A860" strokeWidth="1.5"/>
<polyline points="355.8,440.6 302.6,427.1 295.6,425.0 288.3,404.2" fill="none" stroke="#C4A860" strokeWidth="1.5"/>
<polyline points="329.6,381.0 190.4,426.2 159.8,433.5 155.7,434.8" fill="none" stroke="#C4A860" strokeWidth="1.5"/>
<polyline points="155.7,434.8 174.1,504.9" fill="none" stroke="#C4A860" strokeWidth="1.5"/>
<polyline points="333.0,389.1 343.6,384.7 373.5,375.0 397.1,373.2" fill="none" stroke="#C4A860" strokeWidth="1.5"/>
<polyline points="397.1,373.2 399.6,434.3" fill="none" stroke="#C4A860" strokeWidth="1.5"/>
<polyline points="493.4,420.1 482.2,422.4 399.6,434.3 355.8,440.6" fill="none" stroke="#C4A860" strokeWidth="1.5"/>
<polyline points="486.8,472.4 494.2,472.4 502.5,472.4" fill="none" stroke="#C4A860" strokeWidth="1.5"/>
<polyline points="502.5,472.4 503.7,472.4" fill="none" stroke="#C4A860" strokeWidth="1.5"/>
<polyline points="484.0,472.4 486.8,472.4" fill="none" stroke="#C4A860" strokeWidth="1.5"/>
<polyline points="493.7,520.2 494.2,472.4 494.4,454.4 493.4,420.1 493.3,362.0" fill="none" stroke="#C4A860" strokeWidth="1.5"/>
<polyline points="502.3,635.0 502.4,632.5 507.7,621.8 517.1,613.0 528.5,605.5 532.0,603.0 543.4,588.1 548.7,569.5 548.2,561.2 547.8,555.3 538.8,538.1 523.3,523.6 505.3,510.4 503.7,477.2 503.7,472.4 503.8,454.2 503.8,436.7 502.4,385.2 502.2,363.5 501.8,343.8 500.9,323.1 500.7,319.7 500.6,309.8 499.6,285.0 500.7,211.7 500.3,204.2 499.1,175.1" fill="none" stroke="#C4A860" strokeWidth="1.5"/>
<polyline points="499.1,175.1 501.0,100.7 503.9,42.5 518.2,26.8" fill="none" stroke="#C4A860" strokeWidth="1.5"/>
<polyline points="600.0,452.3 599.1,452.2 566.1,452.9 503.8,454.2 494.4,454.4" fill="none" stroke="#C4A860" strokeWidth="1.5"/>
<polyline points="492.9,311.9 500.6,309.8 541.2,311.1 600.0,312.6" fill="none" stroke="#C4A860" strokeWidth="1.5"/>
<polyline points="540.2,258.5 541.2,311.1 546.1,318.8 546.6,365.3" fill="none" stroke="#C4A860" strokeWidth="1.5"/>
<polyline points="541.8,202.8 540.2,258.5" fill="none" stroke="#C4A860" strokeWidth="1.5"/>
<polyline points="493.3,362.0 502.2,363.5 543.7,370.3 556.3,371.0" fill="none" stroke="#C4A860" strokeWidth="1.5"/>
<polyline points="546.6,365.3 500.7,319.7 492.9,311.9" fill="none" stroke="#C4A860" strokeWidth="1.5"/>
<polyline points="500.2,323.1 500.9,323.1" fill="none" stroke="#C4A860" strokeWidth="1.5"/>
<polyline points="479.5,323.3 483.4,323.2" fill="none" stroke="#C4A860" strokeWidth="1.5"/>
<polyline points="483.4,323.2 493.0,323.1 500.2,323.1" fill="none" stroke="#C4A860" strokeWidth="1.5"/>
<polyline points="493.3,362.0 493.2,352.1" fill="none" stroke="#C4A860" strokeWidth="1.5"/>
<polyline points="440.1,568.2 439.9,566.7" fill="none" stroke="#C4A860" strokeWidth="1.5"/>
<polyline points="439.9,566.7 442.2,555.8 448.0,544.4 453.1,533.4 457.4,528.9 467.9,521.7 476.6,513.7 480.2,508.3 483.1,499.2 484.3,486.2 484.0,472.4 482.2,422.4 480.3,351.5 479.5,323.3 479.1,308.9 472.8,101.5 472.4,99.0 471.7,96.6 470.8,94.3 469.7,92.5" fill="none" stroke="#C4A860" strokeWidth="1.5"/>
<polyline points="493.2,352.1 493.0,323.1 492.9,311.9 491.2,204.6 488.8,100.3" fill="none" stroke="#C4A860" strokeWidth="1.5"/>
<polyline points="540.2,258.5 555.5,254.9 563.1,239.8 567.3,235.9 581.0,235.5 591.8,236.7 597.2,243.4" fill="none" stroke="#C4A860" strokeWidth="1.5"/>
<polyline points="542.0,101.8 541.8,202.8" fill="none" stroke="#C4A860" strokeWidth="1.5"/>
<polyline points="488.8,100.3 488.1,86.1" fill="none" stroke="#C4A860" strokeWidth="1.5"/>
<polyline points="469.7,92.5 468.1,91.2 466.4,90.6 457.6,90.5" fill="none" stroke="#C4A860" strokeWidth="1.5"/>
<polyline points="457.6,90.5 457.5,89.2" fill="none" stroke="#C4A860" strokeWidth="1.5"/>
<polyline points="457.5,89.2 457.4,85.9 457.3,81.9" fill="none" stroke="#C4A860" strokeWidth="1.5"/>
<polyline points="457.3,81.9 457.3,80.6" fill="none" stroke="#C4A860" strokeWidth="1.5"/>
<polyline points="457.3,80.6 457.3,78.4" fill="none" stroke="#C4A860" strokeWidth="1.5"/>
<polyline points="457.3,80.6 460.8,80.5 464.0,79.8 469.0,75.9" fill="none" stroke="#C4A860" strokeWidth="1.5"/>
<polyline points="488.1,86.1 486.0,42.3 484.8,18.7" fill="none" stroke="#C4A860" strokeWidth="1.5"/>
<polyline points="457.3,78.4 457.0,16.8" fill="none" stroke="#C4A860" strokeWidth="1.5"/>
<polyline points="470.7,42.4 472.1,42.5" fill="none" stroke="#C4A860" strokeWidth="1.5"/>
<polyline points="470.7,42.4 468.3,42.4" fill="none" stroke="#C4A860" strokeWidth="1.5"/>
<polyline points="472.1,42.5 486.0,42.3 498.5,42.6" fill="none" stroke="#C4A860" strokeWidth="1.5"/>
<polyline points="498.5,42.6 503.9,42.5" fill="none" stroke="#C4A860" strokeWidth="1.5"/>
<polyline points="540.3,17.0 542.0,101.8" fill="none" stroke="#C4A860" strokeWidth="1.5"/>
<polyline points="518.2,26.8 518.4,24.7" fill="none" stroke="#C4A860" strokeWidth="1.5"/>
<polyline points="488.8,100.3 501.0,100.7 542.0,101.8" fill="none" stroke="#C4A860" strokeWidth="1.5"/>
<polyline points="542.0,101.8 587.5,102.6 600.0,101.7" fill="none" stroke="#C4A860" strokeWidth="1.5"/>
<polyline points="491.2,204.6 500.3,204.2 541.8,202.8 595.6,202.9 600.0,202.9" fill="none" stroke="#C4A860" strokeWidth="1.5"/>
<polyline points="484.8,18.7 518.5,17.0 540.3,17.0 582.7,15.8 600.0,15.3" fill="none" stroke="#C4A860" strokeWidth="1.5"/>
<polyline points="518.4,24.7 518.5,17.0 519.4,6.9" fill="none" stroke="#C4A860" strokeWidth="1.5"/>
<polyline points="519.4,6.9 519.6,4.1" fill="none" stroke="#C4A860" strokeWidth="1.5"/>
<polyline points="469.0,75.9 471.7,71.6 470.7,42.4 470.2,18.0 468.9,3.3 468.7,0.0" fill="none" stroke="#C4A860" strokeWidth="1.5"/>
<polyline points="582.7,15.8 591.6,0.0" fill="none" stroke="#C4A860" strokeWidth="1.5"/>
<polyline points="484.8,18.7 483.0,0.0" fill="none" stroke="#C4A860" strokeWidth="1.5"/>
<polyline points="519.6,4.1 508.1,3.5 505.5,0.0" fill="none" stroke="#C4A860" strokeWidth="1.5"/>
<polyline points="-0.0,191.6 6.3,226.0" fill="none" stroke="#C4A860" strokeWidth="1.5"/>
<polyline points="10.4,225.5 6.3,226.0 3.6,226.1 0.0,226.3" fill="none" stroke="#C4A860" strokeWidth="1.5"/>
<polyline points="173.5,583.6 169.8,570.2 164.6,559.8 144.6,546.6 131.4,536.6 124.1,523.1 119.6,513.7 118.2,502.2 113.2,481.8 105.7,462.2 96.5,445.6 79.8,427.5 63.2,407.1 55.1,396.7 40.3,374.9 29.4,351.6 26.7,340.5 11.8,278.6 5.9,251.9 10.4,225.5 4.7,186.7 -0.0,161.1" fill="none" stroke="#C4A860" strokeWidth="1.5"/>
<polyline points="26.7,340.5 25.0,340.9 21.9,341.5 2.0,345.4 0.0,345.7" fill="none" stroke="#C4A860" strokeWidth="1.5"/>
<polyline points="1.3,300.2 -0.0,300.6" fill="none" stroke="#C4A860" strokeWidth="1.5"/>
<polyline points="7.0,299.4 1.3,300.2" fill="none" stroke="#C4A860" strokeWidth="1.5"/>
<polyline points="12.0,298.5 7.0,299.4" fill="none" stroke="#C4A860" strokeWidth="1.5"/>
<polyline points="6.3,226.0 3.7,252.9" fill="none" stroke="#C4A860" strokeWidth="1.5"/>
<polyline points="3.7,252.9 20.2,322.5 25.0,340.9" fill="none" stroke="#C4A860" strokeWidth="1.5"/>
<polyline points="1.9,253.0 3.6,226.1" fill="none" stroke="#C4A860" strokeWidth="1.5"/>
<polyline points="21.9,341.5 18.1,324.8 12.7,301.9 12.0,298.5 6.2,271.7 1.9,253.0" fill="none" stroke="#C4A860" strokeWidth="1.5"/>
<polyline points="465.3,532.3 457.4,528.9 449.5,525.4 406.9,528.7 371.8,528.2" fill="none" stroke="#C4A860" strokeWidth="1.5"/>
<polyline points="451.0,570.1 440.3,570.5 433.6,571.5 369.6,568.1" fill="none" stroke="#C4A860" strokeWidth="1.5"/>
<polyline points="440.6,572.5 440.3,570.5 440.1,568.2" fill="none" stroke="#C4A860" strokeWidth="1.5"/>
<polyline points="302.0,219.4 315.9,301.0 329.6,381.0 333.0,389.1 354.9,438.5 355.8,440.6 373.9,473.5 371.8,528.2 369.7,546.3 369.6,568.1 374.9,616.0 377.9,635.0" fill="none" stroke="#C4A860" strokeWidth="1.5"/>
<polyline points="354.5,620.1 344.2,600.1" fill="none" stroke="#C4A860" strokeWidth="1.5"/>
<polyline points="330.1,635.0 336.6,630.2 354.5,620.1 374.9,616.0" fill="none" stroke="#C4A860" strokeWidth="1.5"/>
<polyline points="243.7,614.8 252.0,613.2" fill="none" stroke="#C4A860" strokeWidth="1.5"/>
<polyline points="250.5,576.0 250.8,581.0" fill="none" stroke="#C4A860" strokeWidth="1.5"/>
<polyline points="250.8,581.0 251.0,586.2" fill="none" stroke="#C4A860" strokeWidth="1.5"/>
<polyline points="344.2,600.1 285.0,602.6" fill="none" stroke="#C4A860" strokeWidth="1.5"/>
<polyline points="369.6,568.1 325.6,575.4 279.3,576.3 250.5,576.0 240.9,576.0" fill="none" stroke="#C4A860" strokeWidth="1.5"/>
<polyline points="240.9,576.0 229.8,564.6 217.5,550.7 205.5,524.4 195.5,499.9 174.1,504.9" fill="none" stroke="#C4A860" strokeWidth="1.5"/>
<polyline points="240.9,576.0 196.7,580.5 173.5,583.6" fill="none" stroke="#C4A860" strokeWidth="1.5"/>
<polyline points="172.2,583.7 164.6,584.0" fill="none" stroke="#C4A860" strokeWidth="1.5"/>
<polyline points="173.5,583.6 172.2,583.7" fill="none" stroke="#C4A860" strokeWidth="1.5"/>
<polyline points="164.6,584.0 155.4,585.6 147.3,584.7 134.8,589.0 122.6,591.9 108.9,594.5 93.7,596.4 75.5,598.5 62.1,600.4 32.6,603.8 18.9,606.8 0.0,611.0" fill="none" stroke="#C4A860" strokeWidth="1.5"/>
<polyline points="169.3,580.9 167.0,618.3 165.9,635.0" fill="none" stroke="#C4A860" strokeWidth="1.5"/>
<polyline points="252.0,613.2 255.7,635.0" fill="none" stroke="#C4A860" strokeWidth="1.5"/>
<polyline points="491.3,635.0 491.6,611.0" fill="none" stroke="#C4A860" strokeWidth="1.5"/>
<polyline points="479.8,635.0 479.4,632.1 476.9,624.7 469.5,615.6 458.0,606.2 450.2,595.1 443.2,581.8 440.8,574.3 440.6,572.5" fill="none" stroke="#C4A860" strokeWidth="1.5"/>
<polyline points="493.7,520.2 478.4,523.8 465.3,532.3 458.5,540.3 453.7,549.5 451.2,559.7 451.0,570.1" fill="none" stroke="#C4A860" strokeWidth="1.5"/>
<polyline points="451.0,570.1 455.1,585.0 464.0,597.7 476.7,606.8 491.6,611.0" fill="none" stroke="#C4A860" strokeWidth="1.5"/>
<polyline points="491.6,611.0 503.0,610.8 514.0,607.7 523.9,602.1 534.6,590.6 540.8,576.3 541.8,560.6 538.2,547.3 530.8,535.7 520.2,526.8 507.5,521.5 493.7,520.2" fill="none" stroke="#C4A860" strokeWidth="1.5"/>
<polyline points="600.0,565.3 593.7,565.4 548.2,561.2 541.8,560.6" fill="none" stroke="#C4A860" strokeWidth="1.5"/>
<polyline points="588.8,635.0 590.4,612.7 593.7,565.4" fill="none" stroke="#C4A860" strokeWidth="1.5"/>
<polyline points="600.0,613.5 590.4,612.7 534.8,610.3 528.5,605.5 523.9,602.1" fill="none" stroke="#C4A860" strokeWidth="1.5"/>
<polygon points="151.2,421.5 132.4,428.3 135.0,435.6 153.9,428.7" fill="#D4B88A" fillOpacity="0.5" stroke="#A08050" strokeWidth="0.8"/>
<polygon points="180.9,458.8 166.4,463.1 169.6,474.0 184.2,469.6" fill="#D4B88A" fillOpacity="0.5" stroke="#A08050" strokeWidth="0.8"/>
<polygon points="185.2,471.8 169.9,476.8 173.4,487.3 188.6,482.3" fill="#D4B88A" fillOpacity="0.5" stroke="#A08050" strokeWidth="0.8"/>
<polygon points="202.2,469.2 189.0,473.7 195.9,493.7 209.1,489.2" fill="#D4B88A" fillOpacity="0.5" stroke="#A08050" strokeWidth="0.8"/>
<polygon points="196.3,456.7 184.0,460.8 186.9,469.5 199.2,465.4" fill="#D4B88A" fillOpacity="0.5" stroke="#A08050" strokeWidth="0.8"/>
<polygon points="192.7,444.4 180.8,448.5 184.1,457.9 195.9,453.8" fill="#D4B88A" fillOpacity="0.5" stroke="#A08050" strokeWidth="0.8"/>
<polygon points="220.2,422.4 200.3,428.8 204.9,443.2 213.4,440.4 212.3,436.9 223.7,433.2" fill="#D4B88A" fillOpacity="0.5" stroke="#A08050" strokeWidth="0.8"/>
<polygon points="190.2,431.6 177.5,435.6 180.5,445.1 193.2,441.0" fill="#D4B88A" fillOpacity="0.5" stroke="#A08050" strokeWidth="0.8"/>
<polygon points="177.3,444.1 162.5,448.7 165.9,459.9 180.8,455.3" fill="#D4B88A" fillOpacity="0.5" stroke="#A08050" strokeWidth="0.8"/>
<polygon points="172.8,431.9 159.3,435.8 162.2,445.8 175.7,442.0" fill="#D4B88A" fillOpacity="0.5" stroke="#A08050" strokeWidth="0.8"/>
<polygon points="157.2,408.6 154.0,410.1 157.3,417.2 174.9,409.1 169.4,397.2 155.0,403.9" fill="#D4B88A" fillOpacity="0.5" stroke="#A08050" strokeWidth="0.8"/>
<polygon points="176.0,413.2 161.4,418.8 165.1,428.6 179.7,423.0" fill="#D4B88A" fillOpacity="0.5" stroke="#A08050" strokeWidth="0.8"/>
<polygon points="192.1,402.6 186.1,405.2 191.7,418.2 203.8,413.0 201.2,406.8 198.1,408.1 196.9,405.3 193.8,406.7" fill="#D4B88A" fillOpacity="0.5" stroke="#A08050" strokeWidth="0.8"/>
<polygon points="210.1,386.0 194.5,393.5 197.9,400.5 200.4,399.3 201.4,401.3 212.7,395.9 210.1,390.4 211.8,389.6" fill="#D4B88A" fillOpacity="0.5" stroke="#A08050" strokeWidth="0.8"/>
<polygon points="203.6,371.6 191.1,377.4 195.9,387.8 208.5,382.1" fill="#D4B88A" fillOpacity="0.5" stroke="#A08050" strokeWidth="0.8"/>
<polygon points="183.6,361.7 168.1,369.8 171.5,376.2 178.3,372.7 179.1,374.2 187.8,369.7" fill="#D4B88A" fillOpacity="0.5" stroke="#A08050" strokeWidth="0.8"/>
<polygon points="188.6,378.5 174.6,385.3 178.7,393.8 192.8,387.1" fill="#D4B88A" fillOpacity="0.5" stroke="#A08050" strokeWidth="0.8"/>
<polygon points="161.4,380.1 146.6,386.9 151.2,396.8 166.0,390.0" fill="#D4B88A" fillOpacity="0.5" stroke="#A08050" strokeWidth="0.8"/>
<polygon points="154.0,369.0 138.2,376.8 143.4,387.3 159.2,379.6" fill="#D4B88A" fillOpacity="0.5" stroke="#A08050" strokeWidth="0.8"/>
<polygon points="149.4,358.8 133.6,365.4 137.0,373.6 152.8,367.1" fill="#D4B88A" fillOpacity="0.5" stroke="#A08050" strokeWidth="0.8"/>
<polygon points="144.6,411.5 129.4,417.6 133.0,426.5 148.2,420.3" fill="#D4B88A" fillOpacity="0.5" stroke="#A08050" strokeWidth="0.8"/>
<polygon points="135.1,398.1 123.4,405.1 128.9,414.4 137.0,409.5 134.8,405.9 138.5,403.7" fill="#D4B88A" fillOpacity="0.5" stroke="#A08050" strokeWidth="0.8"/>
<polygon points="124.5,377.7 110.6,386.6 120.2,401.4 134.0,392.4" fill="#D4B88A" fillOpacity="0.5" stroke="#A08050" strokeWidth="0.8"/>
<polygon points="116.0,358.1 98.5,369.8 107.9,383.9 125.4,372.2" fill="#D4B88A" fillOpacity="0.5" stroke="#A08050" strokeWidth="0.8"/>
<polygon points="308.3,372.7 303.7,373.7 305.2,380.4 310.9,379.0 311.4,380.9 323.0,378.2 320.5,367.5 307.8,370.5" fill="#D4B88A" fillOpacity="0.5" stroke="#A08050" strokeWidth="0.8"/>
<polygon points="317.9,390.9 308.1,394.5 312.7,407.2 322.5,403.7" fill="#D4B88A" fillOpacity="0.5" stroke="#A08050" strokeWidth="0.8"/>
<polygon points="298.1,368.7 281.0,372.5 284.2,386.8 301.3,383.1" fill="#D4B88A" fillOpacity="0.5" stroke="#A08050" strokeWidth="0.8"/>
<polygon points="274.6,374.5 259.9,384.2 264.5,391.2 275.9,383.7 273.9,380.7 277.3,378.5" fill="#D4B88A" fillOpacity="0.5" stroke="#A08050" strokeWidth="0.8"/>
<polygon points="259.0,383.7 246.0,391.1 249.4,397.0 259.2,391.3 258.5,390.1 261.6,388.3" fill="#D4B88A" fillOpacity="0.5" stroke="#A08050" strokeWidth="0.8"/>
<polygon points="256.0,369.2 245.2,377.1 250.9,385.0 257.4,380.3 256.5,379.0 260.8,375.8" fill="#D4B88A" fillOpacity="0.5" stroke="#A08050" strokeWidth="0.8"/>
<polygon points="242.9,382.3 234.4,384.6 238.8,400.8 247.3,398.5" fill="#D4B88A" fillOpacity="0.5" stroke="#A08050" strokeWidth="0.8"/>
<polygon points="216.4,451.1 210.7,452.7 215.1,468.5 220.7,467.0 231.5,505.9 243.7,502.5 223.7,433.2 212.3,436.9 213.4,440.4" fill="#D4B88A" fillOpacity="0.5" stroke="#A08050" strokeWidth="0.8"/>
<polygon points="325.5,409.5 323.0,410.5 325.7,417.8 334.2,414.6 336.6,420.9 343.0,418.4 336.5,401.3 324.2,406.0" fill="#D4B88A" fillOpacity="0.5" stroke="#A08050" strokeWidth="0.8"/>
<polygon points="329.4,591.6 329.2,592.8 329.4,594.0 330.0,595.0 330.9,595.8 332.0,596.3 333.2,596.4 334.3,596.1 335.3,595.4 336.0,594.5 336.4,593.4 336.4,592.2 336.0,591.1 335.3,590.2 334.3,589.5 333.2,589.2 332.0,589.3 330.9,589.7 330.0,590.5" fill="#D4B88A" fillOpacity="0.5" stroke="#A08050" strokeWidth="0.8"/>
<polygon points="234.8,540.4 222.0,545.4 225.4,554.3 230.3,552.4 231.7,555.9 239.6,552.9" fill="#D4B88A" fillOpacity="0.5" stroke="#A08050" strokeWidth="0.8"/>
<polygon points="283.9,515.8 283.5,530.1 296.1,530.4 296.4,516.1" fill="#D4B88A" fillOpacity="0.5" stroke="#A08050" strokeWidth="0.8"/>
<polygon points="308.0,536.2 300.1,539.8 303.9,548.2 308.3,546.2 311.8,544.7" fill="#D4B88A" fillOpacity="0.5" stroke="#A08050" strokeWidth="0.8"/>
<polygon points="318.1,529.9 310.3,533.7 316.3,545.9 324.0,542.1" fill="#D4B88A" fillOpacity="0.5" stroke="#A08050" strokeWidth="0.8"/>
<polygon points="301.2,513.0 300.5,526.6 313.4,527.3 314.0,513.6" fill="#D4B88A" fillOpacity="0.5" stroke="#A08050" strokeWidth="0.8"/>
<polygon points="300.8,495.0 300.6,505.2 311.9,505.4 312.2,495.2" fill="#D4B88A" fillOpacity="0.5" stroke="#A08050" strokeWidth="0.8"/>
<polygon points="288.4,500.5 287.5,509.6 296.8,510.6 297.7,501.4" fill="#D4B88A" fillOpacity="0.5" stroke="#A08050" strokeWidth="0.8"/>
<polygon points="275.1,480.7 240.7,491.6 244.2,502.9 278.7,492.0" fill="#D4B88A" fillOpacity="0.5" stroke="#A08050" strokeWidth="0.8"/>
<polygon points="278.3,503.3 242.4,513.9 246.2,526.7 282.1,516.1" fill="#D4B88A" fillOpacity="0.5" stroke="#A08050" strokeWidth="0.8"/>
<polygon points="217.4,494.6 202.7,501.4 219.2,537.0 233.8,530.2" fill="#D4B88A" fillOpacity="0.5" stroke="#A08050" strokeWidth="0.8"/>
<polygon points="188.7,485.6 173.7,491.1 177.4,501.0 192.3,495.6" fill="#D4B88A" fillOpacity="0.5" stroke="#A08050" strokeWidth="0.8"/>
<polygon points="184.4,504.7 165.5,513.0 169.7,522.6 181.4,517.5 193.7,545.3 207.9,539.0 192.8,504.9 185.8,507.9" fill="#D4B88A" fillOpacity="0.5" stroke="#A08050" strokeWidth="0.8"/>
<polygon points="127.3,592.3 120.4,594.0 123.0,605.2 130.0,603.6" fill="#D4B88A" fillOpacity="0.5" stroke="#A08050" strokeWidth="0.8"/>
<polygon points="262.7,0.0 262.2,7.7 265.4,7.9 269.3,12.6 269.9,4.0 270.1,0.0" fill="#D4B88A" fillOpacity="0.5" stroke="#A08050" strokeWidth="0.8"/>
<polygon points="254.7,10.2 254.6,11.7 258.7,11.9 263.5,12.2 269.3,12.6 269.9,4.0 270.1,0.0 255.4,0.0 255.3,2.3" fill="#D4B88A" fillOpacity="0.5" stroke="#A08050" strokeWidth="0.8"/>
<polygon points="259.2,7.5 254.6,11.7 263.3,12.2 269.3,12.6 265.4,7.9 262.2,7.7" fill="#D4B88A" fillOpacity="0.5" stroke="#A08050" strokeWidth="0.8"/>
<polygon points="254.7,10.2 254.6,11.7 259.2,7.5 262.2,7.7 262.7,0.0 255.4,0.0 255.3,2.3" fill="#D4B88A" fillOpacity="0.5" stroke="#A08050" strokeWidth="0.8"/>
<polygon points="192.9,0.0 192.6,3.3 199.4,3.7 199.7,0.0" fill="#D4B88A" fillOpacity="0.5" stroke="#A08050" strokeWidth="0.8"/>
<polygon points="162.1,0.3 160.8,18.0 166.9,18.5 168.4,0.8" fill="#D4B88A" fillOpacity="0.5" stroke="#A08050" strokeWidth="0.8"/>
<polygon points="162.1,0.0 162.1,0.3 168.4,0.8 168.4,0.0" fill="#D4B88A" fillOpacity="0.5" stroke="#A08050" strokeWidth="0.8"/>
<polygon points="130.1,0.0 117.7,0.0 121.1,4.2 129.8,4.8" fill="#D4B88A" fillOpacity="0.5" stroke="#A08050" strokeWidth="0.8"/>
<polygon points="107.0,0.0 106.2,14.6 113.3,15.0 120.3,15.5 121.1,4.2 117.7,0.0" fill="#D4B88A" fillOpacity="0.5" stroke="#A08050" strokeWidth="0.8"/>
<polygon points="98.4,324.0 92.0,328.7 94.6,332.3 97.0,335.5 103.4,330.8 101.1,327.6" fill="#D4B88A" fillOpacity="0.5" stroke="#A08050" strokeWidth="0.8"/>
<polygon points="123.5,303.5 115.6,306.4 116.9,310.0 124.8,307.1 124.3,305.7" fill="#D4B88A" fillOpacity="0.5" stroke="#A08050" strokeWidth="0.8"/>
<polygon points="121.4,316.6 110.9,321.2 118.2,337.7 134.1,330.8 130.9,323.5 125.4,325.9" fill="#D4B88A" fillOpacity="0.5" stroke="#A08050" strokeWidth="0.8"/>
<polygon points="135.9,332.7 120.4,339.4 125.0,349.9 140.5,343.2" fill="#D4B88A" fillOpacity="0.5" stroke="#A08050" strokeWidth="0.8"/>
<polygon points="144.2,343.4 127.2,351.2 132.2,362.3 144.5,356.7 141.5,350.2 146.3,348.0" fill="#D4B88A" fillOpacity="0.5" stroke="#A08050" strokeWidth="0.8"/>
<polygon points="171.2,337.4 157.3,344.6 161.4,352.7 175.3,345.6" fill="#D4B88A" fillOpacity="0.5" stroke="#A08050" strokeWidth="0.8"/>
<polygon points="177.9,349.3 162.2,356.7 166.4,365.4 182.0,357.9" fill="#D4B88A" fillOpacity="0.5" stroke="#A08050" strokeWidth="0.8"/>
<polygon points="209.5,338.2 201.0,342.6 206.6,353.6 215.2,349.3" fill="#D4B88A" fillOpacity="0.5" stroke="#A08050" strokeWidth="0.8"/>
<polygon points="205.7,319.7 192.5,326.4 196.6,334.5 209.8,327.9" fill="#D4B88A" fillOpacity="0.5" stroke="#A08050" strokeWidth="0.8"/>
<polygon points="195.7,306.5 185.5,311.6 191.1,322.5 201.2,317.5" fill="#D4B88A" fillOpacity="0.5" stroke="#A08050" strokeWidth="0.8"/>
<polygon points="166.0,323.3 150.6,330.7 153.1,335.9 154.8,335.0 156.6,338.7 163.3,335.5 164.2,337.3 171.1,333.9" fill="#D4B88A" fillOpacity="0.5" stroke="#A08050" strokeWidth="0.8"/>
<polygon points="165.4,282.5 157.4,289.1 161.9,294.6 170.0,288.0" fill="#D4B88A" fillOpacity="0.5" stroke="#A08050" strokeWidth="0.8"/>
<polygon points="175.2,274.7 165.9,282.3 171.0,288.4 180.2,280.8" fill="#D4B88A" fillOpacity="0.5" stroke="#A08050" strokeWidth="0.8"/>
<polygon points="187.1,294.7 180.1,297.9 184.8,308.3 191.8,305.1" fill="#D4B88A" fillOpacity="0.5" stroke="#A08050" strokeWidth="0.8"/>
<polygon points="116.2,275.4 100.5,275.9 101.2,298.1 111.9,297.8 111.8,292.4 116.7,292.3" fill="#D4B88A" fillOpacity="0.5" stroke="#A08050" strokeWidth="0.8"/>
<polygon points="80.4,251.7 65.7,253.8 68.8,275.0 83.5,272.8" fill="#D4B88A" fillOpacity="0.5" stroke="#A08050" strokeWidth="0.8"/>
<polygon points="73.2,294.8 70.7,311.3 73.5,311.8 71.3,326.4 82.2,328.0 84.5,313.1 88.7,312.2 91.0,297.5" fill="#D4B88A" fillOpacity="0.5" stroke="#A08050" strokeWidth="0.8"/>
<polygon points="96.7,343.7 85.3,350.2 91.2,360.4 102.5,354.0" fill="#D4B88A" fillOpacity="0.5" stroke="#A08050" strokeWidth="0.8"/>
<polygon points="77.3,340.5 77.1,342.6 85.6,343.5 85.9,341.5" fill="#D4B88A" fillOpacity="0.5" stroke="#A08050" strokeWidth="0.8"/>
<polygon points="0.0,289.4 0.0,292.9 1.3,300.2 3.2,311.5 8.9,310.5 7.0,299.4 5.1,288.5" fill="#D4B88A" fillOpacity="0.5" stroke="#A08050" strokeWidth="0.8"/>
<polygon points="17.2,202.6 10.3,203.6 11.2,209.6 18.1,208.6" fill="#D4B88A" fillOpacity="0.5" stroke="#A08050" strokeWidth="0.8"/>
<polygon points="16.6,28.7 14.3,32.5 14.6,35.9 17.3,38.2 22.0,38.1 24.2,35.9 24.4,31.6 21.8,28.6" fill="#D4B88A" fillOpacity="0.5" stroke="#A08050" strokeWidth="0.8"/>
<polygon points="96.5,23.6 96.0,29.3 111.6,31.1 112.4,23.9 113.3,15.0 106.2,14.6 105.3,24.4" fill="#D4B88A" fillOpacity="0.5" stroke="#A08050" strokeWidth="0.8"/>
<polygon points="129.0,25.0 128.8,26.9 134.5,27.3 135.0,19.6 129.5,19.2" fill="#D4B88A" fillOpacity="0.5" stroke="#A08050" strokeWidth="0.8"/>
<polygon points="111.6,31.1 110.6,41.5 118.1,42.0 119.1,32.2 128.4,32.9 128.7,30.1 128.8,26.9 129.0,25.0 112.4,23.9" fill="#D4B88A" fillOpacity="0.5" stroke="#A08050" strokeWidth="0.8"/>
<polygon points="128.8,26.9 128.7,30.1 135.0,30.9 142.6,31.6 154.7,32.5 158.7,32.8 159.1,28.4 154.3,28.1 154.7,23.1 150.2,22.7 149.8,28.5 134.5,27.3" fill="#D4B88A" fillOpacity="0.5" stroke="#A08050" strokeWidth="0.8"/>
<polygon points="128.3,8.6 127.6,19.1 129.5,19.2 135.0,19.6 138.4,19.8 139.1,9.3" fill="#D4B88A" fillOpacity="0.5" stroke="#A08050" strokeWidth="0.8"/>
<polygon points="93.2,0.0 89.0,46.7 92.3,46.9 91.9,50.9 126.3,53.7 126.0,56.6 204.0,64.0 207.3,32.0 201.4,31.2 198.8,59.1 188.9,58.3 191.8,27.0 185.3,26.4 182.7,54.3 147.2,51.1 147.5,47.9 141.3,47.3 140.8,52.6 133.1,51.9 135.0,30.9 128.7,30.1 128.4,32.9 126.9,48.5 98.2,46.2 98.6,41.4 95.0,41.1 96.0,29.3 96.5,23.6 98.7,0.0" fill="#D4B88A" fillOpacity="0.5" stroke="#A08050" strokeWidth="0.8"/>
<polygon points="142.6,31.6 141.3,47.3 147.5,47.9 153.4,48.4 154.7,32.5" fill="#D4B88A" fillOpacity="0.5" stroke="#A08050" strokeWidth="0.8"/>
<polygon points="146.6,16.8 146.1,22.3 150.2,22.7 154.7,23.1 197.5,26.7 197.9,21.5 198.4,16.7 198.8,11.4 199.4,3.7 192.7,3.2 192.6,3.3 191.1,20.6 166.9,18.5 160.8,18.0" fill="#D4B88A" fillOpacity="0.5" stroke="#A08050" strokeWidth="0.8"/>
<polygon points="197.5,26.7 197.1,29.7 208.7,30.9 209.4,22.5 197.9,21.5" fill="#D4B88A" fillOpacity="0.5" stroke="#A08050" strokeWidth="0.8"/>
<polygon points="198.8,11.4 198.4,16.7 209.7,17.6 209.4,22.5 212.7,22.8 214.3,22.9 214.8,17.0 215.1,12.6" fill="#D4B88A" fillOpacity="0.5" stroke="#A08050" strokeWidth="0.8"/>
<polygon points="211.1,39.0 209.7,52.6 229.9,54.9 230.2,52.5 230.4,50.1 216.0,48.5 216.9,39.6" fill="#D4B88A" fillOpacity="0.5" stroke="#A08050" strokeWidth="0.8"/>
<polygon points="150.8,208.6 142.1,211.0 145.3,222.5 154.0,220.1" fill="#D4B88A" fillOpacity="0.5" stroke="#A08050" strokeWidth="0.8"/>
<polygon points="140.4,210.0 124.0,213.6 126.7,225.5 143.0,221.9" fill="#D4B88A" fillOpacity="0.5" stroke="#A08050" strokeWidth="0.8"/>
<polygon points="172.2,217.0 159.1,221.0 161.8,229.9 174.9,225.8" fill="#D4B88A" fillOpacity="0.5" stroke="#A08050" strokeWidth="0.8"/>
<polygon points="212.8,205.2 194.0,209.9 197.8,225.3 206.8,223.1 206.2,220.4 216.0,218.0" fill="#D4B88A" fillOpacity="0.5" stroke="#A08050" strokeWidth="0.8"/>
<polygon points="250.8,223.7 237.0,228.9 239.9,236.6 253.7,231.5" fill="#D4B88A" fillOpacity="0.5" stroke="#A08050" strokeWidth="0.8"/>
<polygon points="233.0,223.8 219.5,226.3 221.3,235.5 234.7,233.0" fill="#D4B88A" fillOpacity="0.5" stroke="#A08050" strokeWidth="0.8"/>
<polygon points="230.1,208.7 216.9,211.1 219.1,222.9 232.3,220.5" fill="#D4B88A" fillOpacity="0.5" stroke="#A08050" strokeWidth="0.8"/>
<polygon points="246.5,208.0 233.6,210.4 235.4,220.0 248.3,217.5" fill="#D4B88A" fillOpacity="0.5" stroke="#A08050" strokeWidth="0.8"/>
<polygon points="266.0,222.5 262.2,225.1 267.0,232.0 279.6,223.3 271.5,211.7 264.8,216.3 266.2,218.3 264.1,219.7" fill="#D4B88A" fillOpacity="0.5" stroke="#A08050" strokeWidth="0.8"/>
<polygon points="316.7,196.0 303.2,196.0 306.5,214.3 317.4,206.7" fill="#D4B88A" fillOpacity="0.5" stroke="#A08050" strokeWidth="0.8"/>
<polygon points="287.5,207.6 280.6,211.6 286.1,220.1 292.9,216.5" fill="#D4B88A" fillOpacity="0.5" stroke="#A08050" strokeWidth="0.8"/>
<polygon points="283.2,176.9 271.1,178.5 272.3,187.5 284.3,185.9" fill="#D4B88A" fillOpacity="0.5" stroke="#A08050" strokeWidth="0.8"/>
<polygon points="295.5,173.7 284.6,174.8 285.6,184.6 296.5,183.4" fill="#D4B88A" fillOpacity="0.5" stroke="#A08050" strokeWidth="0.8"/>
<polygon points="304.3,180.2 303.5,194.2 319.2,194.9 320.3,182.4" fill="#D4B88A" fillOpacity="0.5" stroke="#A08050" strokeWidth="0.8"/>
<polygon points="339.8,169.4 328.1,169.8 328.6,186.9 336.4,186.6 336.3,183.6 340.2,183.5" fill="#D4B88A" fillOpacity="0.5" stroke="#A08050" strokeWidth="0.8"/>
<polygon points="304.2,153.3 303.9,162.5 312.8,163.1 313.4,161.8 319.3,161.9 319.6,153.6" fill="#D4B88A" fillOpacity="0.5" stroke="#A08050" strokeWidth="0.8"/>
<polygon points="304.1,141.2 303.9,150.8 305.8,152.3 312.1,152.6 312.5,152.0 321.7,151.9 322.0,141.5" fill="#D4B88A" fillOpacity="0.5" stroke="#A08050" strokeWidth="0.8"/>
<polygon points="325.5,157.7 321.8,157.8 322.0,166.7 336.0,166.4 335.8,155.5 325.5,155.7" fill="#D4B88A" fillOpacity="0.5" stroke="#A08050" strokeWidth="0.8"/>
<polygon points="270.1,142.5 269.9,151.9 292.7,152.2 293.6,122.4 287.2,122.5 283.1,127.5 282.9,141.7 271.5,141.4" fill="#D4B88A" fillOpacity="0.5" stroke="#A08050" strokeWidth="0.8"/>
<polygon points="234.5,52.9 234.4,54.3 253.7,56.2 254.1,52.6 239.3,51.1 240.0,44.5 235.4,44.0" fill="#D4B88A" fillOpacity="0.5" stroke="#A08050" strokeWidth="0.8"/>
<polygon points="217.0,24.2 216.3,31.6 231.4,32.9 232.1,25.6" fill="#D4B88A" fillOpacity="0.5" stroke="#A08050" strokeWidth="0.8"/>
<polygon points="238.3,25.1 237.5,32.2 254.2,34.0 255.0,26.9" fill="#D4B88A" fillOpacity="0.5" stroke="#A08050" strokeWidth="0.8"/>
<polygon points="257.9,21.2 257.0,32.1 285.7,34.6 283.6,58.2 287.0,58.5 288.9,58.7 291.4,30.7 262.1,28.1 263.5,12.2 258.7,11.9" fill="#D4B88A" fillOpacity="0.5" stroke="#A08050" strokeWidth="0.8"/>
<polygon points="257.4,37.0 256.1,53.5 266.6,54.3 268.0,37.9" fill="#D4B88A" fillOpacity="0.5" stroke="#A08050" strokeWidth="0.8"/>
<polygon points="330.0,65.5 329.7,71.4 342.3,72.1 342.7,66.2" fill="#D4B88A" fillOpacity="0.5" stroke="#A08050" strokeWidth="0.8"/>
<polygon points="307.1,122.1 306.6,139.1 320.1,139.4 320.4,122.2" fill="#D4B88A" fillOpacity="0.5" stroke="#A08050" strokeWidth="0.8"/>
<polygon points="362.3,109.7 311.3,110.9 311.6,121.1 330.4,120.7 330.5,126.4 350.1,125.9 350.2,133.5 354.7,133.5 354.9,142.4 364.9,142.2 364.2,114.1 362.5,114.1" fill="#D4B88A" fillOpacity="0.5" stroke="#A08050" strokeWidth="0.8"/>
<polygon points="325.6,131.1 325.3,144.1 326.7,144.1 326.6,148.7 332.9,148.6 333.0,146.5 348.8,146.9 349.0,136.7 339.8,136.5 339.9,131.2" fill="#D4B88A" fillOpacity="0.5" stroke="#A08050" strokeWidth="0.8"/>
<polygon points="355.1,148.9 344.4,149.1 344.7,158.9 355.4,158.6" fill="#D4B88A" fillOpacity="0.5" stroke="#A08050" strokeWidth="0.8"/>
<polygon points="350.6,170.3 345.6,170.4 345.8,184.3 356.2,184.2 356.1,178.0 354.2,178.0 354.1,173.0 350.6,173.0" fill="#D4B88A" fillOpacity="0.5" stroke="#A08050" strokeWidth="0.8"/>
<polygon points="336.8,327.9 325.6,329.5 329.3,354.9 340.6,353.3" fill="#D4B88A" fillOpacity="0.5" stroke="#A08050" strokeWidth="0.8"/>
<polygon points="346.1,306.3 324.7,308.7 326.7,326.6 337.6,325.4 337.4,322.9 355.3,320.9 354.6,314.7" fill="#D4B88A" fillOpacity="0.5" stroke="#A08050" strokeWidth="0.8"/>
<polygon points="328.6,239.7 323.7,245.7 339.0,266.7 343.6,264.2 345.1,266.7 354.5,259.8" fill="#D4B88A" fillOpacity="0.5" stroke="#A08050" strokeWidth="0.8"/>
<polygon points="290.4,268.6 274.4,276.7 280.5,288.6 286.3,285.6 286.9,285.3 289.4,290.3 293.3,288.4 296.9,286.5 293.5,279.8 295.5,278.7" fill="#D4B88A" fillOpacity="0.5" stroke="#A08050" strokeWidth="0.8"/>
<polygon points="302.0,263.7 292.5,268.6 297.4,278.0 306.9,273.2" fill="#D4B88A" fillOpacity="0.5" stroke="#A08050" strokeWidth="0.8"/>
<polygon points="283.2,251.9 274.0,257.4 282.0,270.8 300.9,259.5 294.0,248.1 284.4,253.9" fill="#D4B88A" fillOpacity="0.5" stroke="#A08050" strokeWidth="0.8"/>
<polygon points="220.5,248.2 208.5,252.3 212.5,263.8 224.4,259.8" fill="#D4B88A" fillOpacity="0.5" stroke="#A08050" strokeWidth="0.8"/>
<polygon points="243.9,260.2 230.4,267.4 236.2,278.2 249.7,271.0" fill="#D4B88A" fillOpacity="0.5" stroke="#A08050" strokeWidth="0.8"/>
<polygon points="226.0,270.5 212.8,278.3 220.9,292.1 234.1,284.3" fill="#D4B88A" fillOpacity="0.5" stroke="#A08050" strokeWidth="0.8"/>
<polygon points="232.3,292.5 219.1,300.1 223.3,307.2 227.1,304.9 228.5,307.4 233.8,304.3 235.3,306.7 239.3,304.4" fill="#D4B88A" fillOpacity="0.5" stroke="#A08050" strokeWidth="0.8"/>
<polygon points="249.0,277.3 237.9,283.6 245.8,297.5 256.9,291.2" fill="#D4B88A" fillOpacity="0.5" stroke="#A08050" strokeWidth="0.8"/>
<polygon points="256.4,315.0 251.5,317.7 255.7,325.1 261.9,321.7 261.1,320.3 267.1,317.0 262.6,308.8 255.3,312.9" fill="#D4B88A" fillOpacity="0.5" stroke="#A08050" strokeWidth="0.8"/>
<polygon points="241.9,308.4 227.9,316.2 231.2,322.1 245.2,314.3" fill="#D4B88A" fillOpacity="0.5" stroke="#A08050" strokeWidth="0.8"/>
<polygon points="247.7,317.0 232.1,325.5 237.6,335.4 251.5,327.7 249.6,324.3 251.2,323.4" fill="#D4B88A" fillOpacity="0.5" stroke="#A08050" strokeWidth="0.8"/>
<polygon points="265.1,333.1 251.0,340.9 258.2,353.7 272.2,345.8" fill="#D4B88A" fillOpacity="0.5" stroke="#A08050" strokeWidth="0.8"/>
<polygon points="273.9,352.7 259.2,361.4 262.7,367.3 266.1,365.2 268.0,367.0 273.0,364.0 274.1,365.8 279.7,362.5" fill="#D4B88A" fillOpacity="0.5" stroke="#A08050" strokeWidth="0.8"/>
<polygon points="286.7,344.4 276.2,351.1 283.0,361.8 293.5,355.1" fill="#D4B88A" fillOpacity="0.5" stroke="#A08050" strokeWidth="0.8"/>
<polygon points="276.7,326.7 268.3,332.2 275.1,342.6 283.5,337.1" fill="#D4B88A" fillOpacity="0.5" stroke="#A08050" strokeWidth="0.8"/>
<polygon points="301.1,312.6 289.2,319.5 294.9,329.3 306.8,322.4" fill="#D4B88A" fillOpacity="0.5" stroke="#A08050" strokeWidth="0.8"/>
<polygon points="318.7,333.6 304.2,334.8 305.9,355.3 320.3,354.1" fill="#D4B88A" fillOpacity="0.5" stroke="#A08050" strokeWidth="0.8"/>
<polygon points="429.3,70.4 428.2,72.5 429.3,74.3 431.1,75.2 438.7,75.1 439.9,75.2 440.6,74.0 445.0,74.5 446.2,73.3 446.1,71.4 439.6,70.8 431.1,70.5" fill="#D4B88A" fillOpacity="0.5" stroke="#A08050" strokeWidth="0.8"/>
<polygon points="377.7,92.6 377.2,149.6 468.9,149.1 467.8,92.5" fill="#D4B88A" fillOpacity="0.5" stroke="#A08050" strokeWidth="0.8"/>
<polygon points="349.6,224.7 339.6,238.5 359.2,252.6 360.2,251.2 363.5,253.6 368.0,252.9 370.3,250.0 364.6,245.6 365.4,244.6 360.1,240.5 361.4,238.9 360.1,232.2" fill="#D4B88A" fillOpacity="0.5" stroke="#A08050" strokeWidth="0.8"/>
<polygon points="400.3,211.2 397.0,224.3 416.0,229.0 419.2,216.0" fill="#D4B88A" fillOpacity="0.5" stroke="#A08050" strokeWidth="0.8"/>
<polygon points="403.7,181.4 402.5,201.6 405.3,201.8 405.0,206.1 417.8,206.8 417.6,209.1 427.3,209.6 429.0,179.3 407.7,178.1 407.5,181.7" fill="#D4B88A" fillOpacity="0.5" stroke="#A08050" strokeWidth="0.8"/>
<polygon points="399.7,243.7 397.1,270.2 424.4,272.9 425.5,261.7 418.9,261.1 420.4,245.8" fill="#D4B88A" fillOpacity="0.5" stroke="#A08050" strokeWidth="0.8"/>
<polygon points="436.0,318.9 429.8,338.3 444.0,342.8 450.2,323.4" fill="#D4B88A" fillOpacity="0.5" stroke="#A08050" strokeWidth="0.8"/>
<polygon points="401.7,306.6 386.5,312.5 391.1,324.1 402.3,319.7 405.1,315.1" fill="#D4B88A" fillOpacity="0.5" stroke="#A08050" strokeWidth="0.8"/>
<polygon points="378.0,253.3 373.2,260.7 383.1,267.2 387.9,259.8" fill="#D4B88A" fillOpacity="0.5" stroke="#A08050" strokeWidth="0.8"/>
<polygon points="586.9,332.7 586.3,345.0 596.8,345.5 599.5,343.7 600.0,333.3" fill="#D4B88A" fillOpacity="0.5" stroke="#A08050" strokeWidth="0.8"/>
<polygon points="587.0,281.8 583.5,281.8 583.6,289.5 594.6,294.0 594.6,282.3 590.5,282.3 590.5,278.5 587.0,278.6" fill="#D4B88A" fillOpacity="0.5" stroke="#A08050" strokeWidth="0.8"/>
<polygon points="580.3,296.3 580.2,307.9 593.9,308.5 597.8,304.4 597.6,299.9" fill="#D4B88A" fillOpacity="0.5" stroke="#A08050" strokeWidth="0.8"/>
<polygon points="563.5,293.1 563.2,307.4 578.7,307.7 579.0,293.5" fill="#D4B88A" fillOpacity="0.5" stroke="#A08050" strokeWidth="0.8"/>
<polygon points="571.3,275.8 571.2,284.3 579.0,284.4 579.2,276.0" fill="#D4B88A" fillOpacity="0.5" stroke="#A08050" strokeWidth="0.8"/>
<polygon points="591.5,253.5 580.5,253.8 581.2,277.4 592.3,277.1" fill="#D4B88A" fillOpacity="0.5" stroke="#A08050" strokeWidth="0.8"/>
<polygon points="558.9,271.9 558.7,284.1 569.7,284.3 569.9,272.0" fill="#D4B88A" fillOpacity="0.5" stroke="#A08050" strokeWidth="0.8"/>
<polygon points="527.2,262.7 506.0,263.4 506.5,279.7 527.6,279.1" fill="#D4B88A" fillOpacity="0.5" stroke="#A08050" strokeWidth="0.8"/>
<polygon points="517.8,282.5 505.0,282.5 505.1,305.9 516.3,305.8 516.3,299.7 528.0,299.7 528.0,305.2 536.1,305.1 536.0,290.5 517.8,290.6" fill="#D4B88A" fillOpacity="0.5" stroke="#A08050" strokeWidth="0.8"/>
<polygon points="561.5,285.8 547.4,285.9 547.4,303.6 549.3,307.1 561.4,307.5" fill="#D4B88A" fillOpacity="0.5" stroke="#A08050" strokeWidth="0.8"/>
<polygon points="529.0,351.7 507.3,332.5 508.4,361.0 524.0,363.9 524.8,356.7" fill="#D4B88A" fillOpacity="0.5" stroke="#A08050" strokeWidth="0.8"/>
<polygon points="505.4,311.3 504.9,320.3 512.6,327.6 514.5,318.5 517.9,319.0 518.5,311.8" fill="#D4B88A" fillOpacity="0.5" stroke="#A08050" strokeWidth="0.8"/>
<polygon points="462.2,340.3 461.6,345.7 477.6,347.5 478.2,342.1" fill="#D4B88A" fillOpacity="0.5" stroke="#A08050" strokeWidth="0.8"/>
<polygon points="451.1,324.0 447.0,341.6 455.4,343.5 457.3,335.0 474.5,338.9 476.6,329.8" fill="#D4B88A" fillOpacity="0.5" stroke="#A08050" strokeWidth="0.8"/>
<polygon points="442.9,300.9 438.2,317.4 470.6,326.7 475.3,310.2" fill="#D4B88A" fillOpacity="0.5" stroke="#A08050" strokeWidth="0.8"/>
<polygon points="459.6,288.8 457.3,295.7 473.0,301.0 475.4,294.1" fill="#D4B88A" fillOpacity="0.5" stroke="#A08050" strokeWidth="0.8"/>
<polygon points="460.3,274.6 456.7,284.8 475.5,291.1 477.2,283.2" fill="#D4B88A" fillOpacity="0.5" stroke="#A08050" strokeWidth="0.8"/>
<polygon points="475.9,263.3 465.6,273.4 475.9,279.6" fill="#D4B88A" fillOpacity="0.5" stroke="#A08050" strokeWidth="0.8"/>
<polygon points="456.0,245.4 455.0,258.9 474.2,260.3 475.2,246.8" fill="#D4B88A" fillOpacity="0.5" stroke="#A08050" strokeWidth="0.8"/>
<polygon points="474.9,218.4 450.5,216.3 451.3,240.0 475.7,244.8" fill="#D4B88A" fillOpacity="0.5" stroke="#A08050" strokeWidth="0.8"/>
<polygon points="469.3,189.9 461.6,198.6 465.3,200.9 469.3,202.3 473.8,202.3 473.8,190.3" fill="#D4B88A" fillOpacity="0.5" stroke="#A08050" strokeWidth="0.8"/>
<polygon points="520.6,206.0 504.0,206.1 504.1,218.6 517.3,218.5 517.2,213.8 520.7,213.7" fill="#D4B88A" fillOpacity="0.5" stroke="#A08050" strokeWidth="0.8"/>
<polygon points="521.3,225.6 505.5,225.9 505.8,244.5 510.8,244.4 510.7,241.4 521.6,241.2" fill="#D4B88A" fillOpacity="0.5" stroke="#A08050" strokeWidth="0.8"/>
<polygon points="525.6,218.8 525.3,231.0 537.0,231.3 537.3,219.0" fill="#D4B88A" fillOpacity="0.5" stroke="#A08050" strokeWidth="0.8"/>
<polygon points="531.2,237.3 524.3,237.3 524.4,250.5 539.3,250.4 539.3,241.8 531.2,241.9" fill="#D4B88A" fillOpacity="0.5" stroke="#A08050" strokeWidth="0.8"/>
<polygon points="551.6,233.5 544.1,233.5 544.1,253.9 552.5,253.9 552.5,243.3 558.1,243.3 558.0,236.6 551.6,236.6" fill="#D4B88A" fillOpacity="0.5" stroke="#A08050" strokeWidth="0.8"/>
<polygon points="561.7,245.7 560.0,251.1 576.9,254.4 579.7,244.1 569.3,244.0" fill="#D4B88A" fillOpacity="0.5" stroke="#A08050" strokeWidth="0.8"/>
<polygon points="568.6,208.6 547.8,208.9 548.0,227.6 561.9,227.4 561.9,223.6 568.8,223.5" fill="#D4B88A" fillOpacity="0.5" stroke="#A08050" strokeWidth="0.8"/>
<polygon points="524.4,191.2 524.3,199.5 535.8,199.7 535.9,191.4" fill="#D4B88A" fillOpacity="0.5" stroke="#A08050" strokeWidth="0.8"/>
<polygon points="538.4,206.8 525.6,206.8 525.6,214.8 538.5,214.8" fill="#D4B88A" fillOpacity="0.5" stroke="#A08050" strokeWidth="0.8"/>
<polygon points="523.7,193.1 503.8,193.7 504.0,200.3 523.9,199.7" fill="#D4B88A" fillOpacity="0.5" stroke="#A08050" strokeWidth="0.8"/>
<polygon points="511.5,183.4 511.4,188.5 522.2,188.6 522.3,183.6" fill="#D4B88A" fillOpacity="0.5" stroke="#A08050" strokeWidth="0.8"/>
<polygon points="505.5,164.9 505.2,179.5 522.6,180.0 522.9,169.1 519.2,169.0 519.3,165.3" fill="#D4B88A" fillOpacity="0.5" stroke="#A08050" strokeWidth="0.8"/>
<polygon points="558.9,171.6 543.8,171.7 543.9,184.8 552.3,184.7 552.3,178.3 558.9,178.3" fill="#D4B88A" fillOpacity="0.5" stroke="#A08050" strokeWidth="0.8"/>
<polygon points="559.9,159.1 559.2,165.0 567.8,165.9 568.4,159.9" fill="#D4B88A" fillOpacity="0.5" stroke="#A08050" strokeWidth="0.8"/>
<polygon points="506.0,147.5 505.9,154.3 507.8,154.4 507.8,158.4 517.8,158.5 517.9,147.7" fill="#D4B88A" fillOpacity="0.5" stroke="#A08050" strokeWidth="0.8"/>
<polygon points="472.9,154.2 441.0,155.0 441.2,162.3 473.1,161.5" fill="#D4B88A" fillOpacity="0.5" stroke="#A08050" strokeWidth="0.8"/>
<polygon points="503.0,107.2 502.9,124.2 519.9,124.3 520.1,107.3" fill="#D4B88A" fillOpacity="0.5" stroke="#A08050" strokeWidth="0.8"/>
<polygon points="530.6,41.3 513.1,41.6 513.4,56.9 530.9,56.6" fill="#D4B88A" fillOpacity="0.5" stroke="#A08050" strokeWidth="0.8"/>
<polygon points="578.3,29.6 560.7,30.0 561.1,48.2 578.8,47.8" fill="#D4B88A" fillOpacity="0.5" stroke="#A08050" strokeWidth="0.8"/>
<polygon points="579.9,71.7 560.4,72.6 561.0,85.3 580.5,84.4" fill="#D4B88A" fillOpacity="0.5" stroke="#A08050" strokeWidth="0.8"/>
<polygon points="556.5,81.6 543.6,82.0 544.1,97.1 557.0,96.7" fill="#D4B88A" fillOpacity="0.5" stroke="#A08050" strokeWidth="0.8"/>
<polygon points="508.3,69.2 508.0,96.3 536.6,96.6 536.9,67.2 518.9,67.1 518.9,69.3" fill="#D4B88A" fillOpacity="0.5" stroke="#A08050" strokeWidth="0.8"/>
<polygon points="520.4,128.0 514.7,128.1 514.7,138.5 520.4,138.5" fill="#D4B88A" fillOpacity="0.5" stroke="#A08050" strokeWidth="0.8"/>
<polygon points="543.6,125.9 542.9,135.3 561.5,136.7 562.2,127.3" fill="#D4B88A" fillOpacity="0.5" stroke="#A08050" strokeWidth="0.8"/>
<polygon points="544.2,106.7 543.8,123.5 584.0,124.3 584.3,107.5" fill="#D4B88A" fillOpacity="0.5" stroke="#A08050" strokeWidth="0.8"/>
<polygon points="565.5,125.2 565.4,132.2 584.1,132.5 584.2,125.5" fill="#D4B88A" fillOpacity="0.5" stroke="#A08050" strokeWidth="0.8"/>
<polygon points="600.0,106.6 590.0,107.1 591.0,128.7 600.0,128.2" fill="#D4B88A" fillOpacity="0.5" stroke="#A08050" strokeWidth="0.8"/>
<polygon points="600.0,90.0 589.0,90.2 589.2,97.0 600.0,96.7" fill="#D4B88A" fillOpacity="0.5" stroke="#A08050" strokeWidth="0.8"/>
<polygon points="598.3,62.7 586.5,64.0 588.0,78.7 599.9,77.5" fill="#D4B88A" fillOpacity="0.5" stroke="#A08050" strokeWidth="0.8"/>
<polygon points="600.0,28.9 585.7,29.0 585.8,43.6 600.0,43.5" fill="#D4B88A" fillOpacity="0.5" stroke="#A08050" strokeWidth="0.8"/>
<polygon points="600.0,132.9 592.3,133.5 593.3,147.7 600.0,147.2" fill="#D4B88A" fillOpacity="0.5" stroke="#A08050" strokeWidth="0.8"/>
<polygon points="584.2,133.9 562.5,134.9 563.5,155.7 574.3,155.2 574.4,157.7 585.3,157.1" fill="#D4B88A" fillOpacity="0.5" stroke="#A08050" strokeWidth="0.8"/>
<polygon points="587.9,160.1 571.8,160.3 571.9,167.6 578.4,167.5 578.4,165.1 588.0,165.0" fill="#D4B88A" fillOpacity="0.5" stroke="#A08050" strokeWidth="0.8"/>
<polygon points="600.0,152.2 594.8,152.5 595.4,162.4 600.0,162.1" fill="#D4B88A" fillOpacity="0.5" stroke="#A08050" strokeWidth="0.8"/>
<polygon points="587.5,173.8 560.4,174.0 560.5,185.4 587.6,185.2" fill="#D4B88A" fillOpacity="0.5" stroke="#A08050" strokeWidth="0.8"/>
<polygon points="600.0,184.3 597.9,184.4 598.3,193.8 600.0,195.7" fill="#D4B88A" fillOpacity="0.5" stroke="#A08050" strokeWidth="0.8"/>
<polygon points="600.0,164.2 595.1,164.4 595.8,176.5 600.0,176.3" fill="#D4B88A" fillOpacity="0.5" stroke="#A08050" strokeWidth="0.8"/>
<polygon points="600.0,210.0 599.2,210.0 599.8,239.0 600.0,239.0" fill="#D4B88A" fillOpacity="0.5" stroke="#A08050" strokeWidth="0.8"/>
<polygon points="575.3,209.1 575.2,216.4 591.0,216.5 591.1,209.2" fill="#D4B88A" fillOpacity="0.5" stroke="#A08050" strokeWidth="0.8"/>
<polygon points="589.1,218.5 572.6,218.8 572.8,232.8 589.3,232.6" fill="#D4B88A" fillOpacity="0.5" stroke="#A08050" strokeWidth="0.8"/>
<polygon points="582.9,241.7 581.0,252.7 592.5,252.9 588.7,242.1" fill="#D4B88A" fillOpacity="0.5" stroke="#A08050" strokeWidth="0.8"/>
<polygon points="574.1,0.0 571.1,0.0 571.1,0.1" fill="#D4B88A" fillOpacity="0.5" stroke="#A08050" strokeWidth="0.8"/>
<polygon points="382.9,473.3 382.1,481.7 390.2,482.4 390.9,474.0" fill="#D4B88A" fillOpacity="0.5" stroke="#A08050" strokeWidth="0.8"/>
<polygon points="365.1,439.8 362.5,443.5 373.1,457.5 378.6,447.7" fill="#D4B88A" fillOpacity="0.5" stroke="#A08050" strokeWidth="0.8"/>
<polygon points="388.7,437.7 378.3,439.0 378.4,443.2 383.3,442.9 387.3,447.4 390.3,446.8 391.6,445.8 391.3,439.8" fill="#D4B88A" fillOpacity="0.5" stroke="#A08050" strokeWidth="0.8"/>
<polygon points="378.6,427.5 378.1,434.5 390.0,433.4 391.4,426.9" fill="#D4B88A" fillOpacity="0.5" stroke="#A08050" strokeWidth="0.8"/>
<polygon points="364.6,426.7 355.5,429.9 357.3,435.2 361.2,437.3 370.5,435.9 374.2,435.5 377.2,432.6 377.5,427.9" fill="#D4B88A" fillOpacity="0.5" stroke="#A08050" strokeWidth="0.8"/>
<polygon points="362.0,415.9 352.3,419.1 355.5,428.5 365.1,425.4" fill="#D4B88A" fillOpacity="0.5" stroke="#A08050" strokeWidth="0.8"/>
<polygon points="353.9,407.2 347.7,409.5 350.9,418.6 357.2,416.3" fill="#D4B88A" fillOpacity="0.5" stroke="#A08050" strokeWidth="0.8"/>
<polygon points="363.2,405.9 355.5,406.8 356.2,412.9 364.0,412.0" fill="#D4B88A" fillOpacity="0.5" stroke="#A08050" strokeWidth="0.8"/>
<polygon points="364.0,384.4 342.2,392.5 346.5,404.2 368.4,396.1" fill="#D4B88A" fillOpacity="0.5" stroke="#A08050" strokeWidth="0.8"/>
<polygon points="387.3,381.5 368.1,384.9 370.2,396.5 389.4,393.1" fill="#D4B88A" fillOpacity="0.5" stroke="#A08050" strokeWidth="0.8"/>
<polygon points="391.5,398.3 379.1,399.8 380.5,410.9 392.9,409.3" fill="#D4B88A" fillOpacity="0.5" stroke="#A08050" strokeWidth="0.8"/>
<polygon points="378.8,400.2 365.4,401.5 366.6,411.9 379.7,410.4" fill="#D4B88A" fillOpacity="0.5" stroke="#A08050" strokeWidth="0.8"/>
<polygon points="379.0,414.5 366.0,415.0 366.4,423.7 379.3,423.2" fill="#D4B88A" fillOpacity="0.5" stroke="#A08050" strokeWidth="0.8"/>
<polygon points="391.7,413.3 379.5,414.1 380.1,422.6 392.3,421.7" fill="#D4B88A" fillOpacity="0.5" stroke="#A08050" strokeWidth="0.8"/>
<polygon points="413.6,406.8 400.9,407.2 401.3,423.0 414.1,422.6" fill="#D4B88A" fillOpacity="0.5" stroke="#A08050" strokeWidth="0.8"/>
<polygon points="420.4,380.8 419.9,390.1 458.6,392.4 459.5,378.7 429.4,376.9 429.1,381.3" fill="#D4B88A" fillOpacity="0.5" stroke="#A08050" strokeWidth="0.8"/>
<polygon points="431.0,407.7 431.0,416.9 435.4,416.9 435.4,420.7 459.0,420.8 459.0,398.3 437.0,398.2 437.0,407.7" fill="#D4B88A" fillOpacity="0.5" stroke="#A08050" strokeWidth="0.8"/>
<polygon points="448.1,431.1 442.3,432.0 443.4,438.8 449.2,437.9" fill="#D4B88A" fillOpacity="0.5" stroke="#A08050" strokeWidth="0.8"/>
<polygon points="440.2,432.5 432.8,434.1 434.4,441.5 441.7,440.0" fill="#D4B88A" fillOpacity="0.5" stroke="#A08050" strokeWidth="0.8"/>
<polygon points="449.3,443.1 437.9,444.3 439.3,457.1 445.0,461.1 451.2,460.5" fill="#D4B88A" fillOpacity="0.5" stroke="#A08050" strokeWidth="0.8"/>
<polygon points="430.4,448.2 417.1,449.5 418.6,464.1 431.8,462.7" fill="#D4B88A" fillOpacity="0.5" stroke="#A08050" strokeWidth="0.8"/>
<polygon points="428.6,434.1 414.4,435.8 415.5,445.2 429.7,443.5" fill="#D4B88A" fillOpacity="0.5" stroke="#A08050" strokeWidth="0.8"/>
<polygon points="409.2,436.3 397.9,437.7 399.0,446.6 410.3,445.2" fill="#D4B88A" fillOpacity="0.5" stroke="#A08050" strokeWidth="0.8"/>
<polygon points="411.9,449.8 400.1,451.7 402.8,468.4 414.6,466.5" fill="#D4B88A" fillOpacity="0.5" stroke="#A08050" strokeWidth="0.8"/>
<polygon points="389.5,467.5 389.2,473.4 392.5,473.5 392.1,481.0 400.3,481.4 401.0,468.1" fill="#D4B88A" fillOpacity="0.5" stroke="#A08050" strokeWidth="0.8"/>
<polygon points="449.8,473.2 439.2,473.6 439.6,482.2 442.7,482.1 443.1,491.1 450.4,490.8" fill="#D4B88A" fillOpacity="0.5" stroke="#A08050" strokeWidth="0.8"/>
<polygon points="430.2,467.7 401.8,470.9 408.1,526.2 436.6,523.0 436.0,517.7 446.7,516.5 446.2,512.0 455.3,511.0 453.0,490.7 433.1,492.9" fill="#D4B88A" fillOpacity="0.5" stroke="#A08050" strokeWidth="0.8"/>
<polygon points="439.6,532.3 439.2,543.8 442.8,543.9 448.6,532.5" fill="#D4B88A" fillOpacity="0.5" stroke="#A08050" strokeWidth="0.8"/>
<polygon points="428.3,533.1 427.3,559.4 435.9,559.7 436.8,533.3" fill="#D4B88A" fillOpacity="0.5" stroke="#A08050" strokeWidth="0.8"/>
<polygon points="391.7,502.7 391.4,514.9 399.8,515.1 400.1,502.9" fill="#D4B88A" fillOpacity="0.5" stroke="#A08050" strokeWidth="0.8"/>
<polygon points="382.2,484.1 381.2,496.8 389.1,497.4 390.1,484.7" fill="#D4B88A" fillOpacity="0.5" stroke="#A08050" strokeWidth="0.8"/>
<polygon points="379.8,501.3 379.4,513.9 389.8,514.3 390.2,501.6" fill="#D4B88A" fillOpacity="0.5" stroke="#A08050" strokeWidth="0.8"/>
<polygon points="377.9,517.3 377.7,526.7 388.4,526.9 388.5,517.5" fill="#D4B88A" fillOpacity="0.5" stroke="#A08050" strokeWidth="0.8"/>
<polygon points="378.2,543.7 378.0,560.6 388.1,560.7 388.3,543.8" fill="#D4B88A" fillOpacity="0.5" stroke="#A08050" strokeWidth="0.8"/>
<polygon points="349.3,556.1 348.8,557.6 348.8,559.1 349.3,560.5 350.3,561.7 351.6,562.5 353.1,562.8 354.6,562.6 355.9,562.0 357.0,561.0 357.6,559.7 357.9,558.2 357.6,556.8 356.9,555.5 355.8,554.5 354.5,553.9 353.0,553.7 351.5,554.1 350.2,554.9" fill="#D4B88A" fillOpacity="0.5" stroke="#A08050" strokeWidth="0.8"/>
<polygon points="389.7,545.5 389.2,561.1 403.5,561.5 404.0,546.0" fill="#D4B88A" fillOpacity="0.5" stroke="#A08050" strokeWidth="0.8"/>
<polygon points="407.1,539.1 405.3,561.9 414.1,562.5 415.8,539.8" fill="#D4B88A" fillOpacity="0.5" stroke="#A08050" strokeWidth="0.8"/>
<polygon points="417.9,535.9 416.0,557.0 423.2,557.6 425.1,536.5" fill="#D4B88A" fillOpacity="0.5" stroke="#A08050" strokeWidth="0.8"/>
<polygon points="599.2,515.7 598.8,524.5 600.0,524.6 600.0,515.7" fill="#D4B88A" fillOpacity="0.5" stroke="#A08050" strokeWidth="0.8"/>
<polygon points="569.2,529.2 569.0,533.6 587.9,534.5 588.4,523.6 583.2,523.3 583.5,518.4 573.5,518.0 572.9,529.3" fill="#D4B88A" fillOpacity="0.5" stroke="#A08050" strokeWidth="0.8"/>
<polygon points="569.9,539.2 569.6,555.8 588.6,556.2 588.9,539.6" fill="#D4B88A" fillOpacity="0.5" stroke="#A08050" strokeWidth="0.8"/>
<polygon points="597.4,530.2 597.0,556.9 600.0,557.2 600.0,530.3" fill="#D4B88A" fillOpacity="0.5" stroke="#A08050" strokeWidth="0.8"/>
<polygon points="465.3,551.9 465.3,557.2 467.7,557.2 467.7,551.9" fill="#D4B88A" fillOpacity="0.5" stroke="#A08050" strokeWidth="0.8"/>
<polygon points="465.3,551.9 465.3,557.2 467.7,557.2 480.8,557.2 480.8,551.9 467.7,551.9" fill="#D4B88A" fillOpacity="0.5" stroke="#A08050" strokeWidth="0.8"/>
<polygon points="465.3,557.2 465.3,565.9 473.0,566.0 477.4,566.0 480.8,566.0 480.8,551.9 467.7,551.9 465.3,551.9" fill="#D4B88A" fillOpacity="0.5" stroke="#A08050" strokeWidth="0.8"/>
<polygon points="480.8,557.2 480.8,566.0 487.8,559.1 480.8,551.9" fill="#D4B88A" fillOpacity="0.5" stroke="#A08050" strokeWidth="0.8"/>
<polygon points="511.1,552.1 480.8,551.9 487.8,559.1 504.0,559.1" fill="#D4B88A" fillOpacity="0.5" stroke="#A08050" strokeWidth="0.8"/>
<polygon points="487.8,559.1 480.8,566.0 492.8,566.1 499.5,566.1 511.1,566.2 504.0,559.1" fill="#D4B88A" fillOpacity="0.5" stroke="#A08050" strokeWidth="0.8"/>
<polygon points="480.8,551.9 480.8,566.0 511.1,566.2 511.1,557.4 511.1,552.1 499.3,552.0 495.1,552.0 492.6,551.9" fill="#D4B88A" fillOpacity="0.5" stroke="#A08050" strokeWidth="0.8"/>
<polygon points="502.2,586.0 498.6,589.5 502.1,593.1 502.1,591.7 502.2,586.6" fill="#D4B88A" fillOpacity="0.5" stroke="#A08050" strokeWidth="0.8"/>
<polygon points="490.5,591.6 490.5,593.0 494.1,589.4 490.6,585.9 490.6,586.5" fill="#D4B88A" fillOpacity="0.5" stroke="#A08050" strokeWidth="0.8"/>
<polygon points="494.1,589.4 490.5,593.0 492.8,593.0 499.5,593.1 502.1,593.1 498.6,589.5" fill="#D4B88A" fillOpacity="0.5" stroke="#A08050" strokeWidth="0.8"/>
<polygon points="490.5,591.6 490.5,593.0 492.8,593.0 499.5,593.1 502.1,593.1 502.1,591.7 502.2,586.6 502.2,586.0 499.5,586.0 492.9,585.9 490.6,585.9 490.6,586.5" fill="#D4B88A" fillOpacity="0.5" stroke="#A08050" strokeWidth="0.8"/>
<polygon points="473.0,566.0 473.0,570.7 473.8,575.9 475.7,580.3 478.1,584.0 481.8,587.8 486.5,590.7 490.5,591.6 490.6,586.5 487.2,585.5 483.9,583.2 481.8,580.9 479.5,578.0 478.0,574.3 477.3,570.5 477.4,566.0" fill="#D4B88A" fillOpacity="0.5" stroke="#A08050" strokeWidth="0.8"/>
<polygon points="502.2,586.6 502.1,591.7 504.5,591.3 509.0,588.9 512.4,586.1 514.9,582.6 517.3,577.5 518.0,573.5 518.4,569.6 518.4,566.1 514.1,566.2 514.2,569.4 513.8,573.1 513.2,576.7 511.4,580.4 509.5,582.6 507.2,584.5 504.2,586.3" fill="#D4B88A" fillOpacity="0.5" stroke="#A08050" strokeWidth="0.8"/>
<polygon points="562.7,547.9 550.2,551.9 551.7,556.1 562.7,555.6" fill="#D4B88A" fillOpacity="0.5" stroke="#A08050" strokeWidth="0.8"/>
<polygon points="526.6,552.1 524.3,552.1 524.3,557.4 526.6,557.4" fill="#D4B88A" fillOpacity="0.5" stroke="#A08050" strokeWidth="0.8"/>
<polygon points="511.1,552.1 504.0,559.1 511.1,566.2 511.1,557.4" fill="#D4B88A" fillOpacity="0.5" stroke="#A08050" strokeWidth="0.8"/>
<polygon points="511.1,557.4 511.1,566.2 514.1,566.2 518.4,566.1 526.6,566.1 526.6,557.4 526.6,552.1 524.3,552.1 511.1,552.1" fill="#D4B88A" fillOpacity="0.5" stroke="#A08050" strokeWidth="0.8"/>
<polygon points="511.1,552.1 511.1,557.4 524.3,557.4 526.6,557.4 526.6,552.1 524.3,552.1" fill="#D4B88A" fillOpacity="0.5" stroke="#A08050" strokeWidth="0.8"/>
<polygon points="530.5,515.4 525.7,520.5 534.5,528.7 539.3,523.6" fill="#D4B88A" fillOpacity="0.5" stroke="#A08050" strokeWidth="0.8"/>
<polygon points="553.6,539.5 544.9,543.0 547.4,549.2 556.1,545.8" fill="#D4B88A" fillOpacity="0.5" stroke="#A08050" strokeWidth="0.8"/>
<polygon points="555.0,511.1 543.2,517.4 555.9,541.0 567.8,534.7" fill="#D4B88A" fillOpacity="0.5" stroke="#A08050" strokeWidth="0.8"/>
<polygon points="541.4,525.5 536.1,528.9 544.4,541.7 549.7,538.3" fill="#D4B88A" fillOpacity="0.5" stroke="#A08050" strokeWidth="0.8"/>
<polygon points="527.9,509.9 514.0,511.2 523.0,518.4 528.5,513.1" fill="#D4B88A" fillOpacity="0.5" stroke="#A08050" strokeWidth="0.8"/>
<polygon points="516.7,491.0 506.6,490.5 506.9,498.7 510.2,504.1 525.9,504.1 531.9,491.0" fill="#D4B88A" fillOpacity="0.5" stroke="#A08050" strokeWidth="0.8"/>
<polygon points="463.5,479.1 463.0,519.1 467.9,519.2 475.4,505.7 475.7,481.6 470.5,481.6 470.6,479.2" fill="#D4B88A" fillOpacity="0.5" stroke="#A08050" strokeWidth="0.8"/>
<polygon points="458.9,469.1 458.5,475.6 476.8,476.7 477.2,470.3" fill="#D4B88A" fillOpacity="0.5" stroke="#A08050" strokeWidth="0.8"/>
<polygon points="478.1,426.4 465.2,427.1 465.5,433.1 478.5,432.4" fill="#D4B88A" fillOpacity="0.5" stroke="#A08050" strokeWidth="0.8"/>
<polygon points="478.7,433.7 464.9,433.8 464.9,440.9 478.7,440.8" fill="#D4B88A" fillOpacity="0.5" stroke="#A08050" strokeWidth="0.8"/>
<polygon points="471.7,442.3 471.6,450.9 478.6,450.9 478.7,442.3" fill="#D4B88A" fillOpacity="0.5" stroke="#A08050" strokeWidth="0.8"/>
<polygon points="456.3,446.0 455.7,458.6 460.0,458.8 459.6,466.0 477.7,467.0 478.3,454.8 468.8,454.3 469.2,446.7" fill="#D4B88A" fillOpacity="0.5" stroke="#A08050" strokeWidth="0.8"/>
<polygon points="461.5,428.6 449.9,429.5 450.7,441.0 462.3,440.1" fill="#D4B88A" fillOpacity="0.5" stroke="#A08050" strokeWidth="0.8"/>
<polygon points="509.4,402.7 509.2,415.0 528.1,415.3 528.4,398.3 521.9,398.2 521.8,402.9" fill="#D4B88A" fillOpacity="0.5" stroke="#A08050" strokeWidth="0.8"/>
<polygon points="507.0,369.3 506.7,395.3 527.6,395.5 527.7,386.9 519.3,386.8 519.5,369.4" fill="#D4B88A" fillOpacity="0.5" stroke="#A08050" strokeWidth="0.8"/>
<polygon points="542.0,372.7 539.9,388.9 550.2,390.2 552.4,374.1" fill="#D4B88A" fillOpacity="0.5" stroke="#A08050" strokeWidth="0.8"/>
<polygon points="533.5,394.2 531.8,418.1 536.6,418.4 536.3,422.1 550.1,423.1 552.1,395.6" fill="#D4B88A" fillOpacity="0.5" stroke="#A08050" strokeWidth="0.8"/>
<polygon points="538.4,427.7 538.0,449.7 559.7,450.1 566.5,442.0 565.5,433.9 557.7,428.0" fill="#D4B88A" fillOpacity="0.5" stroke="#A08050" strokeWidth="0.8"/>
<polygon points="522.1,419.7 507.4,420.2 508.3,446.4 523.0,445.9" fill="#D4B88A" fillOpacity="0.5" stroke="#A08050" strokeWidth="0.8"/>
<polygon points="507.3,455.3 507.2,469.7 519.0,469.8 519.0,472.6 531.7,472.7 531.8,455.4" fill="#D4B88A" fillOpacity="0.5" stroke="#A08050" strokeWidth="0.8"/>
<polygon points="506.9,470.9 506.7,489.4 535.3,489.7 535.4,480.4 526.1,480.3 526.1,475.6 517.1,475.5 517.2,471.0" fill="#D4B88A" fillOpacity="0.5" stroke="#A08050" strokeWidth="0.8"/>
<polygon points="553.2,471.7 545.6,498.4 553.1,506.9 561.5,507.3 561.8,500.3 568.5,500.6 570.4,461.0 566.6,456.6 556.7,456.7 556.8,471.7" fill="#D4B88A" fillOpacity="0.5" stroke="#A08050" strokeWidth="0.8"/>
<polygon points="576.7,459.6 575.3,490.7 592.7,491.5 594.1,460.3" fill="#D4B88A" fillOpacity="0.5" stroke="#A08050" strokeWidth="0.8"/>
<polygon points="570.7,439.8 570.4,448.3 590.8,448.6 591.6,438.6 585.2,433.3 577.8,433.9" fill="#D4B88A" fillOpacity="0.5" stroke="#A08050" strokeWidth="0.8"/>
<polygon points="574.9,389.4 565.9,409.5 572.8,414.5 574.4,413.2 582.3,418.4 594.0,411.5 594.3,400.8" fill="#D4B88A" fillOpacity="0.5" stroke="#A08050" strokeWidth="0.8"/>
<polygon points="447.9,356.8 446.2,372.5 459.0,373.9 460.6,358.1" fill="#D4B88A" fillOpacity="0.5" stroke="#A08050" strokeWidth="0.8"/>
<line x1="0.0" y1="0" x2="0.0" y2="635" stroke="red" strokeWidth="0.3" opacity="0.3"/>
<text x="2.0" y="12" fontSize="8" fill="red" opacity="0.5">0m</text>
<line x1="57.89940942602386" y1="0" x2="57.89940942602386" y2="635" stroke="red" strokeWidth="0.3" opacity="0.3"/>
<text x="59.89940942602386" y="12" fontSize="8" fill="red" opacity="0.5">50m</text>
<line x1="115.79881885204772" y1="0" x2="115.79881885204772" y2="635" stroke="red" strokeWidth="0.3" opacity="0.3"/>
<text x="117.79881885204772" y="12" fontSize="8" fill="red" opacity="0.5">100m</text>
<line x1="173.69822827807158" y1="0" x2="173.69822827807158" y2="635" stroke="red" strokeWidth="0.3" opacity="0.3"/>
<text x="175.69822827807158" y="12" fontSize="8" fill="red" opacity="0.5">150m</text>
<line x1="231.59763770409543" y1="0" x2="231.59763770409543" y2="635" stroke="red" strokeWidth="0.3" opacity="0.3"/>
<text x="233.59763770409543" y="12" fontSize="8" fill="red" opacity="0.5">200m</text>
<line x1="289.49704713011926" y1="0" x2="289.49704713011926" y2="635" stroke="red" strokeWidth="0.3" opacity="0.3"/>
<text x="291.49704713011926" y="12" fontSize="8" fill="red" opacity="0.5">250m</text>
<line x1="347.39645655614316" y1="0" x2="347.39645655614316" y2="635" stroke="red" strokeWidth="0.3" opacity="0.3"/>
<text x="349.39645655614316" y="12" fontSize="8" fill="red" opacity="0.5">300m</text>
<line x1="405.295865982167" y1="0" x2="405.295865982167" y2="635" stroke="red" strokeWidth="0.3" opacity="0.3"/>
<text x="407.295865982167" y="12" fontSize="8" fill="red" opacity="0.5">350m</text>
<line x1="463.19527540819087" y1="0" x2="463.19527540819087" y2="635" stroke="red" strokeWidth="0.3" opacity="0.3"/>
<text x="465.19527540819087" y="12" fontSize="8" fill="red" opacity="0.5">400m</text>
<line x1="521.0946848342147" y1="0" x2="521.0946848342147" y2="635" stroke="red" strokeWidth="0.3" opacity="0.3"/>
<text x="523.0946848342147" y="12" fontSize="8" fill="red" opacity="0.5">450m</text>
<line x1="578.9940942602385" y1="0" x2="578.9940942602385" y2="635" stroke="red" strokeWidth="0.3" opacity="0.3"/>
<text x="580.9940942602385" y="12" fontSize="8" fill="red" opacity="0.5">500m</text>
<line x1="0" y1="635.0" x2="600" y2="635.0" stroke="blue" strokeWidth="0.3" opacity="0.3"/>
<text x="2" y="633.0" fontSize="8" fill="blue" opacity="0.5">0m</text>
<line x1="0" y1="576.9773391812865" x2="600" y2="576.9773391812865" stroke="blue" strokeWidth="0.3" opacity="0.3"/>
<text x="2" y="574.9773391812865" fontSize="8" fill="blue" opacity="0.5">50m</text>
<line x1="0" y1="518.9546783625731" x2="600" y2="518.9546783625731" stroke="blue" strokeWidth="0.3" opacity="0.3"/>
<text x="2" y="516.9546783625731" fontSize="8" fill="blue" opacity="0.5">100m</text>
<line x1="0" y1="460.9320175438597" x2="600" y2="460.9320175438597" stroke="blue" strokeWidth="0.3" opacity="0.3"/>
<text x="2" y="458.9320175438597" fontSize="8" fill="blue" opacity="0.5">150m</text>
<line x1="0" y1="402.9093567251462" x2="600" y2="402.9093567251462" stroke="blue" strokeWidth="0.3" opacity="0.3"/>
<text x="2" y="400.9093567251462" fontSize="8" fill="blue" opacity="0.5">200m</text>
<line x1="0" y1="344.88669590643275" x2="600" y2="344.88669590643275" stroke="blue" strokeWidth="0.3" opacity="0.3"/>
<text x="2" y="342.88669590643275" fontSize="8" fill="blue" opacity="0.5">250m</text>
<line x1="0" y1="286.86403508771934" x2="600" y2="286.86403508771934" stroke="blue" strokeWidth="0.3" opacity="0.3"/>
<text x="2" y="284.86403508771934" fontSize="8" fill="blue" opacity="0.5">300m</text>
<line x1="0" y1="228.84137426900588" x2="600" y2="228.84137426900588" stroke="blue" strokeWidth="0.3" opacity="0.3"/>
<text x="2" y="226.84137426900588" fontSize="8" fill="blue" opacity="0.5">350m</text>
<line x1="0" y1="170.81871345029245" x2="600" y2="170.81871345029245" stroke="blue" strokeWidth="0.3" opacity="0.3"/>
<text x="2" y="168.81871345029245" fontSize="8" fill="blue" opacity="0.5">400m</text>
<line x1="0" y1="112.79605263157899" x2="600" y2="112.79605263157899" stroke="blue" strokeWidth="0.3" opacity="0.3"/>
<text x="2" y="110.79605263157899" fontSize="8" fill="blue" opacity="0.5">450m</text>
<line x1="0" y1="54.77339181286555" x2="600" y2="54.77339181286555" stroke="blue" strokeWidth="0.3" opacity="0.3"/>
<text x="2" y="52.77339181286555" fontSize="8" fill="blue" opacity="0.5">500m</text>
</svg>