<svg xmlns="http://www.w3.org/2000/svg" width="720" height="1000" viewBox="0 0 720 1000">
<style>
  text { font-family: sans-serif; }
</style>
<!-- background -->
<rect width="720" height="1000" fill="#F5EDE0"/>

<!-- vegetation -->
<g fill="#B8CC98" fill-opacity="0.7" stroke="#7AA060" stroke-width="0.8">
  <polygon points="-0.0,428.4 -0.0,451.6 9.6,449.6 5.4,427.6 -0.0,428.4"/>
  <polygon points="-0.0,405.2 -0.0,426.0 5.3,425.2 -0.0,405.2"/>
  <polygon points="-0.0,524.8 -0.0,1000.0 195.9,1000.0 200.4,952.1 193.7,910.5 193.2,898.4 191.5,890.3 160.3,860.0 150.7,848.4 140.8,835.5 134.3,813.9 130.1,777.6 119.7,733.6 96.8,691.7 104.8,677.8 125.1,692.8 145.7,714.6 151.0,729.1 142.2,763.1 150.4,788.1 153.4,809.4 158.8,832.9 164.5,843.5 196.8,871.3 209.7,893.4 218.9,896.2 230.7,902.2 270.2,902.0 270.5,897.6 267.4,889.3 249.6,882.8 228.8,875.7 213.0,831.0 204.5,824.7 189.3,819.5 176.8,816.6 157.1,802.6 155.0,774.8 162.9,735.9 162.5,716.9 163.3,706.0 168.5,692.7 157.1,684.6 154.3,669.8 141.8,636.9 126.4,614.3 96.6,550.9 83.4,524.0 79.7,511.4 80.3,497.7 83.3,485.3 82.0,463.8 68.1,455.9 61.1,419.6 63.9,385.2 97.1,381.8 128.7,343.8 163.3,316.6 210.1,305.3 207.4,288.3 205.3,275.7 198.8,266.4 189.9,248.4 187.5,230.5 180.0,203.9 176.1,194.2 176.8,176.0 170.0,124.7 157.3,112.6 145.4,105.4 131.6,101.5 116.4,100.2 100.6,92.8 92.2,83.5 88.7,52.6 91.1,23.6 90.7,9.7 90.3,-0.4 -0.0,-0.4 -0.0,271.0 15.2,281.3 30.6,310.3 33.4,339.5 35.5,354.7 32.0,369.3 10.9,363.1 7.4,391.7 14.9,422.7 24.1,468.0 31.7,511.1 15.3,521.7 -0.0,524.8"/>
  <polygon points="-0.0,492.8 -0.0,522.6 15.7,519.4 20.6,514.7 16.0,489.5 -0.0,492.8"/>
  <polygon points="208.6,957.8 207.2,971.9 217.8,974.0 226.1,971.3 230.4,963.4 239.5,964.1 246.5,961.4 246.3,953.9 246.2,947.2 241.6,938.3 235.9,930.5 226.8,925.2 219.7,923.5 215.4,930.0 213.6,939.7 208.6,957.8"/>
  <polygon points="296.7,915.4 286.9,926.0 292.9,932.3 302.3,935.1 311.6,940.5 318.7,946.1 340.7,943.8 356.8,944.3 370.4,943.6 376.2,944.1 387.6,941.8 390.5,935.0 392.3,929.6 392.6,926.0 389.6,916.4 333.3,916.2 306.1,916.3 306.0,927.5 297.1,927.8 296.7,915.4"/>
  <polygon points="556.4,870.1 554.0,888.1 556.2,906.1 562.9,922.1 573.2,934.3 586.0,941.3 591.6,941.7 599.9,942.3 613.3,937.2 624.1,927.3 632.0,913.3 636.1,896.9 636.0,879.6 631.7,863.2 623.7,849.4 612.7,839.6 600.0,834.9 599.3,834.9 591.3,835.4 586.8,835.7 573.8,842.4 563.3,854.3 556.4,870.1"/>
  <polygon points="600.0,834.9 599.3,834.9 599.4,869.2 632.1,869.4 632.0,891.4 622.2,891.5 622.2,896.9 621.7,903.2 620.9,909.4 618.1,917.4 615.0,923.0 611.0,927.4 605.5,931.2 602.7,931.8 602.7,934.0 599.5,934.0 599.6,942.3 599.9,942.3 613.3,937.2 624.1,927.3 632.0,913.3 636.1,896.9 636.0,879.6 631.7,863.2 623.7,849.4 612.7,839.6 600.0,834.9"/>
  <polygon points="389.8,727.3 371.7,733.7 377.8,777.5 394.2,782.6 392.1,797.8 444.6,810.4 446.1,748.5 425.8,703.0 389.0,711.2 389.8,727.3"/>
  <polygon points="282.6,917.0 219.7,923.5 226.8,925.2 235.9,930.5 241.6,938.3 246.2,947.2 246.3,953.9 255.4,953.1 262.5,943.6 311.6,940.5 302.3,935.1 292.9,932.3 286.9,926.0 296.7,915.4 282.6,917.0"/>
  <polygon points="290.2,810.6 277.9,815.9 289.9,871.6 343.1,867.6 344.7,841.1 337.4,839.6 338.8,815.3 295.5,832.3 290.2,810.6"/>
  <polygon points="289.9,871.6 277.2,878.0 281.2,886.2 289.4,891.0 300.1,897.5 313.2,899.4 328.7,901.0 381.4,898.9 419.3,893.6 440.1,890.8 435.3,871.0 409.2,862.6 343.1,867.6 289.9,871.6"/>
  <polygon points="411.2,909.9 409.6,920.1 427.4,970.7 447.2,966.2 440.1,905.4 411.2,909.9"/>
  <polygon points="339.3,637.7 301.0,651.6 312.2,713.6 352.3,706.7 339.3,637.7"/>
  <polygon points="556.4,870.1 554.0,888.1 556.2,906.1 562.9,922.1 573.2,934.3 586.0,941.3 591.6,941.7 591.5,933.9 588.8,933.9 588.8,931.6 584.0,930.2 578.3,925.6 573.9,919.6 571.0,913.8 568.7,906.9 567.7,898.7 567.8,891.2 558.5,891.2 558.5,869.2 591.3,869.2 591.3,835.4 586.8,835.7 573.8,842.4 563.3,854.3 556.4,870.1"/>
  <polygon points="334.4,425.8 313.0,438.8 317.5,450.1 313.5,455.9 335.1,500.1 362.4,479.4 364.6,475.6 367.2,471.0 363.4,458.2 372.4,454.8 369.3,434.0 357.5,442.0 348.2,420.5 336.4,429.5 334.4,425.8"/>
  <polygon points="372.1,455.8 364.5,458.6 368.0,470.6 371.6,467.7 373.3,462.9 372.1,455.8"/>
  <polygon points="393.4,-0.4 383.8,-0.4 383.8,5.7 383.8,8.3 386.7,8.5 390.0,8.4 393.5,6.5 393.7,2.7 393.4,-0.4"/>
  <polygon points="373.6,-0.4 373.6,3.3 375.0,5.2 378.3,7.7 379.4,7.5 380.0,2.3 379.9,-0.4 373.6,-0.4"/>
  <polygon points="368.4,78.6 367.9,82.7 368.4,85.9 369.4,86.4 373.2,87.3 376.4,86.3 377.1,78.3 380.1,61.7 385.4,48.1 390.1,37.7 390.9,28.1 391.1,26.9 386.8,28.7 382.5,28.7 382.5,31.4 381.8,34.1 380.2,36.5 378.3,38.9 375.2,44.1 373.4,47.3 372.5,50.7 370.5,60.1 369.4,70.1 368.4,78.6"/>
  <polygon points="361.0,78.8 360.7,82.4 361.9,84.7 363.1,85.6 363.9,83.6 364.6,78.7 365.1,72.1 365.7,66.9 366.2,61.5 367.0,57.0 367.8,52.3 369.2,47.3 370.1,43.9 371.9,39.8 374.4,35.8 376.7,33.1 377.7,31.5 377.9,27.9 375.4,27.3 372.5,27.5 370.2,28.8 366.8,46.6 361.0,78.8"/>
  <polygon points="367.3,100.8 366.9,108.3 374.4,108.5 375.6,94.3 373.3,93.9 370.2,93.3 367.3,92.9 367.0,96.7 367.3,100.8"/>
  <polygon points="359.5,107.8 359.5,113.2 360.4,125.8 361.8,132.5 363.6,136.2 365.4,137.8 367.7,137.6 370.9,136.8 372.5,133.8 373.1,127.1 373.9,119.0 374.4,108.5 366.9,108.3 364.8,108.0 362.5,107.8 359.5,107.8"/>
  <polygon points="359.7,95.3 359.5,107.8 362.5,107.8 362.5,102.4 362.8,99.0 363.0,96.1 362.7,92.5 361.5,92.6 359.7,94.1 359.7,95.3"/>
</g>

<!-- road surfaces -->
<g fill="#DDD0B8" stroke="none">
  <polygon points="-0.0,960.4 -0.0,964.0 0.3,964.1 23.0,957.4 39.3,952.6 74.8,947.3 74.8,947.3 90.8,944.3 112.6,941.0 130.9,938.1 131.0,938.0 147.5,933.9 147.5,933.9 162.1,929.3 162.3,929.3 177.0,922.6 186.4,924.0 186.7,924.0 197.7,921.5 200.8,921.3 198.4,973.5 197.1,999.8 197.1,1000.0 201.2,1000.0 202.5,973.8 205.0,921.1 206.8,921.0 208.3,920.9 208.4,920.8 236.3,915.9 287.8,909.0 289.1,909.8 299.4,909.9 299.6,915.1 299.9,923.3 300.3,924.5 301.3,925.0 302.3,924.4 302.7,923.1 302.4,914.9 302.2,909.9 335.2,910.2 335.3,910.2 390.9,908.9 391.2,908.8 441.8,897.8 447.8,967.9 426.6,973.4 415.0,943.7 414.7,943.4 414.5,943.0 414.1,942.8 413.7,942.4 413.4,942.4 413.0,942.3 342.0,946.3 340.5,947.1 340.0,949.1 340.7,951.0 342.2,951.7 411.9,947.8 422.7,975.4 403.0,990.1 402.8,990.2 395.0,997.8 394.2,999.6 394.3,1000.0 399.8,1000.0 405.2,994.7 426.2,979.1 448.3,973.4 451.5,1000.0 455.6,1000.0 455.7,999.6 452.1,969.8 446.0,897.5 520.4,902.7 520.8,902.7 527.4,901.4 527.5,901.8 527.7,904.5 527.8,904.9 530.7,916.8 530.8,917.0 539.2,938.0 539.3,938.2 548.6,955.7 548.9,956.1 562.6,970.7 571.2,984.7 574.1,995.9 574.5,1000.0 577.3,1000.0 577.3,999.8 576.8,995.3 576.8,994.9 573.7,983.2 573.5,982.7 564.7,968.3 564.5,968.0 550.8,953.4 541.6,936.2 533.3,915.5 530.5,903.9 530.2,901.4 530.2,901.0 539.4,900.5 543.9,922.1 544.3,923.1 555.0,943.2 555.6,943.9 570.8,958.1 571.5,958.6 587.7,964.6 587.3,999.9 587.3,1000.0 592.1,1000.0 592.5,965.3 603.8,965.0 604.4,964.9 617.6,960.1 618.2,959.8 629.0,951.7 631.3,954.0 619.9,963.8 619.7,964.0 608.4,977.9 608.1,978.4 601.8,995.3 601.7,996.0 601.5,999.9 601.6,1000.0 604.3,1000.0 604.4,996.5 610.5,980.3 621.5,966.8 633.7,956.3 640.7,963.3 641.9,963.8 706.4,967.4 704.7,999.8 704.7,1000.0 708.8,1000.0 710.5,967.8 720.0,968.8 720.2,968.7 720.2,963.3 710.8,962.3 714.6,893.5 720.2,893.3 720.2,886.9 720.2,886.9 714.9,887.1 720.2,738.5 720.2,665.9 718.9,666.5 718.1,668.4 717.1,684.3 717.1,684.5 717.0,709.4 682.0,710.3 684.8,691.7 705.9,665.2 720.2,652.4 720.2,646.5 719.0,646.8 703.4,660.8 703.1,661.1 681.4,688.4 680.8,689.8 677.7,710.5 606.1,712.4 606.1,687.6 606.1,687.5 604.4,606.4 604.2,575.3 652.3,585.7 652.5,585.8 667.1,586.8 719.1,627.1 720.2,627.3 720.2,621.6 668.7,581.8 658.2,573.6 657.6,507.3 676.6,525.2 676.7,525.3 710.8,553.1 712.0,553.5 720.2,553.1 720.2,547.7 720.1,547.6 712.5,548.0 679.0,520.7 657.1,500.0 653.5,492.7 720.2,494.8 720.2,494.8 720.2,489.3 651.6,487.1 650.5,409.0 667.3,403.8 668.7,402.4 677.6,379.0 681.8,374.0 697.4,373.3 709.3,375.1 714.8,384.1 718.1,418.0 718.9,419.9 720.2,420.3 720.2,396.1 719.2,385.4 720.2,385.3 720.2,379.9 720.0,379.8 718.8,380.0 717.0,322.0 720.2,322.1 720.2,322.1 720.2,316.6 716.8,316.6 707.4,163.8 720.2,162.6 720.2,157.2 720.1,157.1 707.1,158.3 701.7,27.6 720.2,26.9 720.2,20.6 720.1,20.5 703.3,21.1 711.9,1.0 712.0,-0.4 707.7,-0.4 698.4,21.3 648.5,23.2 624.0,23.2 624.8,10.6 625.1,6.1 624.7,4.8 624.7,4.8 623.7,4.2 610.7,3.4 608.5,-0.4 605.4,-0.4 605.6,0.7 608.8,6.3 609.9,7.0 622.2,7.8 622.1,10.3 621.2,23.2 584.1,25.8 582.2,-0.4 577.4,-0.4 577.4,-0.1 579.5,29.4 580.8,64.5 566.7,64.8 566.3,64.7 565.8,27.9 565.8,27.8 564.2,4.7 564.0,-0.4 558.6,-0.4 558.6,-0.3 558.7,3.2 558.7,3.4 559.4,9.5 559.7,25.0 548.6,24.3 548.6,24.3 513.9,23.5 513.3,-0.4 510.6,-0.4 510.5,-0.3 511.1,23.4 500.2,22.3 500.1,22.3 465.6,22.1 465.7,-0.4 465.7,-0.4 462.9,-0.4 462.8,22.0 443.8,21.3 422.0,20.5 422.0,-0.4 422.0,-0.4 419.2,-0.4 419.2,20.5 401.2,20.3 393.3,19.7 394.8,6.7 395.2,3.8 395.2,3.3 395.1,2.5 394.8,-0.4 392.1,-0.4 392.1,-0.1 392.4,2.9 392.4,3.5 392.1,6.2 390.5,19.5 375.9,18.6 373.0,18.4 375.0,3.6 375.0,3.3 375.0,-0.3 375.0,-0.4 372.3,-0.4 372.2,3.1 370.2,18.3 367.6,18.1 367.2,10.4 367.2,-0.4 364.4,-0.4 364.4,-0.4 364.4,10.4 364.4,10.5 364.8,17.8 363.6,17.6 364.1,9.2 364.1,9.1 364.2,2.1 364.2,-0.3 364.2,-0.4 361.4,-0.4 361.4,2.0 361.3,9.0 360.8,16.9 325.7,4.7 325.6,4.3 324.2,3.3 306.6,0.5 305.1,1.1 305.0,1.2 290.5,-0.4 272.7,-0.4 272.9,0.8 273.9,1.5 304.7,4.9 304.7,4.9 306.1,6.0 323.7,8.7 325.0,8.3 360.5,20.6 360.1,22.8 359.0,30.4 357.6,38.2 355.0,46.1 354.8,46.6 354.1,56.1 351.4,80.5 348.2,91.9 348.2,92.4 347.8,99.8 347.8,99.9 348.0,125.4 348.0,125.5 348.6,137.8 347.4,143.7 347.4,144.1 347.3,144.4 347.4,144.7 347.5,145.1 347.7,145.3 347.8,145.6 348.1,145.7 348.3,145.9 348.6,145.9 348.9,146.0 354.9,145.0 358.4,157.3 317.6,165.6 317.3,165.7 291.3,176.3 291.2,176.3 290.6,177.0 290.0,177.6 290.0,177.8 290.0,178.8 289.9,179.7 289.9,179.9 297.5,207.0 291.7,209.4 208.7,242.2 208.5,242.4 208.3,242.4 199.5,249.0 198.9,249.7 196.7,253.2 192.3,256.9 192.0,257.3 186.8,264.3 181.3,268.4 176.6,266.8 169.6,260.0 169.2,259.7 162.2,255.8 161.5,255.6 155.2,254.9 154.5,255.0 144.9,258.0 144.1,258.6 140.5,262.6 140.1,263.1 136.9,269.0 136.5,270.3 135.6,279.5 135.6,279.9 135.8,287.7 133.8,295.2 130.7,301.7 125.4,310.3 118.4,312.1 112.8,311.2 107.0,306.7 97.0,296.8 96.2,296.4 86.7,293.3 85.5,293.4 76.9,297.8 76.3,298.4 73.8,301.6 73.1,303.2 72.3,312.4 72.3,312.8 72.4,326.2 72.7,327.6 78.1,339.6 81.2,350.9 81.0,359.3 77.5,366.5 68.6,374.9 60.5,374.8 54.8,372.7 50.7,365.9 47.9,348.8 42.4,317.7 42.3,317.4 36.4,296.2 36.3,295.9 25.7,269.0 25.4,268.5 17.8,256.3 17.8,256.2 13.0,249.1 12.6,248.7 4.7,241.4 1.9,233.9 0.7,232.6 -0.0,232.6 -0.0,241.3 1.2,244.5 1.9,245.5 10.0,253.0 14.7,259.8 22.1,271.7 32.6,298.3 38.3,319.1 43.8,350.0 46.7,367.7 47.1,368.8 51.9,376.8 53.0,377.7 59.7,380.2 60.2,380.3 68.3,380.3 78.7,435.2 79.1,436.2 79.9,436.6 87.3,437.6 101.3,446.3 111.5,468.6 112.6,487.1 110.5,505.1 106.9,518.9 98.6,518.7 97.1,519.4 96.4,521.2 95.8,531.6 96.3,533.6 97.7,534.5 99.3,533.9 100.0,532.0 100.4,524.2 107.5,524.4 113.2,525.8 113.2,525.9 114.0,525.6 114.7,525.4 114.8,525.4 122.6,517.9 122.8,517.5 123.1,517.3 127.5,508.7 144.3,553.8 164.6,611.0 164.6,611.1 180.6,653.6 189.0,680.9 186.3,682.0 185.1,683.3 184.9,685.3 207.0,795.8 207.5,796.6 207.9,797.4 208.0,797.4 208.7,797.6 209.5,797.8 233.4,790.4 244.7,826.8 244.7,826.9 259.2,868.3 259.5,868.9 274.2,890.9 274.3,891.0 285.2,905.7 236.0,912.2 235.9,912.3 209.2,917.0 205.1,897.4 205.0,897.1 198.8,880.8 198.3,880.1 174.4,859.2 158.8,843.8 150.2,822.9 144.9,808.4 143.3,790.5 143.2,790.3 137.2,758.3 137.2,758.0 128.2,727.2 128.1,727.0 117.0,700.7 116.9,700.3 96.9,672.0 76.9,639.8 67.3,623.6 49.6,589.3 36.6,552.9 33.4,535.6 15.5,438.1 8.5,396.5 13.9,355.1 13.9,354.6 7.0,293.5 7.0,293.5 1.4,253.1 0.8,251.9 -0.0,251.7 -0.0,263.5 4.3,294.1 10.9,353.3 9.4,353.5 2.1,301.0 1.2,299.3 -0.0,299.0 -0.0,316.6 5.2,353.9 4.2,354.0 -0.0,354.2 -0.0,357.9 0.1,357.9 2.8,357.7 0.9,398.1 1.0,398.6 6.0,428.0 12.7,468.4 9.6,469.1 9.6,469.1 8.1,468.6 1.2,469.8 -0.0,470.7 -0.0,474.9 0.5,474.9 0.7,474.8 1.8,475.2 8.6,474.0 10.0,472.9 10.1,472.7 13.3,471.9 13.9,475.6 20.4,511.8 24.7,536.1 2.1,541.9 -0.0,542.4 -0.0,546.0 0.2,546.1 2.6,545.5 26.6,539.4 28.3,538.9 31.7,555.8 31.8,556.3 45.0,592.7 45.2,593.1 63.3,628.7 63.4,628.9 77.9,652.4 94.4,678.8 94.5,678.9 112.6,704.6 123.3,729.9 131.5,760.3 137.3,791.6 139.1,809.8 139.3,810.4 143.9,826.5 144.1,827.0 154.8,847.9 155.2,848.5 171.2,864.9 171.4,865.1 195.0,884.3 200.6,899.0 201.2,914.8 201.0,917.7 197.5,917.9 197.4,918.0 197.3,917.9 186.5,920.3 177.0,919.0 176.4,919.0 161.4,925.8 146.9,930.3 130.5,934.4 112.3,937.4 90.5,940.7 90.5,940.7 74.4,943.6 38.9,949.0 38.8,949.0 22.4,953.8 -0.0,960.4"/>
  <polygon points="7.9,379.1 9.6,357.1 10.8,356.9 7.9,379.1"/>
  <polygon points="25.7,525.9 27.6,535.4 27.4,535.4 25.7,525.9"/>
  <polygon points="71.0,379.3 80.3,370.6 80.8,369.9 84.9,361.7 85.0,361.2 89.8,358.6 90.0,358.4 94.4,354.6 99.5,351.0 107.2,348.8 116.6,348.7 135.3,349.2 136.3,348.7 142.0,341.4 144.1,364.3 140.0,388.7 140.3,390.7 140.8,391.8 131.0,387.0 130.3,386.8 108.0,386.2 106.6,387.0 105.9,388.9 106.5,390.9 107.9,391.7 129.9,392.3 145.0,399.7 169.6,418.0 189.4,446.3 186.0,453.1 185.7,454.7 185.9,463.3 186.2,464.5 190.9,476.2 165.1,490.2 144.9,490.4 144.1,490.6 127.0,500.8 126.9,500.8 126.6,501.4 126.1,501.7 119.8,513.8 113.1,520.2 109.8,519.4 113.1,506.1 113.2,505.9 115.4,487.5 115.4,487.0 114.3,467.9 114.1,467.1 103.5,444.0 102.9,443.3 88.3,434.1 87.8,433.9 81.1,433.1 71.0,379.3"/>
  <polygon points="76.4,312.9 77.2,304.8 78.9,302.7 86.4,298.9 94.8,301.6 104.6,311.2 104.8,311.4 111.0,316.2 111.8,316.5 118.2,317.6 118.8,317.6 127.0,315.5 128.2,314.6 134.0,305.0 134.2,304.7 137.4,297.9 137.6,297.3 139.9,289.1 140.0,288.1 139.8,280.0 140.6,271.6 143.4,266.6 146.4,263.1 155.2,260.4 160.9,261.0 167.3,264.6 174.4,271.5 175.1,272.0 181.1,274.0 182.7,273.7 189.1,268.8 189.5,268.4 194.8,261.3 199.2,257.6 199.7,257.0 201.9,253.6 208.1,248.9 214.1,274.1 219.6,301.2 220.6,302.9 222.2,303.1 309.4,271.6 310.7,270.3 310.8,268.1 302.1,237.1 302.1,237.0 295.1,213.8 300.9,211.3 302.1,209.9 302.2,207.8 294.6,180.7 318.3,171.0 358.5,162.8 359.9,267.8 338.4,270.1 338.1,270.1 315.1,276.3 314.6,276.5 286.2,293.9 269.1,304.6 236.6,314.6 221.5,314.9 221.2,314.9 166.7,326.1 155.1,326.6 154.3,326.9 142.8,334.3 142.5,334.7 142.1,335.0 142.0,335.5 141.7,335.8 141.7,336.5 141.7,336.7 134.8,345.5 116.7,345.0 116.6,345.0 107.0,345.1 106.7,345.2 98.7,347.4 98.4,347.6 93.1,351.4 93.0,351.5 88.6,355.2 85.2,357.1 85.3,350.5 85.2,349.5 81.9,337.5 81.7,337.1 76.5,325.4 76.4,312.9"/>
  <polygon points="130.6,504.6 145.4,495.8 164.2,495.7 202.5,604.0 225.6,669.1 193.1,679.4 184.4,651.5 184.4,651.3 168.4,608.7 148.0,551.5 148.0,551.4 130.6,504.6"/>
  <polygon points="144.3,388.8 148.3,365.1 148.3,364.1 145.9,338.3 155.7,332.1 166.9,331.6 167.2,331.6 219.9,320.7 228.6,364.6 209.2,366.5 208.3,366.9 186.9,382.1 170.6,388.9 146.9,394.2 144.3,388.8"/>
  <polygon points="152.0,398.6 171.5,394.3 171.7,394.2 188.4,387.3 188.8,387.1 209.9,372.0 231.0,369.8 236.2,371.7 241.7,392.0 226.3,401.5 225.7,401.9 212.9,417.2 192.2,442.1 172.4,414.0 171.9,413.4 152.0,398.6"/>
  <polygon points="168.3,494.4 194.6,480.1 210.5,471.5 245.2,571.7 205.4,599.1 168.3,494.4"/>
  <polygon points="189.4,686.5 192.3,685.3 229.0,673.7 229.2,673.6 394.4,603.2 397.9,613.7 423.4,689.7 363.8,669.9 356.4,666.9 348.0,635.5 347.0,634.0 345.4,633.9 344.2,635.3 344.1,637.4 352.8,670.0 354.2,671.7 362.6,675.1 362.7,675.2 425.7,696.1 446.7,746.2 444.2,831.6 441.7,859.9 441.6,860.2 441.6,892.2 390.6,903.4 335.3,904.7 300.7,904.4 290.0,904.3 277.3,887.2 262.9,865.6 248.5,824.7 236.6,786.2 235.6,784.8 234.2,784.6 210.5,791.8 189.4,686.5"/>
  <polygon points="189.9,455.4 193.7,447.8 215.7,421.2 228.3,406.3 245.1,395.9 268.6,384.7 313.1,383.6 287.0,405.5 214.5,463.4 210.8,465.4 194.8,474.1 190.1,462.5 189.9,455.4"/>
  <polygon points="205.2,917.4 205.3,914.9 205.3,914.8 205.3,914.6 205.2,911.6 206.4,917.3 205.2,917.4"/>
  <polygon points="207.1,604.0 248.9,575.4 249.9,573.8 249.8,571.8 214.4,469.4 216.2,468.4 216.5,468.2 289.2,410.2 289.3,410.2 321.5,383.0 360.9,349.9 376.9,472.4 369.1,478.1 365.4,474.2 359.5,468.3 353.3,453.1 352.4,452.2 351.4,452.3 350.7,453.4 350.8,454.8 357.2,470.4 357.6,471.0 363.7,477.1 366.5,480.0 364.6,481.4 290.4,535.2 289.4,536.9 289.6,539.0 315.4,595.5 316.7,596.8 318.2,596.5 319.2,594.8 319.0,592.7 294.3,538.6 366.6,486.2 370.5,483.3 377.6,478.2 393.2,598.0 229.6,667.7 207.1,604.0"/>
  <polygon points="211.9,246.6 291.1,215.4 297.4,236.3 217.4,269.9 211.9,246.6"/>
  <polygon points="218.6,275.2 298.9,241.4 306.1,267.1 223.1,297.1 218.6,275.2"/>
  <polygon points="224.2,320.3 236.9,320.1 237.3,320.0 270.3,309.9 270.7,309.7 288.0,298.9 316.2,281.6 338.8,275.5 359.7,273.3 358.3,291.8 358.2,292.1 358.5,324.6 358.5,324.9 360.2,343.9 319.8,378.0 268.1,379.2 267.4,379.4 245.6,389.9 239.7,368.5 238.3,366.7 232.9,364.8 224.2,320.3"/>
  <polygon points="350.6,99.9 350.9,92.9 353.1,84.8 352.9,88.0 352.5,92.7 352.5,92.9 352.0,118.5 352.1,118.8 353.6,131.5 353.5,139.8 353.6,140.1 353.6,140.5 353.9,141.5 350.6,142.0 351.4,138.4 351.4,137.8 350.8,125.3 350.6,99.9"/>
  <polygon points="354.8,118.4 355.2,93.1 355.5,90.1 358.7,90.3 358.4,93.9 358.3,95.1 358.3,95.2 358.1,113.1 358.1,113.3 359.1,126.0 359.1,126.2 360.4,133.0 360.6,133.5 362.6,137.4 356.3,137.9 356.4,131.4 356.3,131.3 356.4,131.1 354.8,118.4"/>
  <polygon points="355.8,86.5 357.6,65.4 362.9,40.2 366.9,28.3 367.0,27.8 367.5,21.8 369.7,21.9 368.8,28.4 365.4,46.2 359.7,78.4 359.6,78.6 359.3,82.2 359.0,86.7 355.8,86.5"/>
  <polygon points="357.0,54.8 357.6,47.3 360.1,39.7 357.0,54.8"/>
  <polygon points="357.7,144.5 365.8,143.2 366.7,142.3 366.9,140.8 366.8,140.5 375.4,138.2 375.7,145.9 361.0,156.2 357.7,144.5"/>
  <polygon points="360.4,38.7 361.8,31.2 361.8,31.1 362.8,23.5 363.2,21.2 364.8,21.5 364.3,27.1 360.4,38.7"/>
  <polygon points="360.9,113.1 361.0,95.4 361.1,94.3 361.4,90.5 362.5,90.5 368.0,91.5 374.4,92.5 374.3,94.1 373.1,108.3 373.0,108.4 372.5,118.9 372.6,119.1 372.6,119.4 372.8,119.7 372.9,120.2 373.0,120.3 373.1,120.5 373.5,120.6 373.8,120.8 374.0,120.7 374.2,120.8 377.2,120.0 375.5,134.4 365.7,137.1 364.8,135.2 363.0,131.8 361.8,125.5 360.9,113.1"/>
  <polygon points="361.7,86.8 362.4,79.1 368.1,47.0 371.5,29.2 371.6,29.1 372.5,22.1 375.8,22.3 390.1,23.1 389.7,26.6 389.5,27.9 388.8,37.1 384.2,47.2 384.2,47.3 378.9,60.8 378.8,61.2 375.8,77.8 375.7,78.0 375.0,86.1 374.7,88.9 368.4,87.9 362.8,86.9 362.7,86.9 361.7,86.8"/>
  <polygon points="362.4,292.2 364.1,270.6 364.1,270.3 362.7,161.3 378.1,150.4 391.0,141.6 409.1,136.6 442.0,136.8 446.6,136.9 447.5,262.7 447.9,264.3 478.6,316.0 477.2,331.7 469.2,376.7 447.3,392.0 446.5,393.0 439.9,406.9 438.0,404.5 437.8,404.3 376.4,344.5 375.4,344.0 364.3,342.8 362.7,324.4 362.4,292.2"/>
  <polygon points="365.0,348.4 374.4,349.4 435.2,408.6 438.8,413.2 453.4,431.5 454.0,432.0 526.3,472.0 526.6,472.1 573.8,488.6 574.2,509.0 575.1,550.5 542.2,548.2 541.0,544.3 539.8,542.8 511.7,528.8 511.0,528.7 475.8,526.9 474.3,527.6 473.7,529.7 474.5,585.0 448.2,587.6 447.7,587.8 411.8,603.1 411.6,603.1 400.9,609.0 397.6,599.1 381.3,473.4 365.0,348.4"/>
  <polygon points="375.4,116.7 375.8,108.7 377.0,94.5 377.3,91.1 377.7,86.6 378.5,78.6 381.4,62.3 386.6,49.0 391.3,38.6 391.5,37.9 392.3,28.4 392.4,27.2 392.9,23.3 399.3,23.8 377.4,116.2 375.4,116.7"/>
  <polygon points="378.1,136.1 379.8,121.5 397.5,117.7 412.2,119.1 412.6,119.1 423.9,116.5 441.1,117.3 440.8,128.4 440.7,131.4 408.9,131.1 408.4,131.1 389.8,136.3 389.3,136.6 378.4,144.0 378.1,136.1"/>
  <polygon points="380.5,115.4 402.2,23.9 420.6,24.1 443.7,25.0 464.2,25.7 464.2,25.7 500.1,26.0 512.5,27.1 512.6,27.1 547.2,27.9 547.5,120.5 541.4,117.6 541.2,117.5 535.8,116.5 535.5,116.5 532.6,116.8 524.7,117.6 513.6,118.2 496.2,118.9 476.5,118.4 459.5,114.0 459.4,114.0 445.8,111.1 445.6,111.1 430.7,110.9 424.2,110.5 423.9,110.6 415.5,113.1 406.5,112.4 395.8,112.0 395.6,112.0 389.3,113.3 380.5,115.4"/>
  <polygon points="402.5,614.0 413.1,608.2 448.8,593.1 474.7,590.5 477.5,681.4 428.3,690.7 427.9,689.4 402.5,614.0"/>
  <polygon points="430.3,695.8 480.0,686.5 577.4,668.1 579.6,743.9 580.0,765.5 578.5,785.7 575.1,799.6 571.0,807.8 560.7,820.1 549.5,830.1 540.4,824.8 539.4,824.6 488.4,829.9 448.5,829.1 450.9,745.7 450.6,744.2 430.3,695.8"/>
  <polygon points="443.0,410.8 449.7,396.5 472.0,381.0 473.1,379.2 481.3,332.8 481.3,332.5 482.8,315.5 482.4,313.5 451.6,261.7 450.8,136.9 533.0,137.6 547.7,137.7 547.8,140.2 547.8,142.3 548.1,142.9 548.2,143.5 548.3,143.6 548.8,143.8 549.2,144.1 559.6,144.1 561.1,144.9 562.7,146.6 563.8,149.1 564.9,152.4 565.7,156.0 566.2,159.7 573.7,482.9 527.8,466.8 456.0,427.1 443.0,410.8"/>
  <polygon points="443.5,131.4 443.6,128.5 443.9,117.5 446.7,117.6 472.3,123.9 472.5,123.9 490.5,124.4 490.6,124.4 501.6,124.0 510.4,123.7 526.7,123.0 533.4,122.8 540.2,122.6 547.5,127.7 547.5,128.6 547.6,132.2 533.0,132.1 448.7,131.4 443.5,131.4"/>
  <polygon points="445.7,892.0 445.8,860.4 448.2,834.6 488.4,835.3 488.6,835.3 539.2,830.1 546.2,834.1 542.9,838.7 542.6,839.2 536.5,856.4 529.5,874.4 529.4,874.9 526.6,892.1 526.6,892.7 526.8,895.0 526.9,895.9 520.4,897.2 445.7,892.0"/>
  <polygon points="477.9,532.4 510.5,534.1 537.5,547.5 538.8,551.9 539.5,553.1 540.6,553.6 575.2,556.0 577.3,662.6 481.7,680.6 478.7,587.4 477.9,532.4"/>
  <polygon points="529.4,892.5 532.1,875.9 538.9,858.1 539.0,858.0 545.1,841.0 548.9,835.7 554.7,839.1 548.5,848.7 548.2,849.3 542.5,863.9 542.3,864.6 539.2,880.5 539.1,881.2 538.9,895.1 529.7,895.6 529.6,894.5 529.4,892.5"/>
  <polygon points="543.8,897.3 544.0,881.7 546.9,866.5 552.4,852.6 560.1,840.7 575.2,827.8 592.8,822.4 608.5,824.3 623.1,832.3 635.2,845.7 643.7,863.2 647.9,883.1 646.7,906.7 639.6,928.3 627.3,945.6 616.0,954.1 603.4,958.6 590.4,959.0 573.2,952.6 558.7,939.0 548.5,919.9 543.8,897.3"/>
  <polygon points="550.0,28.0 559.8,28.6 560.3,41.1 560.8,66.5 560.8,72.5 561.3,111.5 558.8,116.2 554.5,119.6 550.3,120.8 550.0,28.0"/>
  <polygon points="550.3,124.7 550.3,124.5 555.3,123.1 555.8,122.9 560.4,119.2 560.9,118.6 563.8,113.1 564.1,112.1 563.6,72.4 563.6,68.3 563.6,68.3 564.8,112.0 561.9,118.0 556.3,123.6 553.0,124.6 550.3,124.7"/>
  <polygon points="550.3,128.4 553.2,128.3 553.5,128.2 557.2,127.1 557.7,126.7 563.8,120.7 563.9,120.4 564.1,120.2 567.3,113.4 567.5,112.4 566.4,68.4 566.7,68.4 580.9,68.2 583.4,132.5 550.4,132.3 550.3,128.5 550.3,128.4"/>
  <polygon points="550.5,137.8 583.6,138.0 584.3,157.8 587.2,322.0 589.1,487.5 576.5,483.8 569.0,159.5 568.9,159.2 568.4,155.3 568.4,155.0 567.5,151.3 567.5,151.1 566.4,147.5 566.3,147.3 564.9,144.4 564.7,144.2 564.6,144.0 562.7,141.8 562.3,141.5 560.3,140.6 559.8,140.5 550.5,140.4 550.5,140.1 550.5,137.8"/>
  <polygon points="552.6,831.8 562.4,823.1 562.5,822.9 573.0,810.3 573.2,810.0 577.5,801.4 577.7,800.9 581.2,786.7 581.2,786.3 582.7,765.8 582.7,765.6 582.4,745.7 584.3,745.7 590.8,745.7 590.2,816.6 573.7,821.7 573.0,822.1 557.9,834.9 552.6,831.8"/>
  <polygon points="562.4,18.8 562.9,25.6 562.5,25.4 562.4,18.8"/>
  <polygon points="562.6,29.3 563.1,29.4 563.5,64.6 563.5,64.6 563.1,41.0 562.6,29.3"/>
  <polygon points="576.6,489.4 589.2,493.1 589.3,506.9 580.2,507.0 576.9,507.1 576.6,489.4"/>
  <polygon points="577.0,510.8 580.3,510.7 589.3,510.5 589.6,551.5 577.9,550.7 577.0,510.8"/>
  <polygon points="578.0,556.2 589.6,556.9 589.7,570.0 589.8,659.3 580.1,661.9 578.0,556.2"/>
  <polygon points="580.2,667.5 589.9,664.8 591.0,715.5 590.8,742.0 584.3,742.0 582.3,742.0 580.2,667.5"/>
  <polygon points="584.5,32.2 621.0,29.7 620.8,38.5 620.7,41.1 604.2,64.8 598.4,65.0 585.7,64.5 584.5,32.2"/>
  <polygon points="585.8,68.2 598.4,68.6 598.4,68.6 603.4,68.5 600.1,155.5 589.1,155.0 588.3,135.2 585.8,68.2"/>
  <polygon points="589.3,160.5 600.0,161.0 597.7,275.5 597.7,275.6 599.0,318.7 592.0,319.0 589.3,160.5"/>
  <polygon points="592.1,324.5 599.2,324.2 599.7,333.1 598.3,448.6 598.3,448.7 599.4,485.3 594.0,487.3 592.1,324.5"/>
  <polygon points="594.1,498.1 599.7,505.5 599.8,506.8 594.1,506.8 594.1,498.1"/>
  <polygon points="594.2,510.5 599.9,510.5 601.0,541.3 601.3,569.2 594.5,567.7 594.4,554.4 594.2,510.5"/>
  <polygon points="594.6,573.3 601.4,574.7 601.7,606.5 601.7,606.5 603.3,687.6 603.4,712.5 595.8,712.7 594.7,661.3 594.6,573.3"/>
  <polygon points="595.1,816.2 595.6,745.7 603.1,745.7 603.3,745.7 603.2,751.4 603.2,751.5 605.1,803.8 605.7,805.2 627.2,825.9 645.6,848.5 656.2,875.0 656.5,880.3 652.2,879.8 648.3,861.0 648.0,860.1 639.1,841.8 638.7,841.1 626.0,827.1 625.3,826.6 610.1,818.2 609.3,818.0 595.1,816.2"/>
  <polygon points="595.6,492.4 599.5,491.0 599.6,497.6 595.6,492.4"/>
  <polygon points="595.7,742.0 595.8,718.1 603.4,718.0 603.3,742.1 603.1,742.1 595.7,742.0"/>
  <polygon points="600.4,275.5 602.8,161.1 648.4,162.6 648.3,316.5 601.8,318.6 600.4,275.5"/>
  <polygon points="601.1,448.6 602.5,333.1 602.5,333.0 602.0,324.1 648.2,321.9 646.3,406.7 646.3,406.9 647.5,486.9 602.2,485.0 601.1,448.6"/>
  <polygon points="602.3,490.5 648.4,492.5 653.4,502.7 654.0,568.5 602.5,501.4 602.4,501.3 602.3,490.5"/>
  <polygon points="602.6,509.3 654.6,577.1 654.9,577.3 655.1,577.6 659.2,580.8 652.9,580.3 604.1,569.8 603.8,541.2 603.8,541.2 602.6,509.3"/>
  <polygon points="602.9,155.6 606.2,67.4 623.1,43.1 623.2,42.5 623.4,42.0 623.6,38.6 623.7,29.6 646.5,29.6 648.4,157.1 602.9,155.6"/>
  <polygon points="606.0,751.4 606.1,743.8 606.1,717.9 679.5,715.9 716.9,714.9 710.7,886.9 659.3,880.7 658.9,874.4 658.8,873.7 648.0,846.5 647.7,846.1 629.0,823.2 628.9,823.1 607.9,802.8 606.0,751.4"/>
  <polygon points="632.2,948.0 643.5,932.3 643.9,931.4 651.4,908.7 651.6,907.6 652.6,886.3 656.8,886.8 657.2,896.6 651.0,925.2 637.5,948.3 634.9,950.7 632.2,948.0"/>
  <polygon points="637.3,953.1 639.3,951.1 639.6,950.8 653.4,927.2 653.6,926.6 659.9,897.3 660.0,896.7 659.6,887.1 710.4,893.3 706.7,962.0 642.7,958.4 637.3,953.1"/>
  <polygon points="650.5,403.3 652.4,321.8 712.9,322.0 714.5,374.9 712.0,370.8 710.6,369.8 697.7,367.9 697.4,367.9 680.8,368.6 679.5,369.3 674.5,375.4 674.1,376.1 665.4,398.8 650.5,403.3"/>
  <polygon points="650.7,29.5 697.5,27.8 703.0,158.5 652.6,157.2 650.7,29.5"/>
  <polygon points="652.5,316.4 652.6,162.7 703.2,164.0 712.6,316.5 652.5,316.4"/>
  <polygon points="290.8,966.7 290.5,968.7 291.4,970.5 293.0,970.9 300.8,968.8 304.8,1000.0 308.9,1000.0 309.0,999.5 304.6,965.1 304.5,965.0 304.1,964.2 303.7,963.3 303.7,963.3 302.9,963.1 302.1,962.9 302.1,962.9 292.2,965.5 290.8,966.7"/>
</g>

<!-- road centerlines -->
<g fill="none" stroke="#BBA880" stroke-width="1.2" stroke-opacity="0.5" stroke-linecap="round" stroke-linejoin="round">
  <polyline points="712.7,890.3 719.1,712.1 719.2,684.5 720.2,668.6"/>
  <polyline points="720.2,649.1 704.5,663.1 682.8,690.3 679.5,713.1"/>
  <polyline points="656.1,575.2 667.7,584.1 720.2,624.8"/>
  <polyline points="720.2,550.4 711.9,550.8 677.8,522.9 655.5,501.9"/>
  <polyline points="720.2,417.7 716.8,383.0 714.9,319.3 705.2,161.3 699.4,24.5"/>
  <polyline points="716.8,383.0 720.2,382.5"/>
  <polyline points="464.3,-0.4 464.2,23.9"/>
  <polyline points="420.6,-0.4 420.6,22.3"/>
  <polyline points="165.5,493.0 144.9,493.1 127.8,503.3"/>
  <polyline points="511.9,-0.4 512.6,25.3"/>
  <polyline points="371.3,20.2 375.9,20.4 391.7,21.4"/>
  <polyline points="366.3,19.9 371.3,20.2"/>
  <polyline points="362.1,19.3 366.3,19.9"/>
  <polyline points="324.0,6.0 362.1,19.3"/>
  <polyline points="365.8,-0.4 365.8,10.4 366.3,19.9"/>
  <polyline points="324.0,6.0 306.4,3.2"/>
  <polyline points="274.0,-0.4 306.4,3.2"/>
  <polyline points="30.0,536.7 33.7,555.1 46.9,591.5 65.0,627.2 79.5,650.7 96.0,677.1 114.3,703.0 125.2,728.7 133.5,759.5 139.4,791.1 141.2,809.5 145.8,825.5 156.5,846.3 172.5,862.8 196.6,882.4 202.7,898.3 203.2,914.8"/>
  <polyline points="165.5,493.0 204.4,602.8 228.5,671.0"/>
  <polyline points="127.8,503.3 146.2,552.7 166.5,609.9 182.5,652.5 191.8,682.6"/>
  <polyline points="121.3,515.7 113.6,523.1"/>
  <polyline points="127.8,503.3 121.3,515.7"/>
  <polyline points="204.4,602.8 247.9,572.9 211.6,467.9"/>
  <polyline points="193.8,477.6 188.0,463.2 187.8,454.6"/>
  <polyline points="187.8,454.6 192.1,446.0 214.3,419.2 227.1,404.0 244.3,393.4 268.2,381.9 320.4,380.7"/>
  <polyline points="192.1,446.0 170.9,415.8 145.9,397.2"/>
  <polyline points="69.2,377.6 80.0,434.8 87.7,435.8 102.3,444.9 112.9,468.0 114.0,487.2 111.8,505.6 107.7,521.7"/>
  <polyline points="113.6,523.1 107.7,521.7 98.5,521.4 97.9,531.8"/>
  <polyline points="143.7,336.7 135.3,347.3 116.6,346.8 107.0,346.9 99.0,349.2 93.7,353.0 89.3,356.9 83.1,360.2"/>
  <polyline points="209.3,244.8 200.5,251.4 198.1,255.2 193.5,259.2 188.1,266.4 181.6,271.4 175.6,269.3 168.4,262.2 161.4,258.3 155.0,257.7 145.4,260.6 141.8,264.7 138.6,270.6 137.7,279.8 137.9,288.2 135.7,296.4 132.4,303.3 126.6,312.8 118.4,314.9 112.1,313.8 105.8,309.0 95.7,299.0 86.2,296.0 77.7,300.4 75.2,303.5 74.3,312.8 74.5,326.2 80.0,338.4 83.3,350.5 83.1,360.2 79.1,368.4 69.2,377.6 60.2,377.6 53.6,375.1 48.7,367.1 45.8,349.5 40.3,318.3 34.5,297.2 23.8,270.2 16.2,258.0 11.4,250.9 3.1,243.2 -0.0,235.2"/>
  <polyline points="209.3,244.8 292.3,212.0"/>
  <polyline points="209.3,244.8 216.1,273.3 221.6,300.5 308.8,269.0 300.2,238.0 292.3,212.0 300.3,208.7 291.9,178.9"/>
  <polyline points="216.1,273.3 300.2,238.0"/>
  <polyline points="145.9,397.2 142.1,389.3"/>
  <polyline points="142.1,389.3 146.3,364.5 143.7,336.7"/>
  <polyline points="221.5,317.6 231.2,367.1 209.3,369.3 187.8,384.7 171.1,391.6 145.9,397.2 130.3,389.6 108.0,389.0"/>
  <polyline points="143.7,336.7 155.2,329.4 166.9,328.9 221.5,317.6 236.8,317.3 269.8,307.2 287.1,296.4 315.5,279.0 338.6,272.8 362.0,270.3"/>
  <polyline points="244.3,393.4 237.8,369.4 231.2,367.1"/>
  <polyline points="360.3,292.1 360.6,324.6 362.5,345.3"/>
  <polyline points="360.5,159.6 362.0,270.3 360.3,292.1"/>
  <polyline points="360.5,159.6 317.9,168.4 291.9,178.9"/>
  <polyline points="362.7,88.7 360.2,88.6 354.2,88.2"/>
  <polyline points="368.2,89.7 362.7,88.7"/>
  <polyline points="366.3,19.9 365.6,27.6 361.6,39.6 356.2,65.0 354.2,88.2 353.8,92.9 353.4,118.5"/>
  <polyline points="353.4,118.5 355.0,131.4"/>
  <polyline points="362.8,-0.4 362.8,2.0 362.7,9.0 362.1,19.3 361.4,23.1 360.4,30.8 358.9,38.8 356.2,46.8 355.4,56.3 352.7,80.9 349.5,92.6 349.2,99.9 349.4,125.4 350.0,138.0 348.7,144.2"/>
  <polyline points="348.7,144.2 355.8,143.0 365.6,141.3 365.1,139.1 363.6,136.2 361.8,132.5 360.5,125.8 359.5,113.2 359.5,107.8 359.7,95.2 359.7,94.1 360.2,88.6 360.7,82.4 361.0,78.8 366.8,46.6 370.2,28.8 371.3,20.2 373.6,3.3 373.6,-0.4"/>
  <polyline points="378.5,117.8 401.2,22.1"/>
  <polyline points="375.9,90.9 368.2,89.7"/>
  <polyline points="376.7,135.9 377.1,148.0"/>
  <polyline points="378.6,119.9 378.5,117.8"/>
  <polyline points="354.9,139.9 355.0,131.4"/>
  <polyline points="378.6,119.9 376.7,135.9 365.1,139.1 354.9,139.9"/>
  <polyline points="354.9,139.9 355.8,143.0 360.5,159.6"/>
  <polyline points="360.5,159.6 377.1,148.0 390.2,139.0 408.9,133.8 442.0,134.1 448.7,134.2 533.0,134.9 549.1,135.0 585.9,135.3"/>
  <polyline points="378.6,119.9 397.4,115.9 412.3,117.3 423.8,114.7 442.5,115.6 446.9,115.8 472.5,122.1 490.5,122.6 501.5,122.2 510.4,121.9 526.7,121.1 533.3,121.0"/>
  <polyline points="442.2,128.5 442.0,134.1"/>
  <polyline points="442.5,115.6 442.2,128.5"/>
  <polyline points="393.4,-0.4 393.7,2.7 393.8,3.5 393.5,6.5 391.7,21.4 391.1,26.9 390.9,28.1 390.1,37.7 385.4,48.1 380.1,61.7 377.1,78.2 376.4,86.3 375.9,90.9 375.6,94.3 374.4,108.5 373.9,119.0"/>
  <polyline points="373.9,119.0 378.5,117.8 380.5,117.2 389.6,115.2 395.8,113.8 406.4,114.3 415.6,115.0 424.2,112.4 430.6,112.7 445.6,112.9 459.2,115.8 476.4,120.3 496.2,120.7 513.7,120.0 524.8,119.4 532.7,118.6 535.6,118.3 541.0,119.3 548.9,123.1 555.1,121.3 559.7,117.6 562.7,112.1 562.2,72.4 562.1,66.5 561.7,41.1 561.2,26.9 560.8,9.4 560.1,3.1 560.0,-0.4"/>
  <polyline points="391.7,21.4 401.2,22.1 420.6,22.3 443.8,23.1 464.2,23.9 500.1,24.1 512.6,25.3 548.6,26.1 561.2,26.9 564.4,28.0"/>
  <polyline points="533.3,121.0 540.5,120.7 548.9,126.6"/>
  <polyline points="448.7,134.2 449.5,262.6 480.7,315.2 479.2,332.2 471.1,378.6 448.3,394.5 440.3,411.2"/>
  <polyline points="362.5,345.3 375.2,346.7 436.5,406.5 440.3,411.2 454.8,429.5 527.1,469.4 575.1,486.2 591.6,491.0"/>
  <polyline points="476.7,587.5 475.7,529.6"/>
  <polyline points="475.7,529.6 511.0,531.4 539.1,545.3 540.7,550.9 576.6,553.3 592.0,554.4"/>
  <polyline points="369.5,480.9 364.6,475.6 358.4,469.6 352.0,453.9"/>
  <polyline points="165.5,493.0 193.8,477.6 211.6,467.9 215.4,465.9 288.1,407.9 320.4,380.7 362.5,345.3"/>
  <polyline points="291.4,537.6 317.2,594.1"/>
  <polyline points="379.2,473.9 369.5,480.9 365.6,483.8 291.4,537.6"/>
  <polyline points="427.1,693.7 363.2,672.5 354.8,669.1 346.1,636.5"/>
  <polyline points="395.6,599.9 228.5,671.0 191.8,682.6 186.9,684.6"/>
  <polyline points="186.9,684.6 209.0,795.1"/>
  <polyline points="399.8,612.6 412.4,605.7 448.4,590.4 476.7,587.5"/>
  <polyline points="476.7,587.5 479.7,683.8"/>
  <polyline points="592.3,661.4 578.7,665.0 479.7,683.8 427.1,693.7"/>
  <polyline points="584.3,743.8 593.2,743.9 603.1,743.9"/>
  <polyline points="603.1,743.9 604.7,743.8"/>
  <polyline points="580.9,743.9 584.3,743.8"/>
  <polyline points="592.6,819.1 593.2,743.9 593.4,715.5 592.3,661.4 592.1,569.9"/>
  <polyline points="602.9,1000.0 603.1,996.1 609.4,979.2 620.7,965.3 634.3,953.6 638.5,949.7 652.3,926.1 658.6,896.8 658.1,883.7 657.5,874.5 646.7,847.4 628.1,824.5 606.5,803.7 604.6,751.4 604.7,743.8 604.8,715.2 604.7,687.6 603.0,606.4 602.8,572.2 602.4,541.3 601.2,508.7 601.0,503.3 600.9,487.7 599.7,448.6 601.1,333.1 600.5,321.4 599.0,275.6"/>
  <polyline points="599.0,275.6 601.4,158.3 604.8,66.6 622.0,41.9"/>
  <polyline points="720.2,712.1 719.1,712.1 679.5,713.1 604.8,715.2 593.4,715.5"/>
  <polyline points="591.6,491.0 600.9,487.7 649.6,489.8 720.2,492.1"/>
  <polyline points="648.4,406.8 649.6,489.8 655.5,501.9 656.1,575.2"/>
  <polyline points="650.4,319.1 648.4,406.8"/>
  <polyline points="592.1,569.9 602.8,572.2 652.6,583.0 667.7,584.1"/>
  <polyline points="656.1,575.2 601.0,503.3 591.6,491.0"/>
  <polyline points="600.4,508.7 601.2,508.7"/>
  <polyline points="575.6,509.0 580.3,508.8"/>
  <polyline points="580.3,508.8 591.7,508.7 600.4,508.7"/>
  <polyline points="592.1,569.9 592.0,554.4"/>
  <polyline points="528.2,894.7 528.0,892.4"/>
  <polyline points="528.0,892.4 530.8,875.3 537.7,857.2 543.9,840.0 549.0,832.8 561.6,821.6 572.1,809.0 576.4,800.4 579.8,786.1 581.4,765.6 580.9,743.9 578.7,665.0 576.6,553.3 575.6,509.0 575.1,486.2 567.6,159.5 567.0,155.6 566.2,151.8 565.1,148.2 563.7,145.4"/>
  <polyline points="592.0,554.4 591.7,508.7 591.6,491.0 589.6,321.9 586.8,157.7"/>
  <polyline points="648.4,406.8 666.8,401.1 675.9,377.4 680.9,371.3 697.4,370.6 710.3,372.5 716.8,383.0"/>
  <polyline points="650.5,159.9 650.4,319.1"/>
  <polyline points="586.8,157.7 585.9,135.3"/>
  <polyline points="563.7,145.4 561.8,143.3 559.8,142.3 549.2,142.2"/>
  <polyline points="549.2,142.2 549.1,140.1"/>
  <polyline points="549.1,140.1 549.1,135.0 548.9,128.6"/>
  <polyline points="548.9,128.6 548.9,126.6"/>
  <polyline points="548.9,126.6 548.9,123.1"/>
  <polyline points="548.9,126.6 553.1,126.5 556.9,125.3 562.9,119.3"/>
  <polyline points="585.9,135.3 583.3,66.3 581.9,29.1"/>
  <polyline points="548.9,123.1 548.6,26.1"/>
  <polyline points="564.9,66.5 566.7,66.6"/>
  <polyline points="564.9,66.5 562.1,66.5"/>
  <polyline points="566.7,66.6 583.3,66.3 598.4,66.8"/>
  <polyline points="598.4,66.8 604.8,66.6"/>
  <polyline points="648.5,26.4 650.5,159.9"/>
  <polyline points="622.0,41.9 622.2,38.6"/>
  <polyline points="586.8,157.7 601.4,158.3 650.5,159.9"/>
  <polyline points="650.5,159.9 705.2,161.3 720.2,159.9"/>
  <polyline points="589.6,321.9 600.5,321.4 650.4,319.1 714.9,319.3 720.2,319.3"/>
  <polyline points="581.9,29.1 622.4,26.4 648.5,26.4 699.4,24.5 720.2,23.7"/>
  <polyline points="622.2,38.6 622.4,26.4 623.5,10.5"/>
  <polyline points="623.5,10.5 623.7,6.0"/>
  <polyline points="562.9,119.3 566.2,112.4 564.9,66.5 564.4,28.0 562.8,4.9 562.6,-0.4"/>
  <polyline points="699.4,24.5 710.1,-0.4"/>
  <polyline points="581.9,29.1 579.8,-0.4"/>
  <polyline points="623.7,6.0 609.9,5.1 606.7,-0.4"/>
  <polyline points="-0.0,301.5 7.6,355.6"/>
  <polyline points="12.5,354.8 7.6,355.6 4.3,355.8 0.0,356.1"/>
  <polyline points="208.2,919.0 203.8,897.9 197.6,881.6 173.6,860.7 157.8,845.0 149.0,823.7 143.6,809.0 141.9,790.8 135.9,758.7 126.9,727.8 115.8,701.6 95.8,673.2 75.9,640.9 66.1,624.6 48.4,590.2 35.3,553.5 32.1,536.1 14.1,438.5 7.1,396.5 12.5,354.8 5.6,293.8 -0.0,253.4"/>
  <polyline points="32.1,536.1 30.0,536.7 26.3,537.6 2.4,543.7 0.0,544.2"/>
  <polyline points="1.5,472.5 -0.0,473.2"/>
  <polyline points="8.4,471.3 1.5,472.5"/>
  <polyline points="14.4,469.8 8.4,471.3"/>
  <polyline points="7.6,355.6 4.4,398.0"/>
  <polyline points="4.4,398.0 24.2,507.7 30.0,536.7"/>
  <polyline points="2.3,398.2 4.3,355.8"/>
  <polyline points="26.3,537.6 21.8,511.4 15.3,475.2 14.4,469.8 7.4,427.6 2.3,398.2"/>
  <polyline points="558.5,838.3 549.0,832.8 539.5,827.3 488.4,832.6 446.3,831.8"/>
  <polyline points="541.3,897.7 528.5,898.4 520.5,900.0 443.7,894.6"/>
  <polyline points="528.9,901.6 528.5,898.4 528.2,894.7"/>
  <polyline points="362.5,345.3 379.2,473.9 395.6,599.9 399.8,612.6 426.0,690.5 427.1,693.7 448.8,745.6 446.3,831.8 443.7,860.2 443.7,894.6 450.0,970.1 453.6,1000.0"/>
  <polyline points="425.5,976.5 413.1,945.0"/>
  <polyline points="396.3,1000.0 404.0,992.4 425.5,976.5 450.0,970.1"/>
  <polyline points="292.6,968.2 302.5,965.6"/>
  <polyline points="300.7,907.1 301.0,915.0"/>
  <polyline points="301.0,915.0 301.3,923.2"/>
  <polyline points="413.1,945.0 342.1,949.0"/>
  <polyline points="443.7,894.6 390.8,906.1 335.3,907.5 300.7,907.1 289.1,907.0"/>
  <polyline points="289.1,907.0 275.8,889.1 261.1,867.1 246.6,825.8 234.6,787.2 209.0,795.1"/>
  <polyline points="289.1,907.0 236.1,914.1 208.2,919.0"/>
  <polyline points="206.7,919.1 197.5,919.7"/>
  <polyline points="208.2,919.0 206.7,919.1"/>
  <polyline points="197.5,919.7 186.5,922.2 176.8,920.8 161.8,927.6 147.2,932.1 130.8,936.3 112.4,939.2 90.7,942.5 74.6,945.4 39.1,950.8 22.7,955.6 0.0,962.3"/>
  <polyline points="203.2,914.8 200.4,973.6 199.1,1000.0"/>
  <polyline points="302.5,965.6 306.9,1000.0"/>
  <polyline points="589.7,1000.0 590.1,962.2"/>
  <polyline points="575.9,1000.0 575.5,995.5 572.4,983.8 563.6,969.4 549.8,954.7 540.4,937.2 532.0,916.2 529.1,904.3 528.9,901.6"/>
  <polyline points="592.6,819.1 574.3,824.8 558.5,838.3 550.4,850.8 544.6,865.4 541.5,881.3 541.3,897.7"/>
  <polyline points="541.3,897.7 546.3,921.3 557.0,941.3 572.2,955.5 590.1,962.2"/>
  <polyline points="590.1,962.2 603.8,961.8 616.9,957.0 628.8,948.1 641.7,930.1 649.2,907.5 650.3,882.8 646.0,861.8 637.1,843.5 624.4,829.6 609.1,821.2 592.6,819.1"/>
  <polyline points="720.2,890.1 712.7,890.3 658.1,883.7 650.3,882.8"/>
  <polyline points="706.7,1000.0 708.6,964.8 712.7,890.3"/>
  <polyline points="720.2,966.1 708.6,964.8 642.0,961.1 634.3,953.6 628.8,948.1"/>
</g>

<!-- buildings -->
<g>
  <polygon points="453.3,145.5 452.8,235.3 562.9,234.6 561.5,145.3 453.3,145.5" fill="#C8B080" fill-opacity="0.85" stroke="#A08848" stroke-width="0.7"/>
  <polygon points="516.4,736.4 482.3,741.5 489.9,828.7 524.1,823.6 523.3,815.2 536.1,813.3 535.5,806.2 546.5,804.6 543.7,772.6 519.8,776.2 516.4,736.4" fill="#C8B080" fill-opacity="0.85" stroke="#A08848" stroke-width="0.7"/>
  <polygon points="111.9,-0.4 106.8,73.1 110.8,73.5 110.3,79.8 151.6,84.3 151.3,88.9 244.8,100.4 248.8,50.1 241.7,48.8 238.7,92.8 226.8,91.4 230.2,42.2 222.4,41.2 219.3,85.2 176.7,80.2 177.0,75.1 169.6,74.2 169.0,82.4 159.7,81.3 162.0,48.4 154.4,47.1 154.1,51.4 152.3,76.1 117.9,72.4 118.4,64.9 114.0,64.4 115.3,45.9 115.9,36.9 118.4,-0.4 111.9,-0.4" fill="#C8B080" fill-opacity="0.85" stroke="#A08848" stroke-width="0.7"/>
  <polygon points="259.7,710.3 253.0,712.8 258.2,737.7 264.9,735.3 277.9,796.6 292.5,791.3 268.6,682.1 254.8,687.9 256.2,693.5 259.7,710.3" fill="#C8B080" fill-opacity="0.85" stroke="#A08848" stroke-width="0.7"/>
  <polygon points="434.9,172.4 373.7,174.3 374.0,190.5 396.6,189.8 396.8,198.8 420.2,198.0 420.4,210.0 425.7,209.9 426.0,224.0 438.0,223.7 437.2,179.4 435.1,179.5 434.9,172.4" fill="#C8B080" fill-opacity="0.85" stroke="#A08848" stroke-width="0.7"/>
  <polygon points="664.0,742.8 654.9,784.8 663.9,798.2 673.9,798.8 674.3,787.8 682.4,788.3 684.6,725.8 680.1,718.9 668.2,719.0 668.4,742.7 664.0,742.8" fill="#C8B080" fill-opacity="0.85" stroke="#A08848" stroke-width="0.7"/>
  <polygon points="610.1,108.7 609.8,151.4 644.1,151.8 644.5,105.6 622.8,105.3 622.8,108.9 610.1,108.7" fill="#C8B080" fill-opacity="0.85" stroke="#A08848" stroke-width="0.7"/>
  <polygon points="221.3,794.7 198.6,807.8 203.7,823.0 217.7,814.9 232.5,858.7 249.5,848.8 231.4,795.0 223.0,799.8 221.3,794.7" fill="#C8B080" fill-opacity="0.85" stroke="#A08848" stroke-width="0.7"/>
  <polygon points="484.5,285.5 483.1,317.2 486.5,317.5 486.2,324.3 501.4,325.4 501.3,329.0 512.9,329.9 515.0,282.2 489.4,280.2 489.1,285.8 484.5,285.5" fill="#C8B080" fill-opacity="0.85" stroke="#A08848" stroke-width="0.7"/>
  <polygon points="653.2,167.7 652.8,194.2 701.0,195.4 701.4,169.0 653.2,167.7" fill="#C8B080" fill-opacity="0.85" stroke="#A08848" stroke-width="0.7"/>
  <polygon points="260.9,778.9 243.3,789.5 263.1,845.6 280.7,834.9 260.9,778.9" fill="#C8B080" fill-opacity="0.85" stroke="#A08848" stroke-width="0.7"/>
  <polygon points="479.8,383.6 476.6,425.3 509.4,429.6 510.8,412.0 502.8,410.9 504.6,386.8 479.8,383.6" fill="#C8B080" fill-opacity="0.85" stroke="#A08848" stroke-width="0.7"/>
  <polygon points="570.1,343.7 540.8,340.4 541.7,377.8 571.0,385.3 570.1,343.7" fill="#C8B080" fill-opacity="0.85" stroke="#A08848" stroke-width="0.7"/>
  <polygon points="531.6,473.7 525.9,499.6 564.9,514.3 570.5,488.4 531.6,473.7" fill="#C8B080" fill-opacity="0.85" stroke="#A08848" stroke-width="0.7"/>
  <polygon points="646.3,673.5 645.8,708.1 671.8,708.7 679.9,695.9 678.7,683.3 669.4,674.0 646.3,673.5" fill="#C8B080" fill-opacity="0.85" stroke="#A08848" stroke-width="0.7"/>
  <polygon points="517.3,641.9 517.3,656.4 522.6,656.4 522.6,662.4 550.9,662.5 551.0,627.1 524.5,627.0 524.5,642.0 517.3,641.9" fill="#C8B080" fill-opacity="0.85" stroke="#A08848" stroke-width="0.7"/>
  <polygon points="692.2,723.6 690.6,772.7 711.5,773.9 713.1,724.8 692.2,723.6" fill="#C8B080" fill-opacity="0.85" stroke="#A08848" stroke-width="0.7"/>
  <polygon points="690.0,613.1 679.3,644.8 687.5,652.6 689.4,650.5 698.9,658.8 713.0,647.9 713.3,631.1 690.0,613.1" fill="#C8B080" fill-opacity="0.82" stroke="#A08848" stroke-width="0.7"/>
  <polygon points="334.1,792.5 291.0,809.2 295.5,829.4 338.7,812.7 334.1,792.5" fill="#C8B080" fill-opacity="0.82" stroke="#A08848" stroke-width="0.7"/>
  <polygon points="621.5,444.6 606.2,444.7 606.3,481.5 619.8,481.4 619.7,471.8 633.7,471.7 633.8,480.4 643.5,480.3 643.4,457.3 621.5,457.4 621.5,444.6" fill="#C8B080" fill-opacity="0.81" stroke="#A08848" stroke-width="0.7"/>
  <polygon points="640.3,620.7 638.3,658.3 644.1,658.8 643.8,664.6 660.3,666.2 662.7,622.8 640.3,620.7" fill="#C8B080" fill-opacity="0.81" stroke="#A08848" stroke-width="0.7"/>
  <polygon points="504.6,599.5 504.0,614.2 550.5,617.8 551.5,596.3 515.4,593.4 515.1,600.3 504.6,599.5" fill="#C8B080" fill-opacity="0.81" stroke="#A08848" stroke-width="0.7"/>
  <polygon points="701.2,210.5 675.2,212.2 676.4,244.9 689.3,244.1 689.5,248.0 702.6,247.2 701.2,210.5" fill="#C8B080" fill-opacity="0.79" stroke="#A08848" stroke-width="0.7"/>
  <polygon points="87.9,464.0 84.9,490.1 88.2,490.8 85.6,513.8 98.7,516.4 101.4,492.8 106.5,491.5 109.2,468.2 87.9,464.0" fill="#C8B080" fill-opacity="0.78" stroke="#A08848" stroke-width="0.7"/>
  <polygon points="415.4,482.2 389.7,486.0 392.2,514.2 405.3,512.3 404.9,508.3 426.4,505.1 425.6,495.4 415.4,482.2" fill="#C8B080" fill-opacity="0.76" stroke="#A08848" stroke-width="0.7"/>
  <polygon points="330.3,757.0 288.9,774.1 293.2,791.9 334.5,774.8 330.3,757.0" fill="#C8B080" fill-opacity="0.75" stroke="#A08848" stroke-width="0.7"/>
  <polygon points="556.3,754.4 555.7,817.4 561.7,817.5 570.6,796.3 571.0,758.4 564.8,758.3 564.9,754.6 556.3,754.4" fill="#C8B080" fill-opacity="0.75" stroke="#A08848" stroke-width="0.7"/>
  <polygon points="577.1,869.1 577.1,891.3 613.5,891.6 613.5,877.7 613.5,869.3 599.4,869.2 594.3,869.2 591.3,869.2 577.1,869.1" fill="#C8B080" fill-opacity="0.75" stroke="#A08848" stroke-width="0.7"/>
  <polygon points="324.2,224.2 323.9,238.9 351.4,239.4 352.5,192.4 344.8,192.7 339.8,200.5 339.6,222.8 325.9,222.3 324.2,224.2" fill="#C8B080" fill-opacity="0.75" stroke="#A08848" stroke-width="0.7"/>
  <polygon points="176.0,26.1 175.4,34.8 180.3,35.4 185.7,36.0 237.0,41.7 237.6,33.4 238.1,26.0 238.6,17.5 239.4,5.5 231.3,4.6 231.2,4.9 229.4,32.0 200.4,28.8 193.1,28.0 176.0,26.1" fill="#C8B080" fill-opacity="0.73" stroke="#A08848" stroke-width="0.7"/>
  <polygon points="419.6,353.6 407.6,375.4 431.1,397.6 432.3,395.4 436.3,399.2 441.7,398.0 444.4,393.4 437.6,386.5 438.6,384.9 432.3,378.5 433.8,376.0 432.2,365.5 419.6,353.6" fill="#C8B080" fill-opacity="0.73" stroke="#A08848" stroke-width="0.7"/>
  <polygon points="608.5,741.4 608.2,770.6 642.5,771.1 642.6,756.5 631.5,756.3 631.5,748.8 620.7,748.7 620.8,741.6 608.5,741.4" fill="#C8B080" fill-opacity="0.72" stroke="#A08848" stroke-width="0.7"/>
  <polygon points="608.6,581.4 608.2,622.3 633.3,622.7 633.4,609.2 623.3,609.0 623.5,581.6 608.6,581.4" fill="#C8B080" fill-opacity="0.72" stroke="#A08848" stroke-width="0.7"/>
  <polygon points="608.9,716.9 608.8,739.6 622.9,739.8 622.9,744.1 638.2,744.3 638.4,717.1 608.9,716.9" fill="#C8B080" fill-opacity="0.71" stroke="#A08848" stroke-width="0.7"/>
  <polygon points="635.0,553.7 609.0,523.4 610.2,568.3 629.0,573.0 630.0,561.6 635.0,553.7" fill="#C8B080" fill-opacity="0.71" stroke="#A08848" stroke-width="0.7"/>
  <polygon points="626.7,660.8 609.0,661.6 610.1,702.9 627.8,702.1 626.7,660.8" fill="#C8B080" fill-opacity="0.71" stroke="#A08848" stroke-width="0.7"/>
  <polygon points="682.5,328.3 657.5,328.8 657.8,358.2 674.5,357.9 674.4,351.9 682.7,351.7 682.5,328.3" fill="#C8B080" fill-opacity="0.69" stroke="#A08848" stroke-width="0.7"/>
  <polygon points="666.2,804.8 652.0,814.8 667.3,852.0 681.5,842.0 666.2,804.8" fill="#C8B080" fill-opacity="0.69" stroke="#A08848" stroke-width="0.7"/>
  <polygon points="139.2,563.8 118.2,582.2 129.5,604.4 150.6,586.0 139.2,563.8" fill="#C8B080" fill-opacity="0.68" stroke="#A08848" stroke-width="0.7"/>
  <polygon points="394.5,377.3 388.5,386.7 406.9,419.8 412.4,415.9 414.3,419.8 425.5,408.9 394.5,377.3" fill="#C8B080" fill-opacity="0.68" stroke="#A08848" stroke-width="0.7"/>
  <polygon points="309.6,33.1 308.4,50.2 342.9,54.1 340.5,91.3 344.5,91.8 346.8,92.0 349.8,48.0 314.6,44.0 316.3,18.9 310.6,18.4 309.6,33.1" fill="#C8B080" fill-opacity="0.68" stroke="#A08848" stroke-width="0.7"/>
  <polygon points="632.8,413.6 607.4,414.5 608.0,440.3 633.3,439.3 632.8,413.6" fill="#C8B080" fill-opacity="0.67" stroke="#A08848" stroke-width="0.7"/>
  <polygon points="547.7,702.3 547.0,722.1 552.1,722.4 551.6,733.8 573.4,735.3 574.2,716.2 562.7,715.4 563.1,703.3 547.7,702.3" fill="#C8B080" fill-opacity="0.67" stroke="#A08848" stroke-width="0.7"/>
  <polygon points="390.8,206.2 390.5,226.6 392.2,226.6 392.0,234.0 399.6,233.8 399.7,230.5 418.6,231.1 418.9,215.0 407.9,214.7 408.0,206.3 390.8,206.2" fill="#C8B080" fill-opacity="0.65" stroke="#A08848" stroke-width="0.7"/>
  <polygon points="694.2,46.2 673.0,46.8 673.5,75.6 694.7,75.0 694.2,46.2" fill="#C8B080" fill-opacity="0.65" stroke="#A08848" stroke-width="0.7"/>
  <polygon points="139.4,433.5 120.6,434.3 121.5,469.3 134.4,468.8 134.2,460.3 140.1,460.1 139.4,433.5" fill="#C8B080" fill-opacity="0.65" stroke="#A08848" stroke-width="0.7"/>
  <polygon points="541.4,510.0 536.6,537.8 546.6,540.8 548.9,527.4 569.5,533.6 572.0,519.2 541.4,510.0" fill="#C8B080" fill-opacity="0.65" stroke="#A08848" stroke-width="0.7"/>
  <polygon points="96.5,396.1 78.8,399.5 82.6,432.8 100.3,429.4 96.5,396.1" fill="#C8B080" fill-opacity="0.65" stroke="#A08848" stroke-width="0.7"/>
  <polygon points="340.0,396.4 328.9,405.1 338.5,426.2 361.1,408.5 352.9,390.5 341.4,399.6 340.0,396.4" fill="#C8B080" fill-opacity="0.64" stroke="#A08848" stroke-width="0.7"/>
  <polygon points="684.0,849.1 683.7,875.2 706.5,875.8 706.9,849.6 684.0,849.1" fill="#C8B080" fill-opacity="0.64" stroke="#A08848" stroke-width="0.7"/>
  <polygon points="705.2,273.5 672.7,273.7 672.8,291.7 705.3,291.4 705.2,273.5" fill="#C8B080" fill-opacity="0.64" stroke="#A08848" stroke-width="0.7"/>
  <polygon points="523.3,502.0 515.9,532.5 532.9,539.7 540.3,509.1 523.3,502.0" fill="#C8B080" fill-opacity="0.63" stroke="#A08848" stroke-width="0.7"/>
  <polygon points="674.0,449.8 657.0,450.0 657.1,478.0 659.4,483.5 673.9,484.0 674.0,449.8" fill="#C8B080" fill-opacity="0.63" stroke="#A08848" stroke-width="0.7"/>
  <polygon points="382.5,525.2 365.1,527.0 367.1,559.4 384.5,557.5 382.5,525.2" fill="#C8B080" fill-opacity="0.63" stroke="#A08848" stroke-width="0.7"/>
  <polygon points="242.7,738.8 226.9,746.0 235.2,777.4 251.0,770.3 242.7,738.8" fill="#C8B080" fill-opacity="0.62" stroke="#A08848" stroke-width="0.7"/>
  <polygon points="404.3,516.1 390.8,518.7 395.3,558.7 408.8,556.2 404.3,516.1" fill="#C8B080" fill-opacity="0.62" stroke="#A08848" stroke-width="0.7"/>
  <polygon points="436.9,605.2 410.7,618.0 416.0,636.4 442.2,623.6 436.9,605.2" fill="#C8B080" fill-opacity="0.62" stroke="#A08848" stroke-width="0.7"/>
  <polygon points="603.7,168.5 603.6,195.2 624.1,195.4 624.2,168.6 603.7,168.5" fill="#C8B080" fill-opacity="0.62" stroke="#A08848" stroke-width="0.7"/>
  <polygon points="149.4,594.6 132.8,608.7 144.3,631.9 160.9,617.8 149.4,594.6" fill="#C8B080" fill-opacity="0.62" stroke="#A08848" stroke-width="0.7"/>
  <polygon points="620.2,773.1 608.1,772.4 608.4,785.3 612.4,793.8 631.2,793.8 638.5,773.1 620.2,773.1" fill="#C8B080" fill-opacity="0.61" stroke="#A08848" stroke-width="0.7"/>
  <polygon points="348.5,422.9 329.4,435.6 336.6,454.3 343.6,449.6 344.4,449.1 347.4,457.0 352.0,453.9 356.4,451.0 352.3,440.4 354.7,438.7 348.5,422.9" fill="#C8B080" fill-opacity="0.61" stroke="#A08848" stroke-width="0.7"/>
  <polygon points="255.4,323.0 232.8,330.4 237.5,354.6 248.3,351.1 247.5,346.9 259.3,343.0 255.4,323.0" fill="#C8B080" fill-opacity="0.61" stroke="#A08848" stroke-width="0.7"/>
  <polygon points="264.4,665.1 240.4,675.2 245.9,697.8 256.2,693.5 254.8,687.9 268.6,682.1 264.4,665.1" fill="#C8B080" fill-opacity="0.60" stroke="#A08848" stroke-width="0.7"/>
  <polygon points="685.0,692.5 684.6,705.9 709.1,706.4 710.1,690.6 702.5,682.3 693.5,683.3 685.0,692.5" fill="#C8B080" fill-opacity="0.60" stroke="#A08848" stroke-width="0.7"/>
  <polygon points="636.9,64.6 615.9,65.2 616.2,89.3 637.2,88.8 636.9,64.6" fill="#C8B080" fill-opacity="0.60" stroke="#A08848" stroke-width="0.7"/>
  <polygon points="611.4,634.0 611.2,653.4 633.9,653.9 634.2,627.1 626.4,627.0 626.3,634.3 611.4,634.0" fill="#C8B080" fill-opacity="0.60" stroke="#A08848" stroke-width="0.7"/>
  <polygon points="480.5,332.4 476.5,353.0 499.3,360.5 503.2,339.9 480.5,332.4" fill="#C8B080" fill-opacity="0.59" stroke="#A08848" stroke-width="0.7"/>
  <polygon points="710.0,398.9 696.8,399.5 697.7,436.7 711.0,436.1 710.0,398.9" fill="#C8B080" fill-opacity="0.59" stroke="#A08848" stroke-width="0.7"/>
  <polygon points="625.7,355.0 606.7,355.5 607.2,384.9 613.1,384.7 613.0,379.9 626.1,379.6 625.7,355.0" fill="#C8B080" fill-opacity="0.59" stroke="#A08848" stroke-width="0.7"/>
  <polygon points="547.3,386.3 546.2,407.6 569.2,409.7 570.4,388.4 547.3,386.3" fill="#C8B080" fill-opacity="0.59" stroke="#A08848" stroke-width="0.7"/>
  <polygon points="357.8,580.5 337.3,586.5 341.1,609.1 361.6,603.1 357.8,580.5" fill="#C8B080" fill-opacity="0.59" stroke="#A08848" stroke-width="0.7"/>
  <polygon points="145.7,498.5 133.2,505.6 141.9,531.7 160.9,520.8 157.1,509.3 150.5,513.1 145.7,498.5" fill="#C8B080" fill-opacity="0.58" stroke="#A08848" stroke-width="0.7"/>
  <polygon points="696.1,112.6 672.7,113.9 673.4,134.0 696.8,132.6 696.1,112.6" fill="#C8B080" fill-opacity="0.58" stroke="#A08848" stroke-width="0.7"/>
  <polygon points="271.3,425.9 255.4,438.1 265.1,459.7 281.0,447.5 271.3,425.9" fill="#C8B080" fill-opacity="0.58" stroke="#A08848" stroke-width="0.7"/>
  <polygon points="606.8,259.5 606.4,282.4 627.3,283.1 627.7,266.0 623.2,265.8 623.4,260.0 606.8,259.5" fill="#C8B080" fill-opacity="0.57" stroke="#A08848" stroke-width="0.7"/>
  <polygon points="318.2,524.3 301.3,536.7 309.9,556.8 326.8,544.4 318.2,524.3" fill="#C8B080" fill-opacity="0.57" stroke="#A08848" stroke-width="0.7"/>
  <polygon points="188.7,643.4 184.8,645.7 188.8,656.9 209.9,644.1 203.3,625.4 186.0,635.9 188.7,643.4" fill="#C8B080" fill-opacity="0.57" stroke="#A08848" stroke-width="0.7"/>
  <polygon points="567.6,242.6 529.4,243.8 529.6,255.3 567.9,254.1 567.6,242.6" fill="#C8B080" fill-opacity="0.57" stroke="#A08848" stroke-width="0.7"/>
  <polygon points="707.2,343.9 687.3,344.3 687.5,366.4 707.4,366.0 707.2,343.9" fill="#C8B080" fill-opacity="0.57" stroke="#A08848" stroke-width="0.7"/>
  <polygon points="683.2,833.3 682.9,840.2 705.6,841.7 706.3,824.4 700.0,824.1 700.3,816.4 688.4,815.6 687.7,833.5 683.2,833.3" fill="#C8B080" fill-opacity="0.56" stroke="#A08848" stroke-width="0.7"/>
  <polygon points="464.9,600.6 441.8,606.0 444.3,624.2 467.4,618.9 464.9,600.6" fill="#C8B080" fill-opacity="0.56" stroke="#A08848" stroke-width="0.7"/>
  <polygon points="368.6,192.0 368.1,218.8 384.2,219.2 384.6,192.1 368.6,192.0" fill="#C8B080" fill-opacity="0.56" stroke="#A08848" stroke-width="0.7"/>
  <polygon points="514.1,839.4 512.9,880.8 523.2,881.3 524.3,839.9 514.1,839.4" fill="#C8B080" fill-opacity="0.56" stroke="#A08848" stroke-width="0.7"/>
  <polygon points="467.7,859.1 467.2,883.6 484.4,884.3 484.9,859.7 467.7,859.1" fill="#C8B080" fill-opacity="0.56" stroke="#A08848" stroke-width="0.7"/>
  <polygon points="676.4,461.4 676.0,483.8 694.6,484.4 695.0,462.0 676.4,461.4" fill="#C8B080" fill-opacity="0.56" stroke="#A08848" stroke-width="0.7"/>
  <polygon points="390.7,644.8 387.7,646.3 391.0,657.8 401.1,652.7 404.0,662.7 411.7,658.8 403.9,631.9 389.1,639.2 390.7,644.8" fill="#C8B080" fill-opacity="0.55" stroke="#A08848" stroke-width="0.7"/>
  <polygon points="558.5,877.4 558.5,891.2 567.8,891.2 573.1,891.3 577.1,891.3 577.1,869.1 561.3,869.1 558.5,869.1 558.5,877.4" fill="#C8B080" fill-opacity="0.55" stroke="#A08848" stroke-width="0.7"/>
  <polygon points="613.5,877.7 613.5,891.6 617.1,891.5 622.2,891.5 632.0,891.4 632.1,877.8 632.1,869.4 629.3,869.4 613.5,869.3 613.5,877.7" fill="#C8B080" fill-opacity="0.55" stroke="#A08848" stroke-width="0.7"/>
  <polygon points="365.3,283.5 364.3,305.6 383.1,306.6 384.5,286.9 365.3,283.5" fill="#C8B080" fill-opacity="0.55" stroke="#A08848" stroke-width="0.7"/>
  <polygon points="720.2,45.1 703.0,45.3 703.2,68.3 720.2,68.2 720.2,45.1" fill="#C8B080" fill-opacity="0.54" stroke="#A08848" stroke-width="0.7"/>
  <polygon points="128.4,-0.4 127.5,22.7 136.0,23.3 144.5,24.0 145.3,6.2 141.3,-0.4 128.4,-0.4" fill="#C8B080" fill-opacity="0.54" stroke="#A08848" stroke-width="0.7"/>
  <polygon points="184.9,581.0 165.9,593.2 172.1,609.8 191.1,597.7 184.9,581.0" fill="#C8B080" fill-opacity="0.54" stroke="#A08848" stroke-width="0.7"/>
  <polygon points="134.0,48.6 132.7,64.9 141.8,65.8 143.0,50.4 154.1,51.4 154.4,47.1 154.6,41.9 154.8,39.0 134.9,37.3 134.0,48.6" fill="#C8B080" fill-opacity="0.54" stroke="#A08848" stroke-width="0.7"/>
  <polygon points="720.2,167.6 708.2,168.3 709.4,202.3 720.2,201.7 720.2,167.6" fill="#C8B080" fill-opacity="0.54" stroke="#A08848" stroke-width="0.7"/>
  <polygon points="168.5,330.4 148.9,336.1 152.1,354.9 171.7,349.3 168.5,330.4" fill="#C8B080" fill-opacity="0.54" stroke="#A08848" stroke-width="0.7"/>
  <polygon points="662.1,367.5 653.1,367.5 653.1,399.6 663.1,399.6 663.1,382.9 669.9,382.9 669.8,372.4 662.1,372.4 662.1,367.5" fill="#C8B080" fill-opacity="0.54" stroke="#A08848" stroke-width="0.7"/>
  <polygon points="298.9,436.5 285.6,446.5 295.1,468.3 308.4,458.4 298.9,436.5" fill="#C8B080" fill-opacity="0.54" stroke="#A08848" stroke-width="0.7"/>
  <polygon points="537.6,561.7 535.6,586.5 550.9,588.6 552.9,563.8 537.6,561.7" fill="#C8B080" fill-opacity="0.54" stroke="#A08848" stroke-width="0.7"/>
  <polygon points="494.4,708.2 480.2,711.2 483.5,737.6 497.7,734.5 494.4,708.2" fill="#C8B080" fill-opacity="0.54" stroke="#A08848" stroke-width="0.7"/>
  <polygon points="496.5,640.5 481.2,641.1 481.7,666.0 497.1,665.4 496.5,640.5" fill="#C8B080" fill-opacity="0.54" stroke="#A08848" stroke-width="0.7"/>
  <polygon points="488.6,848.9 486.5,884.8 497.0,885.8 499.1,850.0 488.6,848.9" fill="#C8B080" fill-opacity="0.54" stroke="#A08848" stroke-width="0.7"/>
  <polygon points="482.2,482.6 463.9,492.0 469.4,510.2 482.9,503.3 486.3,496.1 482.2,482.6" fill="#C8B080" fill-opacity="0.53" stroke="#A08848" stroke-width="0.7"/>
  <polygon points="516.6,705.7 500.7,707.7 502.4,730.7 518.3,728.6 516.6,705.7" fill="#C8B080" fill-opacity="0.53" stroke="#A08848" stroke-width="0.7"/>
  <polygon points="668.0,128.2 652.4,128.9 653.1,152.6 668.6,151.9 668.0,128.2" fill="#C8B080" fill-opacity="0.53" stroke="#A08848" stroke-width="0.7"/>
  <polygon points="297.3,499.0 278.6,512.5 285.2,528.1 301.9,516.0 299.6,510.5 301.6,509.0 297.3,499.0" fill="#C8B080" fill-opacity="0.53" stroke="#A08848" stroke-width="0.7"/>
  <polygon points="163.1,523.7 144.6,534.3 150.0,550.8 168.6,540.3 163.1,523.7" fill="#C8B080" fill-opacity="0.53" stroke="#A08848" stroke-width="0.7"/>
  <polygon points="171.2,49.5 169.6,74.2 177.0,75.1 184.2,75.8 185.7,50.9 171.2,49.5" fill="#C8B080" fill-opacity="0.53" stroke="#A08848" stroke-width="0.7"/>
  <polygon points="365.0,222.1 364.8,237.1 367.0,239.6 374.6,240.0 375.1,239.1 386.1,238.9 386.5,222.6 365.0,222.1" fill="#C8B080" fill-opacity="0.53" stroke="#A08848" stroke-width="0.7"/>
  <polygon points="173.1,540.7 152.6,552.9 158.7,570.4 173.5,561.6 169.9,551.3 175.6,547.9 173.1,540.7" fill="#C8B080" fill-opacity="0.53" stroke="#A08848" stroke-width="0.7"/>
  <polygon points="624.9,324.1 605.0,324.3 605.1,344.0 620.9,343.8 620.8,336.4 625.0,336.3 624.9,324.1" fill="#C8B080" fill-opacity="0.53" stroke="#A08848" stroke-width="0.7"/>
  <polygon points="292.8,409.5 276.5,420.9 283.5,438.0 299.8,426.6 292.8,409.5" fill="#C8B080" fill-opacity="0.53" stroke="#A08848" stroke-width="0.7"/>
  <polygon points="407.9,266.6 393.8,267.1 394.4,294.0 403.8,293.6 403.7,288.9 408.4,288.7 407.9,266.6" fill="#C8B080" fill-opacity="0.53" stroke="#A08848" stroke-width="0.7"/>
  <polygon points="539.3,697.7 525.6,699.6 527.3,719.8 534.1,726.1 541.6,725.0 539.3,697.7" fill="#C8B080" fill-opacity="0.53" stroke="#A08848" stroke-width="0.7"/>
  <polygon points="380.1,308.4 363.9,308.4 367.9,337.2 381.0,325.3 380.1,308.4" fill="#C8B080" fill-opacity="0.52" stroke="#A08848" stroke-width="0.7"/>
  <polygon points="319.3,350.1 314.8,354.3 320.5,365.2 335.6,351.4 325.9,333.2 317.9,340.4 319.5,343.5 317.0,345.8 319.3,350.1" fill="#C8B080" fill-opacity="0.52" stroke="#A08848" stroke-width="0.7"/>
  <polygon points="552.6,432.2 548.1,448.3 570.7,458.3 572.8,445.7 552.6,432.2" fill="#C8B080" fill-opacity="0.52" stroke="#A08848" stroke-width="0.7"/>
  <polygon points="212.9,699.3 195.0,706.5 199.2,724.1 217.0,716.9 212.9,699.3" fill="#C8B080" fill-opacity="0.52" stroke="#A08848" stroke-width="0.7"/>
  <polygon points="340.8,812.1 340.3,834.8 355.4,835.3 355.8,812.7 340.8,812.1" fill="#C8B080" fill-opacity="0.52" stroke="#A08848" stroke-width="0.7"/>
  <polygon points="305.8,15.7 305.7,18.0 310.6,18.4 316.3,18.9 323.2,19.5 324.0,6.0 324.2,-0.4 306.6,-0.4 306.4,3.2 305.8,15.7" fill="#C8B080" fill-opacity="0.52" stroke="#A08848" stroke-width="0.7"/>
  <polygon points="193.7,598.4 176.0,609.1 181.5,624.8 199.3,614.1 193.7,598.4" fill="#C8B080" fill-opacity="0.52" stroke="#A08848" stroke-width="0.7"/>
  <polygon points="222.3,742.9 204.0,750.8 208.1,767.3 226.4,759.5 222.3,742.9" fill="#C8B080" fill-opacity="0.51" stroke="#A08848" stroke-width="0.7"/>
  <polygon points="718.2,98.5 703.9,100.5 705.9,123.7 720.1,121.7 718.2,98.5" fill="#C8B080" fill-opacity="0.51" stroke="#A08848" stroke-width="0.7"/>
  <polygon points="361.5,807.7 360.7,829.3 376.2,830.3 376.9,808.7 361.5,807.7" fill="#C8B080" fill-opacity="0.51" stroke="#A08848" stroke-width="0.7"/>
  <polygon points="652.5,198.0 651.7,212.8 674.0,214.9 674.8,200.1 652.5,198.0" fill="#C8B080" fill-opacity="0.51" stroke="#A08848" stroke-width="0.7"/>
  <polygon points="199.3,509.0 180.7,520.6 183.7,528.8 185.8,527.5 187.9,533.2 196.0,528.1 197.1,531.0 205.4,525.7 199.3,509.0" fill="#C8B080" fill-opacity="0.51" stroke="#A08848" stroke-width="0.7"/>
  <polygon points="308.9,58.0 307.3,83.9 320.1,85.2 321.7,59.3 308.9,58.0" fill="#C8B080" fill-opacity="0.51" stroke="#A08848" stroke-width="0.7"/>
  <polygon points="437.7,671.8 426.8,676.9 428.8,685.3 433.5,688.6 444.7,686.3 449.2,685.7 452.8,681.2 453.1,673.7 437.7,671.8" fill="#C8B080" fill-opacity="0.51" stroke="#A08848" stroke-width="0.7"/>
  <polygon points="370.1,586.7 364.5,588.4 366.4,598.9 373.2,596.8 373.7,599.7 387.7,595.4 384.7,578.6 369.5,583.3 370.1,586.7" fill="#C8B080" fill-opacity="0.51" stroke="#A08848" stroke-width="0.7"/>
  <polygon points="453.9,856.2 453.7,882.9 465.8,883.0 466.1,856.4 453.9,856.2" fill="#C8B080" fill-opacity="0.51" stroke="#A08848" stroke-width="0.7"/>
  <polygon points="217.2,722.4 199.7,729.3 203.6,746.3 221.1,739.5 217.2,722.4" fill="#C8B080" fill-opacity="0.51" stroke="#A08848" stroke-width="0.7"/>
  <polygon points="650.6,586.8 648.0,612.2 660.4,614.4 663.1,589.0 650.6,586.8" fill="#C8B080" fill-opacity="0.51" stroke="#A08848" stroke-width="0.7"/>
  <polygon points="696.5,466.5 696.5,484.8 712.8,485.6 717.5,479.2 717.3,472.0 696.5,466.5" fill="#C8B080" fill-opacity="0.51" stroke="#A08848" stroke-width="0.7"/>
  <polygon points="226.5,764.6 208.5,773.2 212.9,788.9 230.9,780.3 226.5,764.6" fill="#C8B080" fill-opacity="0.51" stroke="#A08848" stroke-width="0.7"/>
  <polygon points="278.8,460.4 263.0,472.5 268.0,483.5 272.6,480.0 274.3,483.9 280.7,479.0 282.4,482.8 287.2,479.2 278.8,460.4" fill="#C8B080" fill-opacity="0.51" stroke="#A08848" stroke-width="0.7"/>
  <polygon points="213.5,549.9 194.7,561.6 199.7,575.2 218.5,563.4 213.5,549.9" fill="#C8B080" fill-opacity="0.50" stroke="#A08848" stroke-width="0.7"/>
  <polygon points="613.5,869.3 577.1,869.1 585.6,880.4 605.0,880.4 613.5,869.3" fill="#C8B080" fill-opacity="0.50" stroke="#A08848" stroke-width="0.7"/>
  <polygon points="211.2,650.6 193.7,659.4 198.2,674.8 215.7,666.1 211.2,650.6" fill="#C8B080" fill-opacity="0.50" stroke="#A08848" stroke-width="0.7"/>
  <polygon points="281.8,851.0 266.4,858.8 270.6,872.9 276.5,869.9 278.1,875.4 287.6,870.6 281.8,851.0" fill="#C8B080" fill-opacity="0.50" stroke="#A08848" stroke-width="0.7"/>
  <polygon points="115.9,36.9 115.3,45.9 134.0,48.6 134.9,37.3 136.0,23.3 127.5,22.7 126.4,38.1 115.9,36.9" fill="#C8B080" fill-opacity="0.50" stroke="#A08848" stroke-width="0.7"/>
  <polygon points="585.6,880.4 577.1,891.3 591.6,891.4 599.5,891.4 613.5,891.6 605.0,880.4 585.6,880.4" fill="#C8B080" fill-opacity="0.50" stroke="#A08848" stroke-width="0.7"/>
  <polygon points="328.8,555.2 311.1,569.0 315.3,578.3 319.5,575.0 321.7,577.8 327.7,573.1 329.0,575.9 335.8,570.6 328.8,555.2" fill="#C8B080" fill-opacity="0.50" stroke="#A08848" stroke-width="0.7"/>
  <polygon points="276.2,328.5 260.4,332.2 263.0,350.8 278.8,347.1 276.2,328.5" fill="#C8B080" fill-opacity="0.50" stroke="#A08848" stroke-width="0.7"/>
  <polygon points="244.4,585.0 229.3,594.1 235.1,610.6 250.2,601.5 244.4,585.0" fill="#C8B080" fill-opacity="0.50" stroke="#A08848" stroke-width="0.7"/>
  <polygon points="637.6,373.4 629.4,373.5 629.5,394.3 647.4,394.1 647.3,380.6 637.6,380.7 637.6,373.4" fill="#C8B080" fill-opacity="0.50" stroke="#A08848" stroke-width="0.7"/>
  <polygon points="704.5,523.8 703.8,543.1 716.4,543.9 719.6,541.1 720.2,524.7 704.5,523.8" fill="#C8B080" fill-opacity="0.50" stroke="#A08848" stroke-width="0.7"/>
  <polygon points="344.1,542.2 331.5,552.7 339.7,569.5 352.3,559.0 344.1,542.2" fill="#C8B080" fill-opacity="0.50" stroke="#A08848" stroke-width="0.7"/>
  <polygon points="173.6,647.8 155.3,657.6 159.6,671.5 177.9,661.8 173.6,647.8" fill="#C8B080" fill-opacity="0.50" stroke="#A08848" stroke-width="0.7"/>
  <polygon points="539.9,745.1 527.2,745.8 527.6,759.3 531.4,759.1 531.9,773.2 540.7,772.8 539.9,745.1" fill="#C8B080" fill-opacity="0.50" stroke="#A08848" stroke-width="0.7"/>
  <polygon points="252.2,607.8 233.4,619.5 237.5,630.6 240.6,628.7 241.8,631.8 255.3,623.3 252.2,614.7 254.3,613.4 252.2,607.8" fill="#C8B080" fill-opacity="0.49" stroke="#A08848" stroke-width="0.7"/>
  <polygon points="361.4,492.1 347.1,502.9 354.0,518.4 368.2,507.5 361.4,492.1" fill="#C8B080" fill-opacity="0.49" stroke="#A08848" stroke-width="0.7"/>
  <polygon points="670.9,269.9 652.8,270.1 652.9,290.7 663.0,290.6 662.9,280.5 670.9,280.5 670.9,269.9" fill="#C8B080" fill-opacity="0.49" stroke="#A08848" stroke-width="0.7"/>
  <polygon points="181.5,663.6 158.9,674.4 162.1,685.9 184.7,675.1 181.5,663.6" fill="#C8B080" fill-opacity="0.49" stroke="#A08848" stroke-width="0.7"/>
  <polygon points="264.6,390.7 250.3,397.0 255.0,415.3 269.4,408.9 264.6,390.7" fill="#C8B080" fill-opacity="0.49" stroke="#A08848" stroke-width="0.7"/>
  <polygon points="116.0,541.1 102.4,551.3 109.5,567.4 123.1,557.3 116.0,541.1" fill="#C8B080" fill-opacity="0.49" stroke="#A08848" stroke-width="0.7"/>
  <polygon points="501.6,843.8 499.4,877.1 508.0,878.0 510.2,844.8 501.6,843.8" fill="#C8B080" fill-opacity="0.49" stroke="#A08848" stroke-width="0.7"/>
  <polygon points="179.3,565.0 160.3,575.3 164.4,588.2 183.4,577.9 179.3,565.0" fill="#C8B080" fill-opacity="0.49" stroke="#A08848" stroke-width="0.7"/>
  <polygon points="253.4,61.0 251.8,82.5 275.9,86.2 276.3,82.4 276.6,78.5 259.3,76.1 260.4,62.1 253.4,61.0" fill="#C8B080" fill-opacity="0.49" stroke="#A08848" stroke-width="0.7"/>
  <polygon points="230.6,633.9 223.3,637.9 230.1,658.5 244.7,650.3 241.5,640.5 237.8,642.6 236.4,638.2 232.7,640.3 230.6,633.9" fill="#C8B080" fill-opacity="0.49" stroke="#A08848" stroke-width="0.7"/>
  <polygon points="674.3,386.8 672.2,395.2 692.5,400.4 695.9,384.2 683.3,384.0 674.3,386.8" fill="#C8B080" fill-opacity="0.49" stroke="#A08848" stroke-width="0.7"/>
  <polygon points="226.4,596.0 209.6,606.6 214.5,620.0 231.4,609.4 226.4,596.0" fill="#C8B080" fill-opacity="0.49" stroke="#A08848" stroke-width="0.7"/>
  <polygon points="291.6,602.0 281.4,605.6 286.7,631.1 296.8,627.5 291.6,602.0" fill="#C8B080" fill-opacity="0.49" stroke="#A08848" stroke-width="0.7"/>
  <polygon points="207.4,680.1 191.2,686.2 194.7,702.0 210.9,695.9 207.4,680.1" fill="#C8B080" fill-opacity="0.49" stroke="#A08848" stroke-width="0.7"/>
  <polygon points="390.8,248.1 386.3,248.2 386.5,262.2 403.4,261.8 403.1,244.6 390.7,244.9 390.8,248.1" fill="#C8B080" fill-opacity="0.49" stroke="#A08848" stroke-width="0.7"/>
  <polygon points="220.4,569.4 201.8,582.2 205.9,592.3 214.0,586.7 215.0,589.2 225.4,582.0 220.4,569.4" fill="#C8B080" fill-opacity="0.48" stroke="#A08848" stroke-width="0.7"/>
  <polygon points="630.9,344.3 630.6,363.5 644.6,363.9 645.0,344.7 630.9,344.3" fill="#C8B080" fill-opacity="0.48" stroke="#A08848" stroke-width="0.7"/>
  <polygon points="205.5,531.2 188.8,542.4 193.8,555.2 210.5,544.0 205.5,531.2" fill="#C8B080" fill-opacity="0.48" stroke="#A08848" stroke-width="0.7"/>
  <polygon points="606.7,490.1 606.0,504.2 615.2,515.8 617.5,501.5 621.6,502.2 622.3,490.8 606.7,490.1" fill="#C8B080" fill-opacity="0.48" stroke="#A08848" stroke-width="0.7"/>
  <polygon points="381.6,615.5 369.8,621.1 375.4,641.2 387.1,635.6 381.6,615.5" fill="#C8B080" fill-opacity="0.48" stroke="#A08848" stroke-width="0.7"/>
  <polygon points="567.8,891.2 567.7,898.6 568.7,906.9 571.0,913.8 573.9,919.6 578.3,925.6 584.0,930.2 588.8,931.6 588.8,923.6 584.8,922.0 580.9,918.4 578.4,914.8 575.6,910.2 573.7,904.3 573.0,898.3 573.1,891.3 567.8,891.2" fill="#C8B080" fill-opacity="0.48" stroke="#A08848" stroke-width="0.7"/>
  <polygon points="469.9,627.1 455.0,629.5 456.7,646.9 471.6,644.5 469.9,627.1" fill="#C8B080" fill-opacity="0.48" stroke="#A08848" stroke-width="0.7"/>
  <polygon points="234.9,482.5 222.7,490.5 229.3,507.8 241.5,499.8 234.9,482.5" fill="#C8B080" fill-opacity="0.48" stroke="#A08848" stroke-width="0.7"/>
  <polygon points="154.6,41.9 154.4,47.1 162.0,48.4 171.2,49.5 185.7,50.9 190.5,51.3 191.0,44.4 185.3,43.9 185.7,36.0 180.3,35.4 179.8,44.5 161.4,42.7 154.6,41.9" fill="#C8B080" fill-opacity="0.48" stroke="#A08848" stroke-width="0.7"/>
  <polygon points="365.1,241.2 364.8,255.6 375.5,256.6 376.2,254.5 383.2,254.7 383.6,241.6 365.1,241.2" fill="#C8B080" fill-opacity="0.48" stroke="#A08848" stroke-width="0.7"/>
  <polygon points="454.6,630.1 438.6,632.2 440.0,648.6 455.7,646.2 454.6,630.1" fill="#C8B080" fill-opacity="0.48" stroke="#A08848" stroke-width="0.7"/>
  <polygon points="514.5,683.5 497.4,686.1 498.7,701.0 515.8,698.3 514.5,683.5" fill="#C8B080" fill-opacity="0.48" stroke="#A08848" stroke-width="0.7"/>
  <polygon points="670.9,427.9 670.7,447.3 683.9,447.6 684.1,428.2 670.9,427.9" fill="#C8B080" fill-opacity="0.48" stroke="#A08848" stroke-width="0.7"/>
  <polygon points="246.9,503.3 231.0,513.8 236.0,526.7 251.8,516.1 246.9,503.3" fill="#C8B080" fill-opacity="0.48" stroke="#A08848" stroke-width="0.7"/>
  <polygon points="553.9,674.8 540.0,676.2 541.0,694.4 555.0,693.0 553.9,674.8" fill="#C8B080" fill-opacity="0.48" stroke="#A08848" stroke-width="0.7"/>
  <polygon points="329.6,589.6 311.9,605.0 317.5,615.9 331.2,604.0 328.8,599.3 332.8,595.9 329.6,589.6" fill="#C8B080" fill-opacity="0.47" stroke="#A08848" stroke-width="0.7"/>
  <polygon points="228.3,679.5 213.0,685.9 216.7,700.8 231.9,694.4 228.3,679.5" fill="#C8B080" fill-opacity="0.47" stroke="#A08848" stroke-width="0.7"/>
  <polygon points="628.6,303.8 604.7,304.7 605.0,315.2 628.8,314.3 628.6,303.8" fill="#C8B080" fill-opacity="0.47" stroke="#A08848" stroke-width="0.7"/>
  <polygon points="455.9,789.3 455.4,809.2 467.9,809.8 468.4,789.9 455.9,789.3" fill="#C8B080" fill-opacity="0.47" stroke="#A08848" stroke-width="0.7"/>
  <polygon points="678.8,196.9 678.7,207.9 701.1,208.3 701.2,197.3 678.8,196.9" fill="#C8B080" fill-opacity="0.47" stroke="#A08848" stroke-width="0.7"/>
  <polygon points="602.8,923.7 602.7,931.8 605.5,931.2 611.0,927.4 615.0,923.0 618.1,917.4 620.9,909.4 621.7,903.2 622.2,896.9 622.2,891.5 617.1,891.5 617.2,896.7 616.7,902.5 616.0,908.1 613.8,913.9 611.6,917.4 608.8,920.5 605.2,923.3 602.8,923.7" fill="#C8B080" fill-opacity="0.47" stroke="#A08848" stroke-width="0.7"/>
  <polygon points="162.2,626.8 148.1,637.9 154.7,652.4 164.5,644.8 161.9,639.0 166.2,635.6 162.2,626.8" fill="#C8B080" fill-opacity="0.47" stroke="#A08848" stroke-width="0.7"/>
  <polygon points="295.9,327.3 280.3,331.1 282.5,346.2 298.1,342.3 295.9,327.3" fill="#C8B080" fill-opacity="0.47" stroke="#A08848" stroke-width="0.7"/>
  <polygon points="467.5,736.2 467.2,745.4 471.1,745.6 470.6,757.4 480.5,758.0 481.3,737.1 467.5,736.2" fill="#C8B080" fill-opacity="0.47" stroke="#A08848" stroke-width="0.7"/>
  <polygon points="279.6,352.1 263.5,356.2 265.6,370.7 281.8,366.7 279.6,352.1" fill="#C8B080" fill-opacity="0.47" stroke="#A08848" stroke-width="0.7"/>
  <polygon points="307.8,495.8 301.9,500.1 306.9,511.8 314.4,506.4 313.5,504.2 320.6,499.0 315.2,486.1 306.4,492.5 307.8,495.8" fill="#C8B080" fill-opacity="0.47" stroke="#A08848" stroke-width="0.7"/>
  <polygon points="0.0,455.5 0.0,461.0 1.5,472.5 3.9,490.3 10.7,488.8 8.4,471.3 6.1,454.1 0.0,455.5" fill="#C8B080" fill-opacity="0.47" stroke="#A08848" stroke-width="0.7"/>
  <polygon points="206.7,341.5 191.0,347.8 194.2,361.7 210.0,355.4 206.7,341.5" fill="#C8B080" fill-opacity="0.47" stroke="#A08848" stroke-width="0.7"/>
  <polygon points="438.2,692.5 435.2,698.2 447.8,720.3 454.5,704.9 438.2,692.5" fill="#C8B080" fill-opacity="0.47" stroke="#A08848" stroke-width="0.7"/>
  <polygon points="332.1,514.3 322.0,522.9 330.2,539.3 340.3,530.7 332.1,514.3" fill="#C8B080" fill-opacity="0.47" stroke="#A08848" stroke-width="0.7"/>
  <polygon points="231.3,699.8 217.1,706.2 220.9,721.0 235.2,714.6 231.3,699.8" fill="#C8B080" fill-opacity="0.47" stroke="#A08848" stroke-width="0.7"/>
  <polygon points="307.2,581.3 294.3,593.7 301.2,606.2 309.0,598.7 307.8,596.7 313.0,591.7 307.2,581.3" fill="#C8B080" fill-opacity="0.46" stroke="#A08848" stroke-width="0.7"/>
  <polygon points="301.1,352.1 284.5,360.2 288.0,372.4 304.5,364.3 301.1,352.1" fill="#C8B080" fill-opacity="0.46" stroke="#A08848" stroke-width="0.7"/>
  <polygon points="607.4,232.0 607.3,242.8 609.6,242.8 609.5,249.1 621.5,249.3 621.7,232.2 607.4,232.0" fill="#C8B080" fill-opacity="0.46" stroke="#A08848" stroke-width="0.7"/>
  <polygon points="551.7,454.6 548.9,465.4 567.8,473.8 570.6,463.0 551.7,454.6" fill="#C8B080" fill-opacity="0.46" stroke="#A08848" stroke-width="0.7"/>
  <polygon points="420.8,268.0 414.9,268.1 415.1,290.0 427.6,289.8 427.5,280.0 425.1,280.1 425.0,272.2 420.9,272.2 420.8,268.0" fill="#C8B080" fill-opacity="0.46" stroke="#A08848" stroke-width="0.7"/>
  <polygon points="286.0,39.2 285.1,50.3 305.2,53.2 306.1,42.1 286.0,39.2" fill="#C8B080" fill-opacity="0.46" stroke="#A08848" stroke-width="0.7"/>
  <polygon points="251.5,532.4 241.2,539.3 248.0,556.7 258.3,549.9 251.5,532.4" fill="#C8B080" fill-opacity="0.46" stroke="#A08848" stroke-width="0.7"/>
  <polygon points="550.8,738.7 550.3,748.9 572.4,750.7 572.8,740.5 550.8,738.7" fill="#C8B080" fill-opacity="0.46" stroke="#A08848" stroke-width="0.7"/>
  <polygon points="235.6,719.0 220.9,725.5 224.4,739.3 239.1,732.8 235.6,719.0" fill="#C8B080" fill-opacity="0.46" stroke="#A08848" stroke-width="0.7"/>
  <polygon points="704.6,443.5 700.4,443.6 700.5,455.8 713.8,462.7 713.7,444.4 708.8,444.4 708.7,438.4 704.6,438.5 704.6,443.5" fill="#C8B080" fill-opacity="0.46" stroke="#A08848" stroke-width="0.7"/>
  <polygon points="381.8,834.4 372.5,840.4 379.6,859.6 388.9,853.6 381.8,834.4" fill="#C8B080" fill-opacity="0.46" stroke="#A08848" stroke-width="0.7"/>
  <polygon points="361.0,779.5 360.8,795.5 374.4,795.9 374.7,779.8 361.0,779.5" fill="#C8B080" fill-opacity="0.46" stroke="#A08848" stroke-width="0.7"/>
  <polygon points="690.5,329.0 690.5,340.5 709.4,340.7 709.5,329.2 690.5,329.0" fill="#C8B080" fill-opacity="0.46" stroke="#A08848" stroke-width="0.7"/>
  <polygon points="362.5,415.0 351.1,422.7 357.0,437.7 368.4,430.0 362.5,415.0" fill="#C8B080" fill-opacity="0.46" stroke="#A08848" stroke-width="0.7"/>
  <polygon points="154.0,13.1 153.1,29.7 155.4,29.9 162.0,30.5 166.1,30.8 166.9,14.3 154.0,13.1" fill="#C8B080" fill-opacity="0.46" stroke="#A08848" stroke-width="0.7"/>
  <polygon points="454.9,652.6 439.4,653.3 439.7,667.1 455.3,666.4 454.9,652.6" fill="#C8B080" fill-opacity="0.46" stroke="#A08848" stroke-width="0.7"/>
  <polygon points="260.4,37.8 259.6,49.4 277.8,51.5 278.6,39.9 260.4,37.8" fill="#C8B080" fill-opacity="0.45" stroke="#A08848" stroke-width="0.7"/>
  <polygon points="238.6,17.5 238.1,26.0 251.7,27.3 251.3,35.1 255.3,35.5 257.2,35.7 257.8,26.4 258.2,19.6 238.6,17.5" fill="#C8B080" fill-opacity="0.45" stroke="#A08848" stroke-width="0.7"/>
  <polygon points="339.9,278.3 325.4,280.8 326.8,295.0 341.3,292.5 339.9,278.3" fill="#C8B080" fill-opacity="0.45" stroke="#A08848" stroke-width="0.7"/>
  <polygon points="194.6,0.1 193.1,28.0 200.4,28.8 202.1,0.9 194.6,0.1" fill="#C8B080" fill-opacity="0.45" stroke="#A08848" stroke-width="0.7"/>
  <polygon points="290.3,485.5 273.5,497.8 277.5,507.1 294.3,494.8 290.3,485.5" fill="#C8B080" fill-opacity="0.45" stroke="#A08848" stroke-width="0.7"/>
  <polygon points="354.6,273.2 341.6,275.0 342.8,290.4 355.9,288.6 354.6,273.2" fill="#C8B080" fill-opacity="0.45" stroke="#A08848" stroke-width="0.7"/>
  <polygon points="181.0,328.2 170.6,332.0 174.4,350.2 184.8,346.4 181.0,328.2" fill="#C8B080" fill-opacity="0.45" stroke="#A08848" stroke-width="0.7"/>
  <polygon points="453.7,398.7 447.9,410.3 459.8,420.5 465.6,408.8 453.7,398.7" fill="#C8B080" fill-opacity="0.45" stroke="#A08848" stroke-width="0.7"/>
  <polygon points="426.3,234.1 413.4,234.6 413.7,250.0 426.6,249.6 426.3,234.1" fill="#C8B080" fill-opacity="0.45" stroke="#A08848" stroke-width="0.7"/>
  <polygon points="563.3,298.7 554.1,312.5 558.5,316.2 563.3,318.3 568.7,318.3 568.7,299.5 563.3,298.7" fill="#C8B080" fill-opacity="0.45" stroke="#A08848" stroke-width="0.7"/>
  <polygon points="470.2,650.7 455.6,652.0 456.3,665.4 470.9,664.0 470.2,650.7" fill="#C8B080" fill-opacity="0.45" stroke="#A08848" stroke-width="0.7"/>
  <polygon points="646.3,325.4 630.9,325.4 630.9,338.1 646.3,338.0 646.3,325.4" fill="#C8B080" fill-opacity="0.45" stroke="#A08848" stroke-width="0.7"/>
  <polygon points="720.2,209.0 710.9,209.9 712.2,232.3 720.2,231.5 720.2,209.0" fill="#C8B080" fill-opacity="0.45" stroke="#A08848" stroke-width="0.7"/>
  <polygon points="491.2,686.9 477.6,689.2 478.9,703.2 492.5,701.0 491.2,686.9" fill="#C8B080" fill-opacity="0.45" stroke="#A08848" stroke-width="0.7"/>
  <polygon points="470.1,791.6 469.8,810.8 479.9,811.0 480.2,791.8 470.1,791.6" fill="#C8B080" fill-opacity="0.45" stroke="#A08848" stroke-width="0.7"/>
  <polygon points="281.5,82.9 281.3,85.2 304.6,88.2 305.0,82.5 287.2,80.1 288.1,69.8 282.6,69.0 281.5,82.9" fill="#C8B080" fill-opacity="0.44" stroke="#A08848" stroke-width="0.7"/>
  <polygon points="453.6,814.5 453.4,829.4 466.2,829.8 466.4,814.8 453.6,814.5" fill="#C8B080" fill-opacity="0.44" stroke="#A08848" stroke-width="0.7"/>
  <polygon points="434.5,654.9 422.9,659.9 426.7,674.8 438.2,669.7 434.5,654.9" fill="#C8B080" fill-opacity="0.44" stroke="#A08848" stroke-width="0.7"/>
  <polygon points="458.7,762.3 457.6,782.2 467.1,783.2 468.2,763.3 458.7,762.3" fill="#C8B080" fill-opacity="0.44" stroke="#A08848" stroke-width="0.7"/>
  <polygon points="574.6,682.9 558.0,683.1 558.0,694.3 574.7,694.1 574.6,682.9" fill="#C8B080" fill-opacity="0.44" stroke="#A08848" stroke-width="0.7"/>
  <polygon points="237.0,41.7 236.6,46.4 250.5,48.3 251.3,35.1 237.6,33.4 237.0,41.7" fill="#C8B080" fill-opacity="0.44" stroke="#A08848" stroke-width="0.7"/>
  <polygon points="649.8,827.5 643.5,832.8 653.4,853.0 659.8,847.7 649.8,827.5" fill="#C8B080" fill-opacity="0.44" stroke="#A08848" stroke-width="0.7"/>
  <polygon points="629.5,300.9 629.3,313.9 643.1,314.3 643.3,301.2 629.5,300.9" fill="#C8B080" fill-opacity="0.44" stroke="#A08848" stroke-width="0.7"/>
  <polygon points="310.9,604.1 295.3,615.8 299.4,625.0 311.2,616.1 310.3,614.2 314.0,611.4 310.9,604.1" fill="#C8B080" fill-opacity="0.44" stroke="#A08848" stroke-width="0.7"/>
  <polygon points="210.3,432.3 199.2,444.3 205.3,454.0 216.3,442.0 210.3,432.3" fill="#C8B080" fill-opacity="0.44" stroke="#A08848" stroke-width="0.7"/>
  <polygon points="699.7,380.3 697.3,397.8 711.2,398.1 706.7,381.1 699.7,380.3" fill="#C8B080" fill-opacity="0.44" stroke="#A08848" stroke-width="0.7"/>
  <polygon points="705.7,251.9 686.3,252.2 686.4,263.6 694.3,263.5 694.3,259.7 705.7,259.5 705.7,251.9" fill="#C8B080" fill-opacity="0.44" stroke="#A08848" stroke-width="0.7"/>
  <polygon points="224.6,463.9 216.1,469.0 221.8,485.3 230.3,480.3 224.6,463.9" fill="#C8B080" fill-opacity="0.43" stroke="#A08848" stroke-width="0.7"/>
  <polygon points="554.8,535.8 554.1,544.3 573.3,547.0 574.0,538.5 554.8,535.8" fill="#C8B080" fill-opacity="0.43" stroke="#A08848" stroke-width="0.7"/>
  <polygon points="346.2,788.2 345.1,802.5 356.2,803.9 357.3,789.6 346.2,788.2" fill="#C8B080" fill-opacity="0.43" stroke="#A08848" stroke-width="0.7"/>
  <polygon points="466.6,689.1 454.1,691.2 454.2,697.8 460.0,697.4 464.9,704.5 468.4,703.5 470.0,701.9 469.7,692.5 466.6,689.1" fill="#C8B080" fill-opacity="0.43" stroke="#A08848" stroke-width="0.7"/>
  <polygon points="636.8,811.6 631.0,819.6 641.6,832.6 647.3,824.5 636.8,811.6" fill="#C8B080" fill-opacity="0.43" stroke="#A08848" stroke-width="0.7"/>
  <polygon points="571.2,414.4 558.9,430.3 571.2,440.0 571.2,414.4" fill="#C8B080" fill-opacity="0.43" stroke="#A08848" stroke-width="0.7"/>
  <polygon points="454.4,673.1 453.8,684.2 468.1,682.4 469.8,672.2 454.4,673.1" fill="#C8B080" fill-opacity="0.43" stroke="#A08848" stroke-width="0.7"/>
  <polygon points="588.8,931.6 588.8,933.9 591.6,933.9 599.5,934.0 602.7,934.0 602.7,931.8 602.8,923.7 602.8,922.8 599.6,922.7 591.6,922.7 588.8,922.7 588.8,923.6 588.8,931.6" fill="#C8B080" fill-opacity="0.43" stroke="#A08848" stroke-width="0.7"/>
  <polygon points="152.8,932.8 144.5,935.4 147.7,953.1 156.0,950.5 152.8,932.8" fill="#C8B080" fill-opacity="0.43" stroke="#A08848" stroke-width="0.7"/>
  <polygon points="613.5,869.3 613.5,877.7 629.3,877.8 632.1,877.8 632.1,869.4 629.3,869.4 613.5,869.3" fill="#C8B080" fill-opacity="0.43" stroke="#A08848" stroke-width="0.7"/>
  <polygon points="558.5,869.1 558.5,877.4 561.4,877.4 577.1,877.4 577.1,869.1 561.3,869.1 558.5,869.1" fill="#C8B080" fill-opacity="0.43" stroke="#A08848" stroke-width="0.7"/>
  <polygon points="345.1,326.7 336.8,333.0 343.4,346.4 351.6,340.6 345.1,326.7" fill="#C8B080" fill-opacity="0.42" stroke="#A08848" stroke-width="0.7"/>
  <polygon points="369.7,844.4 360.2,850.0 364.8,863.2 370.0,860.2 374.3,857.7 369.7,844.4" fill="#C8B080" fill-opacity="0.42" stroke="#A08848" stroke-width="0.7"/>
  <polygon points="20.0,44.8 17.2,50.8 17.6,56.1 20.8,59.9 26.4,59.7 29.1,56.2 29.2,49.4 26.2,44.7 20.0,44.8" fill="#C8B080" fill-opacity="0.42" stroke="#A08848" stroke-width="0.7"/>
  <polygon points="573.9,671.3 558.4,672.4 558.8,681.9 574.3,680.7 573.9,671.3" fill="#C8B080" fill-opacity="0.42" stroke="#A08848" stroke-width="0.7"/>
  <polygon points="717.1,835.0 716.6,877.0 720.2,877.4 720.2,835.1 717.1,835.0" fill="#C8B080" fill-opacity="0.42" stroke="#A08848" stroke-width="0.7"/>
  <polygon points="396.1,102.8 395.7,112.1 410.9,113.3 411.3,104.0 396.1,102.8" fill="#C8B080" fill-opacity="0.42" stroke="#A08848" stroke-width="0.7"/>
  <polygon points="198.6,444.7 188.9,455.1 194.3,463.8 204.0,453.4 198.6,444.7" fill="#C8B080" fill-opacity="0.42" stroke="#A08848" stroke-width="0.7"/>
  <polygon points="720.2,141.4 707.0,141.7 707.2,152.4 720.2,152.0 720.2,141.4" fill="#C8B080" fill-opacity="0.42" stroke="#A08848" stroke-width="0.7"/>
  <polygon points="675.5,862.9 660.5,869.0 662.2,875.8 675.4,875.0 675.5,862.9" fill="#C8B080" fill-opacity="0.42" stroke="#A08848" stroke-width="0.7"/>
  <polygon points="527.6,838.2 527.2,856.3 531.5,856.4 538.4,838.6 527.6,838.2" fill="#C8B080" fill-opacity="0.42" stroke="#A08848" stroke-width="0.7"/>
  <polygon points="515.3,110.5 514.0,113.8 515.3,116.7 517.5,118.1 526.6,118.0 528.1,118.2 528.9,116.2 534.1,117.0 535.6,115.1 535.5,112.1 527.7,111.1 517.5,110.7 515.3,110.5" fill="#C8B080" fill-opacity="0.41" stroke="#A08848" stroke-width="0.7"/>
  <polygon points="459.5,745.2 458.7,758.6 468.4,759.6 469.2,746.3 459.5,745.2" fill="#C8B080" fill-opacity="0.41" stroke="#A08848" stroke-width="0.7"/>
  <polygon points="315.3,-0.4 314.7,11.7 318.6,12.0 323.2,19.5 324.0,6.0 324.2,-0.4 315.3,-0.4" fill="#C8B080" fill-opacity="0.41" stroke="#A08848" stroke-width="0.7"/>
  <polygon points="118.2,510.1 110.4,517.5 113.6,523.1 116.4,528.2 124.2,520.8 121.3,515.7 118.2,510.1" fill="#C8B080" fill-opacity="0.41" stroke="#A08848" stroke-width="0.7"/>
  <polygon points="685.8,434.2 685.6,447.5 695.0,447.7 695.2,434.4 685.8,434.2" fill="#C8B080" fill-opacity="0.41" stroke="#A08848" stroke-width="0.7"/>
  <polygon points="633.7,802.9 617.0,804.9 627.7,816.2 634.4,808.0 633.7,802.9" fill="#C8B080" fill-opacity="0.41" stroke="#A08848" stroke-width="0.7"/>
  <polygon points="424.8,641.2 417.3,644.8 421.2,659.0 428.7,655.5 424.8,641.2" fill="#C8B080" fill-opacity="0.41" stroke="#A08848" stroke-width="0.7"/>
  <polygon points="305.8,15.7 305.7,18.0 311.2,11.4 314.7,11.7 315.3,-0.4 306.6,-0.4 306.4,3.2 305.8,15.7" fill="#C8B080" fill-opacity="0.41" stroke="#A08848" stroke-width="0.7"/>
  <polygon points="419.3,875.7 418.7,878.0 418.7,880.4 419.3,882.7 420.5,884.6 422.1,885.8 423.9,886.3 425.6,886.0 427.2,885.0 428.5,883.4 429.3,881.3 429.5,879.0 429.2,876.8 428.4,874.7 427.1,873.2 425.5,872.2 423.7,872.0 421.9,872.5 420.4,873.8 419.3,875.7" fill="#C8B080" fill-opacity="0.41" stroke="#A08848" stroke-width="0.7"/>
  <polygon points="664.5,849.6 654.1,855.1 657.0,864.9 667.5,859.4 664.5,849.6" fill="#C8B080" fill-opacity="0.41" stroke="#A08848" stroke-width="0.7"/>
  <polygon points="566.2,696.4 566.1,709.9 574.5,710.0 574.6,696.5 566.2,696.4" fill="#C8B080" fill-opacity="0.41" stroke="#A08848" stroke-width="0.7"/>
  <polygon points="624.6,201.4 617.8,201.4 617.8,217.8 624.7,217.8 624.6,201.4" fill="#C8B080" fill-opacity="0.41" stroke="#A08848" stroke-width="0.7"/>
  <polygon points="528.3,681.0 519.5,683.4 521.5,695.2 530.2,692.7 528.3,681.0" fill="#C8B080" fill-opacity="0.40" stroke="#A08848" stroke-width="0.7"/>
  <polygon points="720.2,258.3 714.4,258.7 715.1,277.7 720.2,277.4 720.2,258.3" fill="#C8B080" fill-opacity="0.40" stroke="#A08848" stroke-width="0.7"/>
  <polygon points="613.9,288.6 613.8,296.5 626.8,296.8 626.9,288.8 613.9,288.6" fill="#C8B080" fill-opacity="0.40" stroke="#A08848" stroke-width="0.7"/>
  <polygon points="672.0,250.2 671.3,259.6 681.5,261.0 682.2,251.6 672.0,250.2" fill="#C8B080" fill-opacity="0.40" stroke="#A08848" stroke-width="0.7"/>
  <polygon points="613.5,869.3 605.0,880.4 613.5,891.6 613.5,877.7 613.5,869.3" fill="#C8B080" fill-opacity="0.40" stroke="#A08848" stroke-width="0.7"/>
  <polygon points="577.1,877.4 577.1,891.3 585.6,880.4 577.1,869.1 577.1,877.4" fill="#C8B080" fill-opacity="0.40" stroke="#A08848" stroke-width="0.7"/>
  <polygon points="436.0,639.0 426.7,640.4 427.5,650.2 436.9,648.7 436.0,639.0" fill="#C8B080" fill-opacity="0.40" stroke="#A08848" stroke-width="0.7"/>
  <polygon points="720.2,239.4 713.9,239.9 714.7,255.4 720.2,254.9 720.2,239.4" fill="#C8B080" fill-opacity="0.40" stroke="#A08848" stroke-width="0.7"/>
  <polygon points="311.2,11.4 305.7,18.0 316.1,18.9 323.2,19.5 318.6,12.0 314.7,11.7 311.2,11.4" fill="#C8B080" fill-opacity="0.39" stroke="#A08848" stroke-width="0.7"/>
  <polygon points="156.2,-0.4 141.3,-0.4 145.3,6.2 155.8,7.1 156.2,-0.4" fill="#C8B080" fill-opacity="0.39" stroke="#A08848" stroke-width="0.7"/>
  <polygon points="154.8,39.0 154.6,41.9 161.4,42.7 162.0,30.5 155.4,29.9 154.8,39.0" fill="#C8B080" fill-opacity="0.39" stroke="#A08848" stroke-width="0.7"/>
  <polygon points="20.7,318.9 12.4,320.5 13.4,329.9 21.7,328.3 20.7,318.9" fill="#C8B080" fill-opacity="0.39" stroke="#A08848" stroke-width="0.7"/>
  <polygon points="537.9,678.7 530.9,680.1 532.2,691.0 539.2,689.5 537.9,678.7" fill="#C8B080" fill-opacity="0.39" stroke="#A08848" stroke-width="0.7"/>
  <polygon points="395.4,931.6 395.2,933.5 395.4,935.4 396.1,937.0 397.2,938.3 398.5,939.0 399.9,939.2 401.3,938.7 402.5,937.7 403.3,936.2 403.8,934.5 403.8,932.6 403.4,930.8 402.5,929.4 401.3,928.3 400.0,927.8 398.5,928.0 397.2,928.7 396.1,930.0 395.4,931.6" fill="#C8B080" fill-opacity="0.39" stroke="#A08848" stroke-width="0.7"/>
  <polygon points="148.3,477.8 138.7,482.4 140.3,488.0 149.8,483.5 149.2,481.2 148.3,477.8" fill="#C8B080" fill-opacity="0.38" stroke="#A08848" stroke-width="0.7"/>
  <polygon points="593.1,928.2 588.8,933.9 591.6,933.9 599.5,934.0 602.7,934.0 598.4,928.3 593.1,928.2" fill="#C8B080" fill-opacity="0.38" stroke="#A08848" stroke-width="0.7"/>
  <polygon points="231.5,-0.4 231.2,4.9 239.4,5.5 239.7,-0.4 231.5,-0.4" fill="#C8B080" fill-opacity="0.37" stroke="#A08848" stroke-width="0.7"/>
  <polygon points="720.2,289.9 717.7,290.1 718.2,305.0 720.2,307.9 720.2,289.9" fill="#C8B080" fill-opacity="0.37" stroke="#A08848" stroke-width="0.7"/>
  <polygon points="92.8,536.1 92.5,539.3 102.8,540.7 103.1,537.6 92.8,536.1" fill="#C8B080" fill-opacity="0.37" stroke="#A08848" stroke-width="0.7"/>
  <polygon points="720.2,330.5 719.3,330.5 719.9,376.2 720.2,376.2 720.2,330.5" fill="#C8B080" fill-opacity="0.36" stroke="#A08848" stroke-width="0.7"/>
  <polygon points="602.8,922.8 598.4,928.3 602.7,934.0 602.7,931.8 602.8,923.7 602.8,922.8" fill="#C8B080" fill-opacity="0.36" stroke="#A08848" stroke-width="0.7"/>
  <polygon points="588.8,931.6 588.8,933.9 593.1,928.2 588.8,922.7 588.8,923.6 588.8,931.6" fill="#C8B080" fill-opacity="0.36" stroke="#A08848" stroke-width="0.7"/>
  <polygon points="558.5,869.1 558.5,877.4 561.4,877.4 561.3,869.1 558.5,869.1" fill="#C8B080" fill-opacity="0.36" stroke="#A08848" stroke-width="0.7"/>
  <polygon points="632.1,869.4 629.3,869.4 629.3,877.8 632.1,877.8 632.1,869.4" fill="#C8B080" fill-opacity="0.36" stroke="#A08848" stroke-width="0.7"/>
  <polygon points="719.3,812.0 718.8,825.9 720.2,826.0 720.2,812.1 719.3,812.0" fill="#C8B080" fill-opacity="0.36" stroke="#A08848" stroke-width="0.7"/>
  <polygon points="194.6,-0.4 194.6,0.1 202.1,0.9 202.2,-0.4 194.6,-0.4" fill="#C8B080" fill-opacity="0.35" stroke="#A08848" stroke-width="0.7"/>
  <polygon points="689.1,-0.4 685.5,-0.4 685.5,-0.3 689.1,-0.4" fill="#C8B080" fill-opacity="0.35" stroke="#A08848" stroke-width="0.7"/>
</g>

<!-- waterways -->
<g fill="none" stroke="#88BBCC" stroke-width="3" stroke-linecap="round" stroke-linejoin="round" stroke-opacity="0.8">
  <polyline points="380.0,2.3 379.4,7.5 381.8,8.4 383.8,8.3 383.8,5.7 383.8,-0.4 379.9,-0.4"/>
  <polyline points="362.8,99.0 362.5,102.4 362.5,107.8 364.8,108.0 366.9,108.3 367.3,100.8 367.0,96.7 367.3,92.9 364.9,92.9 362.7,92.5 363.0,96.1"/>
  <polyline points="363.9,83.6 363.1,85.6 365.5,86.2 368.4,85.9 367.9,82.7 368.4,78.6 369.4,70.1 370.5,60.1 372.5,50.7 373.4,47.3 375.2,44.1 378.3,38.9 380.2,36.5 381.8,34.1 382.5,31.4 382.5,28.7 380.3,28.1 377.9,27.9 377.7,31.5 376.7,33.1 374.4,35.8 371.9,39.8 370.1,43.9 369.2,47.3 367.8,52.3 367.0,57.0 366.2,61.5 365.7,66.9 365.1,72.1 364.6,78.7"/>
  <polyline points="381.9,-0.4 381.8,8.4 381.5,11.9 380.3,28.1 379.1,33.6 375.9,38.0 373.7,42.1 372.1,46.0 370.0,55.1 368.3,61.8 367.3,70.0 366.4,79.8 365.5,86.2 364.9,92.9 364.8,108.0"/>
</g>

<!-- trees -->
<g fill="#5A8840" fill-opacity="0.6">
</g>

<!-- reference markers -->
<g>
  <circle cx="593.5" cy="890.3" r="7" fill="#E05050" fill-opacity="0.8" stroke="white" stroke-width="1.5"/>
  <text x="603.5" y="894.3" font-size="12" font-weight="700" fill="#C03030">팔달문</text>
  <circle cx="507.3" cy="190.1" r="7" fill="#E05050" fill-opacity="0.8" stroke="white" stroke-width="1.5"/>
  <text x="517.3" y="194.1" font-size="12" font-weight="700" fill="#C03030">대형건물</text>
  <circle cx="348.9" cy="29.3" r="7" fill="#E05050" fill-opacity="0.8" stroke="white" stroke-width="1.5"/>
  <text x="358.9" y="33.3" font-size="12" font-weight="700" fill="#C03030">나무</text>
  <circle cx="372.5" cy="67.6" r="7" fill="#E05050" fill-opacity="0.8" stroke="white" stroke-width="1.5"/>
  <text x="382.5" y="71.6" font-size="12" font-weight="700" fill="#C03030">수로</text>
</g>

<!-- grid (every 50 DXF units = 50m) -->
<g stroke="#8888AA" stroke-width="0.5" stroke-opacity="0.3" stroke-dasharray="4 4">
  <line x1="0.0" y1="0" x2="0.0" y2="1000"/>
  <text x="2.0" y="14" font-size="10" fill="#8888AA" fill-opacity="0.7">0m</text>
  <line x1="69.5" y1="0" x2="69.5" y2="1000"/>
  <text x="71.5" y="14" font-size="10" fill="#8888AA" fill-opacity="0.7">50m</text>
  <line x1="139.0" y1="0" x2="139.0" y2="1000"/>
  <text x="141.0" y="14" font-size="10" fill="#8888AA" fill-opacity="0.7">100m</text>
  <line x1="208.5" y1="0" x2="208.5" y2="1000"/>
  <text x="210.5" y="14" font-size="10" fill="#8888AA" fill-opacity="0.7">150m</text>
  <line x1="278.0" y1="0" x2="278.0" y2="1000"/>
  <text x="280.0" y="14" font-size="10" fill="#8888AA" fill-opacity="0.7">200m</text>
  <line x1="347.5" y1="0" x2="347.5" y2="1000"/>
  <text x="349.5" y="14" font-size="10" fill="#8888AA" fill-opacity="0.7">250m</text>
  <line x1="417.0" y1="0" x2="417.0" y2="1000"/>
  <text x="419.0" y="14" font-size="10" fill="#8888AA" fill-opacity="0.7">300m</text>
  <line x1="486.5" y1="0" x2="486.5" y2="1000"/>
  <text x="488.5" y="14" font-size="10" fill="#8888AA" fill-opacity="0.7">350m</text>
  <line x1="556.0" y1="0" x2="556.0" y2="1000"/>
  <text x="558.0" y="14" font-size="10" fill="#8888AA" fill-opacity="0.7">400m</text>
  <line x1="625.5" y1="0" x2="625.5" y2="1000"/>
  <text x="627.5" y="14" font-size="10" fill="#8888AA" fill-opacity="0.7">450m</text>
  <line x1="695.0" y1="0" x2="695.0" y2="1000"/>
  <text x="697.0" y="14" font-size="10" fill="#8888AA" fill-opacity="0.7">500m</text>
  <line x1="764.5" y1="0" x2="764.5" y2="1000"/>
  <line x1="0" y1="1000.0" x2="720" y2="1000.0"/>
  <text x="2" y="998.0" font-size="10" fill="#8888AA" fill-opacity="0.7">0m</text>
  <line x1="0" y1="908.6" x2="720" y2="908.6"/>
  <text x="2" y="906.6" font-size="10" fill="#8888AA" fill-opacity="0.7">50m</text>
  <line x1="0" y1="817.2" x2="720" y2="817.2"/>
  <text x="2" y="815.2" font-size="10" fill="#8888AA" fill-opacity="0.7">100m</text>
  <line x1="0" y1="725.8" x2="720" y2="725.8"/>
  <text x="2" y="723.8" font-size="10" fill="#8888AA" fill-opacity="0.7">150m</text>
  <line x1="0" y1="634.4" x2="720" y2="634.4"/>
  <text x="2" y="632.4" font-size="10" fill="#8888AA" fill-opacity="0.7">200m</text>
  <line x1="0" y1="543.0" x2="720" y2="543.0"/>
  <text x="2" y="541.0" font-size="10" fill="#8888AA" fill-opacity="0.7">250m</text>
  <line x1="0" y1="451.6" x2="720" y2="451.6"/>
  <text x="2" y="449.6" font-size="10" fill="#8888AA" fill-opacity="0.7">300m</text>
  <line x1="0" y1="360.1" x2="720" y2="360.1"/>
  <text x="2" y="358.1" font-size="10" fill="#8888AA" fill-opacity="0.7">350m</text>
  <line x1="0" y1="268.7" x2="720" y2="268.7"/>
  <text x="2" y="266.7" font-size="10" fill="#8888AA" fill-opacity="0.7">400m</text>
  <line x1="0" y1="177.3" x2="720" y2="177.3"/>
  <text x="2" y="175.3" font-size="10" fill="#8888AA" fill-opacity="0.7">450m</text>
  <line x1="0" y1="85.9" x2="720" y2="85.9"/>
  <text x="2" y="83.9" font-size="10" fill="#8888AA" fill-opacity="0.7">500m</text>
  <line x1="0" y1="-5.5" x2="720" y2="-5.5"/>
</g>
</svg>